<svg width="40" height="40" viewBox="0 0 40 40" fill="none" xmlns="http://www.w3.org/2000/svg">
<path d="M6.68262 5C4.84595 5 3.35095 6.49341 3.34928 8.33008L3.33301 38.3301L9.99967 31.6667H33.333C35.1713 31.6667 36.6663 30.1717 36.6663 28.3333V8.33333C36.6663 6.495 35.1713 5 33.333 5H6.68262ZM6.68262 8.33333H33.333V28.3333H8.61947L6.67285 30.2832L6.68262 8.33333ZM19.9997 10C16.5897 10 14.9997 12.9833 14.9997 15H18.333C18.333 14.725 18.623 13.3333 19.9997 13.3333C21.648 13.3333 21.6663 14.9833 21.6663 15C21.6663 16.7567 18.333 20.0417 18.333 21.6667H21.6663C21.6663 20.0233 24.9997 17.37 24.9997 15C24.9997 12.5417 23.1297 10 19.9997 10ZM18.333 23.3333V26.6667H21.6663V23.3333H18.333Z" fill="#1AA995"/>
</svg>
