<svg width="24" height="24" viewBox="0 0 24 24" fill="none" xmlns="http://www.w3.org/2000/svg">
<path d="M5 1C4.30821 2.38358 4.10673 4.66122 4.04102 5.97266C2.76608 7.65136 2 9.73589 2 12C2 17.511 6.489 22 12 22C17.511 22 22 17.511 22 12C22 9.77592 21.2597 7.72579 20.0254 6.0625C19.9641 4.76717 19.7658 2.41445 19.0605 1.00391L17.6738 3.77734C16.0598 2.65964 14.1061 2 12 2C9.91434 2 7.97607 2.64422 6.37109 3.74219L5 1ZM12 4C16.4301 4 20 7.56988 20 12C20 16.4301 16.4301 20 12 20C7.56988 20 4 16.4301 4 12C4 7.56988 7.56988 4 12 4ZM7 9V10C7 11.105 7.895 12 9 12C10.594 12 11 11 11 11L7 9ZM17 9L13 11C13 11 13.562 12 15 12C16.105 12 17 11.105 17 10V9ZM10.125 14.0137C9.81344 13.9895 9.49659 13.9901 9.18359 14.0254C8.88859 14.0784 7.375 14.344 7 16C7.889 15.522 8.66337 15.4264 9.23438 15.6094C9.82137 15.7444 11.0366 16.1682 11.9316 16.5332C12.8106 16.8992 13.5953 17.1402 14.6562 16.9062C15.7153 16.6702 16.423 15.803 17 15C15 15.625 13.3243 14.9128 12.5312 14.5938C11.9447 14.3778 11.0597 14.0861 10.125 14.0137Z" fill="#E4524C"/>
</svg>
