<svg width="24" height="24" viewBox="0 0 24 24" fill="none" xmlns="http://www.w3.org/2000/svg">
<path d="M14 2C13.2908 2 12.6793 2.26558 12.0801 2.5293C10.2328 1.6733 7.98432 1.94537 6.46484 3.46484C6.14411 3.78558 5.8954 4.14066 5.69922 4.51562L5.66992 4.5C5.06301 5.55071 4.90715 6.73262 5.10156 7.84766C3.27549 8.87282 2 10.7627 2 13C2 14.8198 2.88649 16.388 4.16602 17.4844C4.64088 20.0321 6.81749 22 9.5 22C10.4221 22 11.2346 21.644 12 21.2402C12.7654 21.644 13.5779 22 14.5 22C17.1825 22 19.3591 20.0321 19.834 17.4844C21.1135 16.388 22 14.8198 22 13C22 10.7621 20.7242 8.86966 18.8984 7.84375C18.9375 7.61889 18.9703 7.39492 18.9785 7.16602C18.9851 7.11037 19 7.05898 19 7C19 6.7935 18.9836 6.59075 18.959 6.39062C18.9576 6.37942 18.9545 6.36862 18.9531 6.35742C18.9242 6.13475 18.8661 5.92363 18.8086 5.71094C18.7526 5.50008 18.6985 5.28931 18.6133 5.08398C18.6082 5.07183 18.6048 5.05898 18.5996 5.04688C18.5209 4.86129 18.4333 4.67879 18.3301 4.5L18.3086 4.51367C17.4411 3.02059 15.8417 2 14 2ZM14 4C15.1605 4 16.1467 4.65185 16.6465 5.60547C16.7083 5.7226 16.7615 5.84207 16.8066 5.96289C16.8379 6.04833 16.8651 6.13562 16.8887 6.22461C16.9134 6.31527 16.9333 6.40658 16.9492 6.49805C16.97 6.62256 16.9831 6.74946 16.9883 6.87891C16.9909 6.94096 16.9954 7.00261 16.9941 7.06445C16.9903 7.20948 16.979 7.35372 16.9512 7.49805C16.9508 7.50005 16.9496 7.5019 16.9492 7.50391C16.9173 7.66771 16.8716 7.83196 16.8125 7.99805L16.6953 8.33008C16.4415 8.84227 16.0368 9.28785 15.5 9.59766L16.5 11.3301C17.2166 10.9165 17.7724 10.3379 18.1895 9.68164C19.2751 10.3924 20 11.5989 20 13C20 14.3271 19.3519 15.4824 18.3555 16.2148L18.0059 16.4727L17.9551 16.9043C17.7504 18.6522 16.3036 20 14.5 20C13.9603 20 13.4542 19.8788 13 19.6621V16.4414C13.5887 16.786 14.2636 16.9991 14.9902 17L14.9922 15C13.8792 14.9987 12.9987 14.1156 13 13.002V4.20508C13.3179 4.08564 13.6469 4 14 4ZM10.1074 4.00977C10.4098 4.02302 10.7107 4.0851 11 4.18945V10.002H10.9941C10.9955 11.1156 10.1149 11.9987 9.00195 12L9.00391 14C9.73301 13.9991 10.41 13.7843 11 13.4375V19.6621C10.5458 19.8788 10.0397 20 9.5 20C7.6964 20 6.24964 18.6522 6.04492 16.9043L5.99414 16.4727L5.64453 16.2148C4.64813 15.4824 4 14.3271 4 13C4 11.5988 4.72463 10.393 5.81055 9.68164C6.22763 10.3379 6.78339 10.9165 7.5 11.3301L8.5 9.59766C7.95877 9.28531 7.55024 8.83388 7.29688 8.31641L7.18555 8C7.0081 7.4983 6.9699 6.96252 7.0625 6.44727C7.07666 6.37353 7.09143 6.29974 7.11133 6.22656C7.13108 6.15058 7.14988 6.07452 7.17578 6C7.23308 5.84023 7.30232 5.68251 7.38867 5.5293C7.51878 5.29759 7.68047 5.07734 7.87891 4.87891C8.49692 4.26089 9.3061 3.97465 10.1074 4.00977Z" fill="white"/>
</svg>
