<svg width="16" height="16" viewBox="0 0 16 16" xmlns="http://www.w3.org/2000/svg">
<path d="M7.99967 1.33334C4.32567 1.33334 1.33301 4.32601 1.33301 8.00001C1.33301 11.674 4.32567 14.6667 7.99967 14.6667C11.6737 14.6667 14.6663 11.674 14.6663 8.00001C14.6663 4.32601 11.6737 1.33334 7.99967 1.33334ZM7.99967 2.66668C10.9531 2.66668 13.333 5.0466 13.333 8.00001C13.333 10.9534 10.9531 13.3333 7.99967 13.3333C5.04626 13.3333 2.66634 10.9534 2.66634 8.00001C2.66634 5.0466 5.04626 2.66668 7.99967 2.66668ZM7.33301 4.00001V8.27605L10.195 11.138L11.1377 10.1953L8.66634 7.72397V4.00001H7.33301Z"/>
</svg>
