<svg width="24" height="25" viewBox="0 0 24 25" fill="none" xmlns="http://www.w3.org/2000/svg">
<g clip-path="url(#clip0)">
<path d="M12 4.49072C9.709 4.49072 7.56081 5.62863 6.25781 7.49463C3.29381 7.60363 0.837687 9.70949 0.179688 12.5005C0.872688 12.5105 1.55094 12.5796 2.21094 12.7036C2.76794 10.8516 4.469 9.49072 6.5 9.49072L7.35938 9.5376L7.66797 9.00439C8.55997 7.45339 10.22 6.49072 12 6.49072C14.472 6.49072 16.5446 8.26357 16.9316 10.7056L17.082 11.6665L18.1816 11.522C18.2866 11.508 18.391 11.4907 18.5 11.4907C20.43 11.4907 22 13.0607 22 14.9907C22 16.9207 20.43 18.4907 18.5 18.4907H10.377C10.744 19.1237 11.0528 19.7917 11.3008 20.4907H18.5C21.532 20.4907 24 18.0237 24 14.9907C24 12.0267 21.6431 9.60263 18.7051 9.49463C17.8391 6.54663 15.149 4.49072 12 4.49072ZM0 14.4907V16.4907C4.43067 16.4907 8 20.0601 8 24.4907H10C10 18.9794 5.51133 14.4907 0 14.4907ZM0 18.4907V20.4907C2.22037 20.4907 4 22.2703 4 24.4907H6C6 21.1891 3.30163 18.4907 0 18.4907ZM0 22.4907V24.4907H2C2 23.3857 1.105 22.4907 0 22.4907Z" fill="#4ED1BA"/>
</g>
<defs>
<clipPath id="clip0">
<rect width="24" height="24" fill="white" transform="translate(0 0.490723)"/>
</clipPath>
</defs>
</svg>
