<svg width="24" height="24" viewBox="0 0 24 24" fill="none" xmlns="http://www.w3.org/2000/svg">
<path d="M6 2C4.35499 2 3 3.35499 3 5C3 6.29316 3.84267 7.39514 5 7.8125V15C5 17.7495 7.25048 20 10 20H11V22L14 19L11 16V18H10C8.33152 18 7 16.6685 7 15V7.8125C8.15733 7.39514 9 6.29316 9 5C9 3.35499 7.64501 2 6 2ZM13 2L10 5L13 8V6H14C15.6685 6 17 7.33152 17 9V16.1875C15.8427 16.6049 15 17.7068 15 19C15 20.645 16.355 22 18 22C19.645 22 21 20.645 21 19C21 17.7068 20.1573 16.6049 19 16.1875V9C19 6.25048 16.7495 4 14 4H13V2ZM6 4C6.56413 4 7 4.43587 7 5C7 5.56413 6.56413 6 6 6C5.43587 6 5 5.56413 5 5C5 4.43587 5.43587 4 6 4ZM18 18C18.5641 18 19 18.4359 19 19C19 19.5641 18.5641 20 18 20C17.4359 20 17 19.5641 17 19C17 18.4359 17.4359 18 18 18Z" fill="#E4524C"/>
</svg>
