<svg width="32" height="32" viewBox="0 0 32 32" xmlns="http://www.w3.org/2000/svg">
<path d="M16 1.33325C14.2613 1.33325 12.7955 2.44925 12.2448 3.99992H6.66667C5.19333 3.99992 4 5.19325 4 6.66658V25.3333C4 26.8066 5.19333 27.9999 6.66667 27.9999H25.3333C26.8067 27.9999 28 26.8066 28 25.3333V6.66658C28 5.19325 26.8067 3.99992 25.3333 3.99992H19.7552C19.2045 2.44925 17.7387 1.33325 16 1.33325ZM16 3.99992C16.736 3.99992 17.3333 4.59725 17.3333 5.33325C17.3333 6.06925 16.736 6.66658 16 6.66658H25.3333V25.3333H6.66667V6.66658H16C15.264 6.66658 14.6667 6.06925 14.6667 5.33325C14.6667 4.59725 15.264 3.99992 16 3.99992ZM16 10.6666C15.2928 10.6666 14.6145 10.9475 14.1144 11.4476C13.6143 11.9477 13.3333 12.626 13.3333 13.3333C13.3333 14.0405 13.6143 14.7188 14.1144 15.2189C14.6145 15.719 15.2928 15.9999 16 15.9999C16.7072 15.9999 17.3855 15.719 17.8856 15.2189C18.3857 14.7188 18.6667 14.0405 18.6667 13.3333C18.6667 12.626 18.3857 11.9477 17.8856 11.4476C17.3855 10.9475 16.7072 10.6666 16 10.6666ZM16 17.3333C13.0867 17.3333 10.6667 18.545 10.6667 20.289V21.3333H21.3333V20.289C21.3333 18.545 18.9133 17.3333 16 17.3333Z" />
</svg>
