<svg width="24" height="24" viewBox="0 0 24 24" fill="none" xmlns="http://www.w3.org/2000/svg">
<path d="M12 2C6.489 2 2 6.489 2 12C2 17.511 6.489 22 12 22C17.511 22 22 17.511 22 12C22 6.489 17.511 2 12 2ZM12 4C16.4301 4 20 7.56988 20 12C20 16.4301 16.4301 20 12 20C7.56988 20 4 16.4301 4 12C4 7.56988 7.56988 4 12 4ZM12 5C11.7348 5 11.4804 5.10536 11.2929 5.29289C11.1054 5.48043 11 5.73478 11 6C11 6.26522 11.1054 6.51957 11.2929 6.70711C11.4804 6.89464 11.7348 7 12 7C12.2652 7 12.5196 6.89464 12.7071 6.70711C12.8946 6.51957 13 6.26522 13 6C13 5.73478 12.8946 5.48043 12.7071 5.29289C12.5196 5.10536 12.2652 5 12 5ZM15.7617 6.82422L12.082 10.5039C12.0547 10.5019 12.0274 10.5006 12 10.5C11.6022 10.5 11.2206 10.658 10.9393 10.9393C10.658 11.2206 10.5 11.6022 10.5 12C10.5 12.3978 10.658 12.7794 10.9393 13.0607C11.2206 13.342 11.6022 13.5 12 13.5C12.3978 13.5 12.7794 13.342 13.0607 13.0607C13.342 12.7794 13.5 12.3978 13.5 12C13.4994 11.9726 13.4981 11.9453 13.4961 11.918L17.1758 8.23828L15.7617 6.82422ZM8.12305 7.00781C7.73633 6.95991 7.34177 7.1415 7.13477 7.5C6.85877 7.978 7.022 8.58923 7.5 8.86523C7.978 9.14123 8.58923 8.978 8.86523 8.5C9.14123 8.022 8.978 7.41077 8.5 7.13477C8.3805 7.06577 8.25195 7.02378 8.12305 7.00781ZM6 11C5.73478 11 5.48043 11.1054 5.29289 11.2929C5.10536 11.4804 5 11.7348 5 12C5 12.2652 5.10536 12.5196 5.29289 12.7071C5.48043 12.8946 5.73478 13 6 13C6.26522 13 6.51957 12.8946 6.70711 12.7071C6.89464 12.5196 7 12.2652 7 12C7 11.7348 6.89464 11.4804 6.70711 11.2929C6.51957 11.1054 6.26522 11 6 11ZM18 11C17.7348 11 17.4804 11.1054 17.2929 11.2929C17.1054 11.4804 17 11.7348 17 12C17 12.2652 17.1054 12.5196 17.2929 12.7071C17.4804 12.8946 17.7348 13 18 13C18.2652 13 18.5196 12.8946 18.7071 12.7071C18.8946 12.5196 19 12.2652 19 12C19 11.7348 18.8946 11.4804 18.7071 11.2929C18.5196 11.1054 18.2652 11 18 11ZM8.12305 15.0078C7.73633 14.9599 7.34177 15.1415 7.13477 15.5C6.85877 15.978 7.022 16.5892 7.5 16.8652C7.978 17.1412 8.58923 16.978 8.86523 16.5C9.14123 16.022 8.978 15.4108 8.5 15.1348C8.3805 15.0658 8.25195 15.0238 8.12305 15.0078ZM16.123 15.0078C15.7363 14.9599 15.3418 15.1415 15.1348 15.5C14.8588 15.978 15.022 16.5892 15.5 16.8652C15.978 17.1412 16.5892 16.978 16.8652 16.5C17.1412 16.022 16.978 15.4108 16.5 15.1348C16.3805 15.0658 16.252 15.0238 16.123 15.0078Z" fill="#5EDBC5"/>
</svg>
