<svg width="24" height="24" viewBox="0 0 24 24" fill="none" xmlns="http://www.w3.org/2000/svg">
<path d="M6 2C4.895 2 4 2.895 4 4V20C4 21.105 4.895 22 6 22H14.3438C13.6128 21.487 13.0155 20.8 12.6055 20H6V16H12.2129C12.4229 15.258 12.7798 14.578 13.2578 14H6V10H18V12.0254C18.716 12.0904 19.39 12.2935 20 12.6055V4C20 2.895 19.105 2 18 2H6ZM6 4H18V8H6V4ZM17.5 14C15.567 14 14 15.567 14 17.5C14 19.433 15.567 21 17.5 21C17.965 21 18.4065 20.9052 18.8125 20.7402L22.0723 24H24V22.0723L20.7402 18.8125C20.9042 18.4065 21 17.965 21 17.5C21 15.567 19.433 14 17.5 14ZM17 16C17.552 16 18 16.448 18 17C18 17.552 17.552 18 17 18C16.448 18 16 17.552 16 17C16 16.448 16.448 16 17 16Z" fill="#E4524C"/>
</svg>
