<svg width="24" height="25" viewBox="0 0 24 25" fill="none" xmlns="http://www.w3.org/2000/svg">
<path d="M12 2.49072C11.4909 2.49128 11.0012 2.68596 10.6307 3.03507C10.2601 3.38419 10.0367 3.86147 10.0059 4.36963L5.10156 6.82275C4.77482 6.60657 4.39178 6.49112 4 6.49072C3.46957 6.49072 2.96086 6.70144 2.58579 7.07651C2.21071 7.45158 2 7.96029 2 8.49072C2 9.02116 2.21071 9.52986 2.58579 9.90494C2.96086 10.28 3.46957 10.4907 4 10.4907C4.39112 10.4899 4.77342 10.3745 5.09961 10.1587L10.0059 12.6118C10.0262 12.9409 10.1276 13.2599 10.3011 13.5404C10.4745 13.8208 10.7146 14.054 11 14.2192V18.7603C10.9655 18.7801 10.9317 18.8009 10.8984 18.8228L5.99414 16.3696C5.96332 15.8615 5.73987 15.3842 5.36934 15.0351C4.99881 14.686 4.50909 14.4913 4 14.4907C3.46957 14.4907 2.96086 14.7014 2.58579 15.0765C2.21071 15.4516 2 15.9603 2 16.4907C2 17.0212 2.21071 17.5299 2.58579 17.9049C2.96086 18.28 3.46957 18.4907 4 18.4907C4.39112 18.4899 4.77342 18.3745 5.09961 18.1587L10.0059 20.6118C10.0367 21.12 10.2601 21.5973 10.6307 21.9464C11.0012 22.2955 11.4909 22.4902 12 22.4907C12.5094 22.4901 12.9994 22.2952 13.37 21.9457C13.7406 21.5961 13.9638 21.1184 13.9941 20.6099L18.8984 18.1587C19.2252 18.3749 19.6082 18.4903 20 18.4907C20.5304 18.4907 21.0391 18.28 21.4142 17.9049C21.7893 17.5299 22 17.0212 22 16.4907C22 15.9603 21.7893 15.4516 21.4142 15.0765C21.0391 14.7014 20.5304 14.4907 20 14.4907C19.4909 14.4913 19.0012 14.686 18.6307 15.0351C18.2601 15.3842 18.0367 15.8615 18.0059 16.3696L13.1016 18.8228C13.0683 18.8016 13.0344 18.7814 13 18.7622V14.2192C13.2854 14.054 13.5255 13.8208 13.6989 13.5404C13.8724 13.2599 13.9738 12.9409 13.9941 12.6118L18.8984 10.1587C19.2252 10.3749 19.6082 10.4903 20 10.4907C20.5304 10.4907 21.0391 10.28 21.4142 9.90494C21.7893 9.52986 22 9.02116 22 8.49072C22 7.96029 21.7893 7.45158 21.4142 7.07651C21.0391 6.70144 20.5304 6.49072 20 6.49072C19.4909 6.49128 19.0012 6.68596 18.6307 7.03507C18.2601 7.38419 18.0367 7.86147 18.0059 8.36963L13.0996 10.8228C12.7734 10.6069 12.3911 10.4915 12 10.4907C11.6082 10.4911 11.2252 10.6066 10.8984 10.8228L6.23633 8.49072L10.8984 6.15869C11.2252 6.37487 11.6082 6.49033 12 6.49072C12.5304 6.49072 13.0391 6.28001 13.4142 5.90494C13.7893 5.52986 14 5.02116 14 4.49072C14 3.96029 13.7893 3.45158 13.4142 3.07651C13.0391 2.70144 12.5304 2.49072 12 2.49072Z" fill="#4ED1BA"/>
</svg>
