<svg width="24" height="24" viewBox="0 0 24 24" fill="none" xmlns="http://www.w3.org/2000/svg">
<path d="M12 4C9.66551 4 7.70061 5.2495 6.42969 7.01367C2.88546 7.05389 0 9.9466 0 13.5C0 17.0783 2.92173 20 6.5 20H18.5C21.5256 20 24 17.5256 24 14.5C24 11.5096 21.577 9.0762 18.5996 9.01953C17.7299 6.14157 15.1521 4 12 4ZM12 6C14.5045 6 16.554 7.82549 16.9316 10.2148L17.084 11.1758L18.0488 11.0508C18.2722 11.0217 18.4149 11 18.5 11C20.4444 11 22 12.5556 22 14.5C22 16.4444 20.4444 18 18.5 18H6.5C4.00227 18 2 15.9977 2 13.5C2 11.0023 4.00227 9 6.5 9C6.53499 9 6.61646 9.00699 6.75 9.01367L7.36133 9.04492L7.66602 8.51367C8.53011 7.01235 10.1379 6 12 6ZM11 8V13H13V8H11ZM11 15V17H13V15H11Z" fill="#E4524C"/>
</svg>
