<svg width="24" height="24" viewBox="0 0 24 24" fill="none" xmlns="http://www.w3.org/2000/svg">
<path d="M16 1.76953L12.4688 7H9.57617L8.49219 8.11914L7.42969 7H4.42188C5.19531 5.23661 6.95439 4 9 4C9.945 4 10.8212 4.27833 11.5762 4.73633L12.7012 3.07031C11.6252 2.39631 10.36 2 9 2C5.141 2 2 5.141 2 9C2 12.859 5.141 16 9 16C10.7498 16 12.3475 15.349 13.5762 14.2832L14 14.707V16L20 22L22 20L16 14H14.707L14.2832 13.5762C15.349 12.3475 16 10.7498 16 9C16 8.01175 15.7745 7.08149 15.4004 6.23047L16 5.34375L18.4688 9H22V7H19.5312L16 1.76953ZM13.957 8.36914C13.9845 8.57527 14 8.78598 14 9C14 11.757 11.757 14 9 14C6.243 14 4 11.757 4 9H6.57031L8.47461 11.0098L10.4238 9H13.5312L13.957 8.36914Z" fill="#E4524C"/>
</svg>
