<svg width="24" height="24" viewBox="0 0 24 24" fill="none" xmlns="http://www.w3.org/2000/svg">
<g clip-path="url(#clip0)">
<path d="M20.3137 7.87706C21.1727 6.38911 20.6578 4.46859 19.1694 3.60925C17.6809 2.7499 15.7603 3.26422 14.9012 4.75218C14.1983 5.96959 14.3896 7.45074 15.3117 8.41599L9.45439 18.5611C8.84524 19.6162 7.5221 19.9705 6.46667 19.3612C5.41124 18.7518 5.05651 17.4288 5.66567 16.3737L6.88399 14.2635C7.00259 14.6206 7.32316 14.8778 7.71457 14.8873C8.22984 14.9323 8.67336 14.5391 8.69115 14.0083L8.89999 10.5217C8.92505 10.1033 8.65551 9.69521 8.22978 9.55763C7.80405 9.42005 7.37305 9.60407 7.15438 9.98283L4.03049 15.3936C2.90588 17.3414 3.56957 19.8168 5.51806 20.9417C7.46655 22.0667 9.94209 21.4038 11.0667 19.4559L16.9084 9.33783C18.248 9.64236 19.6264 9.06743 20.3137 7.87706ZM16.9826 7.39677C16.3873 7.05303 16.1813 6.28482 16.5249 5.68964C16.8686 5.09446 17.6368 4.88873 18.2322 5.23247C18.8276 5.57621 19.0335 6.34442 18.6899 6.9396C18.3463 7.53478 17.578 7.74051 16.9826 7.39677Z" fill="#E4524C"/>
</g>
<defs>
<clipPath id="clip0">
<rect width="24" height="24" fill="white"/>
</clipPath>
</defs>
</svg>
