<svg width="24" height="24" viewBox="0 0 24 24" fill="none" xmlns="http://www.w3.org/2000/svg">
<path d="M12.4375 1.14844L11.293 2.29297C11.293 2.29297 9.49501 4.0888 7.69531 6.53125C5.89561 8.9737 4 12.0333 4 15C4 19.4064 7.59356 23 12 23C16.2327 23 19.6324 19.6573 19.9004 15.4902C19.9241 15.4295 19.9804 15.2854 19.9805 15.2852C19.9806 15.2846 20.0036 15.1537 20.0059 15.125C20.0081 15.0963 20.0095 15.0787 20.0098 15.0645C20.0104 15.0361 20.0101 15.0201 20.0098 15.0059C20.009 14.9774 20.0073 14.9584 20.0059 14.9375C20.0045 14.9166 20.0029 14.8958 20 14.8691C19.9972 14.8424 20.0219 14.8801 19.9629 14.6777C19.9603 14.669 19.9552 14.6573 19.9492 14.6406C19.8039 11.343 17.8012 8.3661 16.8945 6.55273L16.209 5.18359L15.2305 6.36133C15.0719 6.55227 15.0118 6.76336 14.8906 6.9668C13.7155 4.62833 12.9492 2.68359 12.9492 2.68359L12.4375 1.14844ZM11.6758 4.92188C12.1717 6.15083 12.9122 7.82679 14.1367 9.91211L15.5156 12.2598L15.9844 9.57812C15.9868 9.56443 16.06 9.39952 16.0762 9.34961C17.0243 11.1501 18 13.1172 18 15C18 16.8205 17.1968 18.4427 15.9258 19.541C15.9537 19.3824 15.9878 19.2253 15.998 19.0625C16.0892 17.6166 15.2332 16.6087 14.543 15.752C13.8528 14.8952 13.2231 14.099 12.9824 12.8164L12.6328 10.9531L11.293 12.293C11.293 12.293 10.4749 13.11 9.66797 14.3203C8.86108 15.5307 8 17.1667 8 19C8 19.1778 8.02989 19.3477 8.05273 19.5195C6.79503 18.4215 6 16.8095 6 15C6 12.9667 7.60439 10.0263 9.30469 7.71875C10.4899 6.11025 11.066 5.571 11.6758 4.92188ZM18.3477 14.2988C18.3477 14.2988 18.6576 14.6498 18.8438 14.8613C18.6506 14.7457 18.2848 14.5273 18.2031 14.4785C18.2663 14.4 18.3477 14.2988 18.3477 14.2988ZM19.9688 14.7754C19.9713 14.7835 19.9756 14.7948 19.9766 14.7988C19.9831 14.8242 19.9842 14.8373 19.9863 14.8477C19.9945 14.8892 19.9936 14.8825 19.9922 14.8711L20 15C20 14.9923 20.0039 14.9821 19.998 15.0488C19.9965 15.0655 19.9946 15.0883 19.9863 15.1348C19.9822 15.158 19.9628 15.2347 19.9629 15.2344L19.9434 15.2793C19.947 15.1812 20 15.0989 20 15C20 14.9229 19.9709 14.8522 19.9688 14.7754ZM11.6914 14.9785C12.1006 15.7886 12.564 16.486 12.9844 17.0078C13.6829 17.8749 14.0398 18.3374 14.002 18.9375C13.927 20.129 13.1155 21 12 21C10.8833 21 10 20.1167 10 19C10 17.8333 10.6389 16.4693 11.332 15.4297C11.5134 15.1576 11.5236 15.1959 11.6914 14.9785ZM19.1543 15.1309C19.3412 15.2346 19.7532 15.4632 19.8301 15.5059L19.6602 15.709C19.6602 15.709 19.334 15.3368 19.1543 15.1309Z" fill="#E4524C"/>
</svg>
