<svg width="24" height="24" viewBox="0 0 24 24" fill="none" xmlns="http://www.w3.org/2000/svg">
<path d="M4.60156 2.0097C4.48967 1.99545 4.37487 1.99865 4.25781 2.01166C4.23937 2.01371 4.22165 2.01275 4.20312 2.01556C4.0684 2.02756 3.9375 2.06676 3.81836 2.1308C3.7442 2.17018 3.6753 2.21874 3.61328 2.27533C3.22091 2.57059 3 3.07191 3 3.50385V11.9628V20.5917C3 21.0236 3.2061 21.5753 3.70117 21.8437C4.19625 22.112 4.7566 21.9903 5.125 21.7675C5.12565 21.7669 5.1263 21.7662 5.12695 21.7656C5.06725 21.802 5.40347 21.6063 5.82812 21.3652C6.25278 21.1241 6.84326 20.7886 7.54297 20.3925C8.94238 19.6004 10.7814 18.5608 12.623 17.5195C14.4647 16.4781 16.3095 15.4366 17.7188 14.6386C18.4234 14.2396 19.0181 13.9023 19.4512 13.6562C19.8834 13.4106 20.0964 13.2899 20.2266 13.2109C20.6146 12.9756 21.0079 12.5214 21 11.9355C20.9921 11.3495 20.598 10.9222 20.2246 10.7109C20.0575 10.6165 16.4086 8.55491 12.7578 6.49017C10.9324 5.4578 9.10693 4.42462 7.71289 3.6347C7.01587 3.23975 6.42602 2.90429 6 2.66205C5.57398 2.41981 5.25252 2.23404 5.28516 2.25385C5.28451 2.25384 5.28385 2.25384 5.2832 2.25385C5.08613 2.13478 4.85205 2.04161 4.60156 2.0097ZM5 5.34955L10.7559 11.957L5 18.5663V11.9628V5.34955ZM8.5957 6.43353C9.63777 7.02316 10.6241 7.58039 11.7734 8.23041C12.503 8.64304 12.6171 8.70761 13.2656 9.07416L12.082 10.4335L8.5957 6.43353ZM15.041 10.0761C16.2048 10.7335 17.9637 11.7282 18.3789 11.9628C17.9535 12.2045 17.4026 12.5189 16.7324 12.8984C16.2668 13.162 15.5938 13.5433 15.0488 13.8515C15.0295 13.8224 15.0086 13.7944 14.9863 13.7675L13.4082 11.957L14.9863 10.1445C15.0055 10.1225 15.0238 10.0997 15.041 10.0761ZM12.082 13.4804L13.2773 14.8515C12.6989 15.1786 12.2313 15.4442 11.6387 15.7792C10.5248 16.409 9.58164 16.9434 8.56641 17.5175L12.082 13.4804Z" fill="#E4524C"/>
</svg>
