<svg width="24" height="24" viewBox="0 0 24 24" fill="none" xmlns="http://www.w3.org/2000/svg">
<path d="M8 2C6.9 2 6 2.9 6 4V8C6 9.1 6.9 10 8 10H10L12 13L14 10H16C17.1 10 18 9.1 18 8V4C18 2.9 17.1 2 16 2H8ZM8 4H16V8H14H12.9297L12.3359 8.89062L12 9.39453L11.6641 8.89062L11.0703 8H10H8V4ZM7 13C6.46957 13 5.96086 13.2107 5.58579 13.5858C5.21071 13.9609 5 14.4696 5 15C5 15.5304 5.21071 16.0391 5.58579 16.4142C5.96086 16.7893 6.46957 17 7 17C7.53043 17 8.03914 16.7893 8.41421 16.4142C8.78929 16.0391 9 15.5304 9 15C9 14.4696 8.78929 13.9609 8.41421 13.5858C8.03914 13.2107 7.53043 13 7 13ZM17 13C16.4696 13 15.9609 13.2107 15.5858 13.5858C15.2107 13.9609 15 14.4696 15 15C15 15.5304 15.2107 16.0391 15.5858 16.4142C15.9609 16.7893 16.4696 17 17 17C17.5304 17 18.0391 16.7893 18.4142 16.4142C18.7893 16.0391 19 15.5304 19 15C19 14.4696 18.7893 13.9609 18.4142 13.5858C18.0391 13.2107 17.5304 13 17 13ZM7 18C4.815 18 3 18.9088 3 20.2168V22H11V20.2168C11 18.9088 9.185 18 7 18ZM17 18C14.815 18 13 18.9088 13 20.2168V22H21V20.2168C21 18.9088 19.185 18 17 18Z" fill="#E4524C"/>
</svg>
