<svg width="24" height="24" viewBox="0 0 24 24" fill="none" xmlns="http://www.w3.org/2000/svg">
<path d="M11.9999 1.01562C11.6068 1.01562 11.2136 1.15881 10.9276 1.44531L1.44522 10.9277C0.853221 11.5197 0.853221 12.4813 1.44522 13.0723L10.9276 22.5566C11.2136 22.8426 11.5949 23 11.9999 23C12.4049 23 12.7852 22.8426 13.0722 22.5566L22.5565 13.0723C23.1485 12.4803 23.1485 11.5187 22.5565 10.9277L13.0722 1.44531C12.7857 1.15881 12.393 1.01562 11.9999 1.01562ZM11.9999 3.19922L20.8007 12L11.9999 20.8008L3.19913 12L11.9999 3.19922ZM10.9999 7V13H12.9999V7H10.9999ZM10.9999 15V17H12.9999V15H10.9999Z" fill="#5EDBC5"/>
</svg>
