<svg width="24" height="24" viewBox="0 0 24 24" fill="none" xmlns="http://www.w3.org/2000/svg">
<path d="M2 2V7V11H6.03125C6.02002 11.1706 6 11.3686 6 11.5C6 11.9888 6.08004 12.7743 6.22266 13.6133C6.29397 14.0328 6.37967 14.4488 6.49219 14.8281C6.60234 15.1995 6.67233 15.5219 7.05078 15.9121C7.44764 16.3372 7.77215 16.3941 8.14258 16.5059C8.51951 16.6196 8.93526 16.7059 9.35547 16.7773C9.98406 16.8842 10.5473 16.9414 11.0234 16.9707C11.1346 18.2879 11.7047 19.4937 12.6055 20.3945C13.613 21.4027 15.0011 22 16.5 22C17.9989 22 19.3865 21.4026 20.3945 20.3945C21.4026 19.3865 22 17.9995 22 16.5C22 14.9997 21.4023 13.612 20.3945 12.6055C19.4933 11.7042 18.2882 11.1346 16.9707 11.0234C16.941 10.559 16.8833 10.0098 16.7773 9.38672C16.706 8.96725 16.6203 8.55122 16.5078 8.17188C16.3977 7.80051 16.3277 7.47812 15.9492 7.08789C15.547 6.65702 15.2209 6.60555 14.8477 6.49414C14.4679 6.38079 14.0493 6.29397 13.627 6.22266C12.7822 6.08003 11.9888 6 11.5 6C11.3641 6 11.1698 6.02269 11 6.03516V2H7H2ZM4 4H7H9V6.32617C8.71912 6.38303 8.43235 6.43586 8.17773 6.50977C7.80512 6.61793 7.50303 6.66348 7.09961 7.0293L7.09766 7.03125C6.64521 7.44335 6.60749 7.77262 6.49414 8.15234C6.41541 8.41609 6.36151 8.71051 6.30469 9H4V7V4ZM11.5 8C11.6972 8 12.5539 8.07019 13.2949 8.19531C13.6654 8.25787 14.0229 8.33479 14.2754 8.41016C14.374 8.43959 14.4356 8.4789 14.4902 8.50977C14.5208 8.56927 14.5597 8.63841 14.5898 8.74023C14.666 8.99714 14.7421 9.35463 14.8047 9.72266C14.9039 10.306 14.956 10.8716 14.9785 11.2148C14.0759 11.4718 13.2598 11.9504 12.6055 12.6055C11.95 13.2605 11.4717 14.0779 11.2148 14.9805C10.8584 14.9585 10.2795 14.9047 9.69141 14.8047C9.32412 14.7422 8.96927 14.6648 8.7207 14.5898C8.62404 14.5607 8.56311 14.5223 8.50977 14.4922C8.47914 14.4327 8.44057 14.3623 8.41016 14.2598C8.33395 14.0029 8.25788 13.6454 8.19531 13.2773C8.07018 12.5413 8 11.6972 8 11.5C8 11.3028 8.07019 10.4461 8.19531 9.70508C8.25787 9.33456 8.33479 8.9771 8.41016 8.72461C8.43732 8.63361 8.47063 8.5807 8.5 8.52734C8.56343 8.49669 8.63282 8.45917 8.73438 8.42969C8.99801 8.35316 9.3583 8.27445 9.72852 8.20898C10.4689 8.07806 11.3237 8 11.5 8ZM16.5 13C17.4757 13 18.3362 13.3753 18.9805 14.0195V14.0215C19.6227 14.6629 20 15.5243 20 16.5C20 17.4745 19.6244 18.3365 18.9805 18.9805C18.3365 19.6244 17.4751 20 16.5 20C15.5255 20 14.6619 19.6236 14.0195 18.9805C13.3768 18.3377 13 17.4745 13 16.5C13 15.5255 13.3764 14.6619 14.0195 14.0195H14.0215C14.6629 13.3773 15.5243 13 16.5 13Z" fill="#5EDBC5"/>
</svg>
