<svg width="24" height="25" viewBox="0 0 24 25" fill="none" xmlns="http://www.w3.org/2000/svg">
<path d="M12 2.49072C10.343 2.49072 9 3.83372 9 5.49072V11.4907C9 13.1477 10.343 14.4907 12 14.4907C13.657 14.4907 15 13.1477 15 11.4907V5.49072C15 3.83372 13.657 2.49072 12 2.49072ZM12 4.49072C12.551 4.49072 13 4.93972 13 5.49072V11.4907C13 12.0417 12.551 12.4907 12 12.4907C11.449 12.4907 11 12.0417 11 11.4907V5.49072C11 4.93972 11.449 4.49072 12 4.49072ZM5 11.4907C5 15.016 7.60936 17.9239 11 18.4106V21.4907H13V18.4106C16.3906 17.9239 19 15.016 19 11.4907H17C17 14.2517 14.761 16.4907 12 16.4907C9.239 16.4907 7 14.2517 7 11.4907H5Z" fill="#4ED1BA"/>
</svg>
