<svg width="24" height="24" viewBox="0 0 24 24" fill="none" xmlns="http://www.w3.org/2000/svg">
<path d="M10.5 1C8.567 1 7 2.567 7 4.5C7 5.1636 7.19485 5.7779 7.51562 6.30664C4.53703 7.06936 2.96657 9.16016 2.33984 11.0605C2.23093 11.0208 2.11593 11.0003 2 11C1.73478 11 1.48043 11.1054 1.29289 11.2929C1.10536 11.4804 1 11.7348 1 12C1 12.2652 1.10536 12.5196 1.29289 12.7071C1.48043 12.8946 1.73478 13 2 13C2 14.164 2.39122 15.3504 3.07422 16.4434L3.86133 21.1641C3.94133 21.6461 4.35866 22 4.84766 22H7.15234C7.64134 22 8.05867 21.6471 8.13867 21.1641L8.25781 20.4492C9.27081 20.7942 10.36 21 11.5 21C12.195 21 12.8695 20.9429 13.5215 20.8379L13.9277 21.5137C14.1087 21.8157 14.4332 22 14.7852 22H17C17.631 22 18.1035 21.4237 17.9805 20.8047L17.6816 19.3086C18.6836 18.6746 19.5002 17.889 20.0742 17H21.2207C21.6797 17 22.0785 16.6882 22.1895 16.2422L22.7754 13.8984C22.9014 13.3914 22.6171 12.872 22.1211 12.707L20.6934 12.2305C20.4384 11.4525 20.0094 10.6402 19.3984 9.86523C19.7354 8.77223 20 7.453 20 6L14.4258 6.61914C14.114 6.52465 13.7889 6.43844 13.4531 6.36328C13.7948 5.82279 14 5.18674 14 4.5C14 2.567 12.433 1 10.5 1ZM10.5 3C11.327 3 12 3.673 12 4.5C12 5.327 11.327 6 10.5 6C9.673 6 9 5.327 9 4.5C9 3.673 9.673 3 10.5 3ZM10 8C11.384 8 12.6777 8.1792 13.8457 8.5332L14.2383 8.65234L14.6465 8.60742L17.7539 8.26172C17.6809 8.59872 17.5923 8.93834 17.4883 9.27734L17.1797 10.2793L17.8281 11.1035C18.2661 11.6595 18.6019 12.2645 18.7949 12.8535L19.1074 13.8105L20.0625 14.1289L20.6113 14.3105L20.4375 15H20.0723H18.9844L18.3926 15.9141C17.9806 16.5521 17.3653 17.1421 16.6113 17.6191L15.4492 18.3535L15.7188 19.7012L15.7793 20H15.3516L15.2363 19.8086L14.541 18.6484L13.2051 18.8613C12.6351 18.9533 12.062 19 11.5 19C10.639 19 9.7663 18.8506 8.9043 18.5566L6.67383 17.7969L6.30664 20H5.69336L5.04688 16.1152L4.98047 15.7227L4.76953 15.3848C4.26553 14.5778 4 13.753 4 13C4 12.95 4.163 8 10 8ZM16 12C15.448 12 15 12.448 15 13C15 13.552 15.448 14 16 14C16.552 14 17 13.552 17 13C17 12.448 16.552 12 16 12Z" fill="#E4524C"/>
</svg>
