<svg width="24" height="25" viewBox="0 0 24 25" fill="none" xmlns="http://www.w3.org/2000/svg">
<path d="M4 4.49072C2.90694 4.49072 2 5.39766 2 6.49072V16.4907C2 17.5838 2.90694 18.4907 4 18.4907H0V20.4907H13V18.4907V16.4907H4V6.49072H20H22C22 5.39766 21.0931 4.49072 20 4.49072H4ZM17 8.49072C15.897 8.49072 15 9.38772 15 10.4907V20.4907C15 21.5937 15.897 22.4907 17 22.4907H22C23.103 22.4907 24 21.5937 24 20.4907V10.4907C24 9.38772 23.103 8.49072 22 8.49072H17ZM17 10.4907H22V19.4907H17V10.4907Z" fill="#4ED1BA"/>
</svg>
