<svg width="24" height="24" viewBox="0 0 24 24" fill="none" xmlns="http://www.w3.org/2000/svg">
<path d="M11.5 0C8.467 0 6 2.467 6 5.5C6 7.56674 7.18314 9.43913 9 10.3711V13.627L7.3457 12.8555C6.3987 12.4135 5.2825 12.6249 4.5625 13.3789L3.00781 15.0078L9.12109 21.1211C9.68809 21.6881 10.4412 22 11.2422 22H17C18.654 22 20 20.654 20 19V14.002C20 12.563 18.9745 11.3237 17.5605 11.0547L14 10.3789V10.3711C15.8169 9.43913 17 7.56674 17 5.5C17 2.467 14.533 0 11.5 0ZM11.5 2C13.43 2 15 3.57 15 5.5C15 6.42497 14.6257 7.28964 14 7.92773V6.5C14 5.122 12.878 4 11.5 4C10.122 4 9 5.122 9 6.5V7.92773C8.37426 7.28964 8 6.42497 8 5.5C8 3.57 9.57 2 11.5 2ZM11.5 6C11.776 6 12 6.224 12 6.5V12.0332L17.1875 13.0195C17.6585 13.1085 18 13.523 18 14.002V19C18 19.551 17.551 20 17 20H11.2422C10.9752 20 10.7242 19.896 10.5352 19.707L5.80273 14.9746L6.00977 14.7598C6.13777 14.6268 6.334 14.591 6.5 14.668L11 16.7676V6.5C11 6.224 11.224 6 11.5 6Z" fill="#5EDBC5"/>
</svg>
