<svg width="32" height="32" viewBox="0 0 32 32" xmlns="http://www.w3.org/2000/svg">
<path d="M2.66699 4V24C2.66699 26.1933 4.4737 28 6.66699 28H25.3337C27.527 28 29.3337 26.1933 29.3337 24V9.33333H26.667V24C26.667 24.7534 26.087 25.3333 25.3337 25.3333C24.5803 25.3333 24.0003 24.7534 24.0003 24V4H2.66699ZM5.33366 6.66667H21.3337V24C21.3337 24.5178 21.7056 24.8773 21.8883 25.3333H6.66699C5.91362 25.3333 5.33366 24.7534 5.33366 24V6.66667ZM8.00033 9.33333V13.3333H18.667V9.33333H8.00033ZM8.00033 16V18.6667H18.667V16H8.00033ZM8.00033 21.3333V24H18.667V21.3333H8.00033Z" />
</svg>
