<svg width="24" height="24" viewBox="0 0 24 24" fill="none" xmlns="http://www.w3.org/2000/svg">
<path d="M7 1C5.895 1 5 1.895 5 3V21C5 22.105 5.895 23 7 23H17C18.105 23 19 22.105 19 21V19L17 17H7V7H17L19 5V3C19 1.895 18.105 1 17 1H7ZM7 3H17V5H7V3ZM20.6562 6.34375L19.2422 7.75781C21.5812 10.0978 21.5812 13.9022 19.2422 16.2422L20.6562 17.6562C23.7752 14.5373 23.7752 9.46275 20.6562 6.34375ZM17.8281 9.17188L16.4141 10.5859C16.7921 10.9639 17 11.466 17 12C17 12.534 16.7921 13.0361 16.4141 13.4141L17.8281 14.8281C18.5841 14.0731 19 13.068 19 12C19 10.932 18.5841 9.92688 17.8281 9.17188ZM7 19H17V21H7V19Z" fill="#5EDBC5"/>
</svg>
