<svg width="24" height="24" viewBox="0 0 24 24" fill="none" xmlns="http://www.w3.org/2000/svg">
<path d="M8.5 1C7.12 1 6 2.12 6 3.5V4H18V18H6V20.5C6 21.88 7.12 23 8.5 23H17.5C18.88 23 20 21.88 20 20.5V3.5C20 2.12 18.88 1 17.5 1H8.5ZM7 6C5.3 6 4 7.3 4 9V10C3.4 10 3 10.4 3 11V15C3 15.6 3.4 16 4 16H10C10.6 16 11 15.6 11 15V11C11 10.4 10.6 10 10 10V9C10 7.3 8.7 6 7 6ZM7 7.5C7.8 7.5 8.5 8.2 8.5 9V10H5.5V9C5.5 8.2 6.2 7.5 7 7.5ZM13 18.875C13.622 18.875 14.125 19.378 14.125 20C14.125 20.622 13.622 21.125 13 21.125C12.378 21.125 11.875 20.622 11.875 20C11.875 19.378 12.378 18.875 13 18.875Z" fill="#5EDBC5"/>
</svg>
