<svg width="16" height="16" viewBox="0 0 16 16" xmlns="http://www.w3.org/2000/svg">
<path d="M8.00033 1.33984C5.42966 1.33984 3.33887 3.43194 3.33887 6.0026C3.33887 8.99127 7.31667 13.8461 7.486 14.0508L8.00033 14.6745L8.51465 14.0508C8.68398 13.8454 12.6618 8.99127 12.6618 6.0026C12.6618 3.43127 10.571 1.33984 8.00033 1.33984ZM8.00033 2.67318C9.83566 2.67318 11.3285 4.16727 11.3285 6.0026C11.3284 7.80594 9.25233 10.9074 8.00033 12.5508C6.74833 10.9088 4.6722 7.8086 4.6722 6.0026C4.6722 4.16727 6.16499 2.67318 8.00033 2.67318ZM8.00033 4.33333C7.07966 4.33333 6.33366 5.07933 6.33366 6C6.33366 6.92067 7.07966 7.66667 8.00033 7.66667C8.92099 7.66667 9.66699 6.92067 9.66699 6C9.66699 5.07933 8.92099 4.33333 8.00033 4.33333Z"/>
</svg>
