<svg width="24" height="24" viewBox="0 0 24 24" fill="none" xmlns="http://www.w3.org/2000/svg">
<path d="M12.1719 3L2.58594 12.5859C2.20794 12.9639 2 13.466 2 14C2 14.534 2.20794 15.0361 2.58594 15.4141L8.58594 21.4141C8.96394 21.7921 9.466 22 10 22C10.534 22 11.0361 21.7921 11.4141 21.4141L21 11.8281V3H12.1719ZM13 5H19V11L10 20L4 14L13 5ZM16 7C15.7348 7 15.4804 7.10536 15.2929 7.29289C15.1054 7.48043 15 7.73478 15 8C15 8.26522 15.1054 8.51957 15.2929 8.70711C15.4804 8.89464 15.7348 9 16 9C16.2652 9 16.5196 8.89464 16.7071 8.70711C16.8946 8.51957 17 8.26522 17 8C17 7.73478 16.8946 7.48043 16.7071 7.29289C16.5196 7.10536 16.2652 7 16 7Z" fill="#E4524C"/>
</svg>
