<svg width="24" height="24" viewBox="0 0 24 24" fill="none" xmlns="http://www.w3.org/2000/svg">
<path d="M20.3652 2.01177C20.2255 1.99649 20.081 1.99727 19.9355 2.01763C17.7644 2.32278 12.7201 3.15602 7.71672 9.00005H5.07414L2.39836 11.7852C2.02636 12.1572 1.91511 12.7123 2.11711 13.1993C2.31811 13.6863 2.78933 14.0001 3.31633 14.0001H5.58586L5.68937 14.1036C5.41619 14.4481 5.2617 14.8124 5.10734 15.2129C4.9193 15.7008 4.76274 16.232 4.63273 16.7325C4.37273 17.7333 4.21867 18.625 4.21867 18.625L3.97062 20.0293L5.37492 19.7813C5.37492 19.7813 6.26664 19.6272 7.2675 19.3672C7.76793 19.2372 8.29914 19.0807 8.78703 18.8926C9.18753 18.7383 9.55192 18.5838 9.8964 18.3106L9.99992 18.4141V20.6836C9.99992 21.2106 10.3137 21.6829 10.8007 21.8829C10.9657 21.9519 11.1376 21.9825 11.3066 21.9825C11.6376 21.9825 11.9576 21.8598 12.1816 21.6348L14.9999 19.0665V16.2833C20.8439 11.2799 21.6772 6.23562 21.9823 4.06451C22.1249 3.04601 21.3429 2.11874 20.3652 2.01177ZM19.953 4.04693C19.5958 6.59012 18.7907 11.5819 11.1249 16.711L7.28898 12.8751C12.4181 5.20926 17.4099 4.40414 19.953 4.04693ZM14.9999 8.00005C14.7347 8.00005 14.4803 8.10541 14.2928 8.29295C14.1053 8.48048 13.9999 8.73484 13.9999 9.00005C13.9999 9.26527 14.1053 9.51962 14.2928 9.70716C14.4803 9.89469 14.7347 10.0001 14.9999 10.0001C15.2651 10.0001 15.5195 9.89469 15.707 9.70716C15.8946 9.51962 15.9999 9.26527 15.9999 9.00005C15.9999 8.73484 15.8946 8.48048 15.707 8.29295C15.5195 8.10541 15.2651 8.00005 14.9999 8.00005ZM11.9999 11.0001C11.7347 11.0001 11.4803 11.1054 11.2928 11.2929C11.1053 11.4805 10.9999 11.7348 10.9999 12.0001C10.9999 12.2653 11.1053 12.5196 11.2928 12.7072C11.4803 12.8947 11.7347 13.0001 11.9999 13.0001C12.2651 13.0001 12.5195 12.8947 12.707 12.7072C12.8946 12.5196 12.9999 12.2653 12.9999 12.0001C12.9999 11.7348 12.8946 11.4805 12.707 11.2929C12.5195 11.1054 12.2651 11.0001 11.9999 11.0001ZM7.14836 15.5626L8.43742 16.8516C8.3304 16.9083 8.21539 16.9699 8.06633 17.0274C7.69143 17.1719 7.21829 17.3116 6.76359 17.4297C6.63354 17.4635 6.63997 17.4545 6.51555 17.4844C6.54545 17.36 6.53645 17.3664 6.57023 17.2364C6.68835 16.7817 6.82809 16.3085 6.97258 15.9336C7.03003 15.7846 7.09171 15.6696 7.14836 15.5626Z" fill="white"/>
</svg>
