<svg width="79" height="77" viewBox="0 0 79 77" fill="none" xmlns="http://www.w3.org/2000/svg">
<path d="M26.1398 0.32804C17.4123 3.46484 10.0668 9.57249 5.39011 17.581C0.713401 25.5896 -0.996296 34.9883 0.560524 44.1308C2.11734 53.2732 6.8414 61.5764 13.9051 67.5858C20.9689 73.5951 29.9218 76.9274 39.1956 76.9988C48.4694 77.0703 57.4727 73.8764 64.6282 67.9766C71.7837 62.0769 76.6351 53.8475 78.3327 44.7301C80.0302 35.6127 78.4655 26.1887 73.9128 18.1091C69.3601 10.0294 62.1096 3.80929 53.4315 0.538358L52.322 3.48205C60.3089 6.49247 66.982 12.2172 71.1721 19.6534C75.3623 27.0896 76.8023 35.763 75.24 44.1543C73.6776 52.5455 69.2125 60.1195 62.6269 65.5494C56.0413 70.9793 47.7551 73.9188 39.2199 73.8531C30.6846 73.7873 22.4447 70.7204 15.9436 65.1897C9.44239 59.6589 5.09456 52.017 3.66173 43.6027C2.2289 35.1884 3.80243 26.5381 8.10668 19.1674C12.4109 11.7967 19.1714 6.17546 27.2038 3.28848L26.1398 0.32804Z" fill="white" fill-opacity="0.87"/>
</svg>
