<svg width="40" height="40" viewBox="0 0 40 40" fill="none" xmlns="http://www.w3.org/2000/svg">
<g clip-path="url(#clip0)">
<path d="M6.66634 6.66663C4.83301 6.66663 3.33301 8.16663 3.33301 9.99996V30C3.33301 31.8333 4.83301 33.3333 6.66634 33.3333H18.8245C18.5095 32.2766 18.333 31.1583 18.333 30H6.66634V13.3333H33.333V18.8248C34.538 19.1832 35.6597 19.7296 36.6663 20.4329V13.3333C36.6663 11.5 35.1663 9.99996 33.333 9.99996H19.9997L16.6663 6.66663H6.66634ZM29.9997 21.6666C25.333 21.6666 21.6663 25.3333 21.6663 30C21.6663 34.6666 25.333 38.3333 29.9997 38.3333C31.6663 38.3333 33.3343 37.832 34.6676 36.9987L37.6657 40L39.9997 37.666L36.9984 34.6679C37.8317 33.3346 38.333 31.6666 38.333 30C38.333 25.3333 34.6663 21.6666 29.9997 21.6666ZM29.9997 25C32.833 25 34.9997 27.1666 34.9997 30C34.9997 32.8333 32.833 35 29.9997 35C27.1663 35 24.9997 32.8333 24.9997 30C24.9997 27.1666 27.1663 25 29.9997 25Z" fill="#1AA995"/>
</g>
<defs>
<clipPath id="clip0">
<rect width="40" height="40" fill="white"/>
</clipPath>
</defs>
</svg>
