<svg width="24" height="24" viewBox="0 0 24 24" fill="none" xmlns="http://www.w3.org/2000/svg">
<path d="M4 3C2.90694 3 2 3.90694 2 5V19C2 20.0931 2.90694 21 4 21H12C13.0931 21 14 20.0931 14 19V5C14 3.90694 13.0931 3 12 3H4ZM4 5H12V19H4V5ZM16 5V19H18V17H21C21.2652 17 21.5195 16.8946 21.7071 16.7071C21.8946 16.5195 22 16.2652 22 16V8C22 7.73479 21.8946 7.48045 21.7071 7.29292C21.5195 7.10539 21.2652 7.00003 21 7H18V5H16ZM8 7C7.46957 7 6.96086 7.21071 6.58579 7.58579C6.21071 7.96086 6 8.46957 6 9C6 9.53043 6.21071 10.0391 6.58579 10.4142C6.96086 10.7893 7.46957 11 8 11C8.53043 11 9.03914 10.7893 9.41421 10.4142C9.78929 10.0391 10 9.53043 10 9C10 8.46957 9.78929 7.96086 9.41421 7.58579C9.03914 7.21071 8.53043 7 8 7ZM18 9H20V15H18V9Z" fill="#5EDBC5"/>
</svg>
