<svg width="24" height="24" viewBox="0 0 24 24" fill="none" xmlns="http://www.w3.org/2000/svg">
<path d="M3.70703 2.29297L2.29297 3.70703L5.62109 7.03516C5.16063 8.0251 4.80974 9.08909 4.53711 9.99219C1.74411 10.7602 0 11.5178 0 12.9238C0 14.5578 2.28 15.6006 5 16.2246L5.00195 16.7266C4.95395 18.3086 5.99953 19.9922 8.01953 19.9922C9.99053 19.9922 10.9913 18.0141 11.9863 17.9961C11.9913 17.9971 11.995 18 12 18C13 18 14.0005 20 15.9805 20C16.7825 20 17.4157 19.7286 17.8945 19.3086L20.293 21.707L21.707 20.293L3.70703 2.29297ZM9.21094 4C8.89994 4 8.61184 4.05081 8.33984 4.13281L10.3125 6.10547C10.3715 6.11547 10.4302 6.12572 10.4902 6.13672C10.9042 6.21172 11.372 6.29688 11.998 6.29688C12.633 6.29688 13.1294 6.20981 13.5664 6.13281C13.9744 6.06181 14.3252 6 14.7852 6C15.9272 6 16.6664 8.10108 17.3184 9.95508C17.3564 10.0641 17.3956 10.1733 17.4336 10.2812C16.9606 10.4543 16.0998 10.6548 15.0078 10.8008L16.7422 12.5352C17.5012 12.3742 18.2077 12.1592 18.7207 11.8652C19.9217 12.1932 21.322 12.621 21.877 12.998C21.447 13.386 20.2133 13.8813 18.4883 14.2812L20.1328 15.9258C22.3228 15.2858 24 14.3228 24 12.9238C24 11.5158 22.2511 10.7592 19.4531 9.99023C19.3701 9.76023 19.2881 9.52897 19.2051 9.29297C18.3331 6.81297 17.3442 4 14.7852 4C14.1512 4 13.6567 4.08706 13.2207 4.16406C12.8127 4.23506 12.459 4.29688 11.998 4.29688C11.552 4.29688 11.2267 4.23792 10.8477 4.16992C10.4097 4.08992 9.91194 4 9.21094 4ZM7.13867 8.55273L9.42578 10.8398C8.11302 10.6873 7.0606 10.4567 6.54492 10.2578C6.70764 9.73318 6.90966 9.13337 7.13867 8.55273ZM5.30859 11.8574C6.82165 12.7088 9.9434 12.9531 11.5723 12.9863L13.5312 14.9453C13.0275 14.9717 12.5243 15 12 15C7.021 15 2.80403 13.7283 2.08203 13.0273C2.61103 12.6403 4.07159 12.1944 5.30859 11.8574Z" fill="#5EDBC5"/>
</svg>
