<svg width="32" height="32" viewBox="0 0 32 32" xmlns="http://www.w3.org/2000/svg">
    <path d="M15.9997 6.66675C13.8063 6.66675 11.9997 8.4734 11.9997 10.6667C11.9997 12.8601 13.8063 14.6667 15.9997 14.6667C18.193 14.6667 19.9997 12.8601 19.9997 10.6667C19.9997 8.4734 18.193 6.66675 15.9997 6.66675ZM6.66634 9.33341C5.9591 9.33341 5.28082 9.61437 4.78072 10.1145C4.28063 10.6146 3.99967 11.2928 3.99967 12.0001C3.99967 12.7073 4.28063 13.3856 4.78072 13.8857C5.28082 14.3858 5.9591 14.6667 6.66634 14.6667C7.37358 14.6667 8.05186 14.3858 8.55196 13.8857C9.05206 13.3856 9.33301 12.7073 9.33301 12.0001C9.33301 11.2928 9.05206 10.6146 8.55196 10.1145C8.05186 9.61437 7.37358 9.33341 6.66634 9.33341ZM15.9997 9.33341C16.7518 9.33341 17.333 9.91458 17.333 10.6667C17.333 11.4189 16.7518 12.0001 15.9997 12.0001C15.2475 12.0001 14.6663 11.4189 14.6663 10.6667C14.6663 9.91458 15.2475 9.33341 15.9997 9.33341ZM25.333 9.33341C24.6258 9.33341 23.9475 9.61437 23.4474 10.1145C22.9473 10.6146 22.6663 11.2928 22.6663 12.0001C22.6663 12.7073 22.9473 13.3856 23.4474 13.8857C23.9475 14.3858 24.6258 14.6667 25.333 14.6667C26.0403 14.6667 26.7185 14.3858 27.2186 13.8857C27.7187 13.3856 27.9997 12.7073 27.9997 12.0001C27.9997 11.2928 27.7187 10.6146 27.2186 10.1145C26.7185 9.61437 26.0403 9.33341 25.333 9.33341ZM6.66634 17.3334C3.75301 17.3334 1.33301 18.5451 1.33301 20.2891V22.6667H7.99967V25.3334H23.9997V24.0001V22.6667H30.6663V20.2891C30.6663 18.5451 28.2463 17.3334 25.333 17.3334C23.7401 17.3334 22.3108 17.7043 21.3278 18.3178C21.2923 18.302 21.2621 18.2811 21.2262 18.2657C19.7794 17.6435 17.9683 17.3334 15.9997 17.3334C14.0311 17.3334 12.22 17.6435 10.7731 18.2657C10.7372 18.2811 10.707 18.302 10.6715 18.3178C9.68853 17.7043 8.25928 17.3334 6.66634 17.3334ZM15.9997 20.0001C17.6724 20.0001 19.1954 20.2964 20.1715 20.7162C20.6596 20.9261 21.0016 21.1675 21.1689 21.3438C21.3363 21.5202 21.333 21.572 21.333 21.6225V22.6667H10.6663V21.6225C10.6663 21.572 10.6631 21.5202 10.8304 21.3438C10.9977 21.1675 11.3397 20.9261 11.8278 20.7162C12.804 20.2964 14.3269 20.0001 15.9997 20.0001Z" />
</svg>
