<svg xmlns="http://www.w3.org/2000/svg">
    <symbol id="arrow-down" viewBox="0 0 24 24" xmlns="http://www.w3.org/2000/svg">
        <path d="M16.59 8.58997L12 13.17L7.41 8.58997L6 9.99997L12 16L18 9.99997L16.59 8.58997Z" />
    </symbol>
    <symbol id="arrow-right-top" viewBox="0 0 7 7"  xmlns="http://www.w3.org/2000/svg">
        <path d="M6.5 1C6.5 0.723858 6.27614 0.5 6 0.5L1.5 0.5C1.22386 0.5 1 0.723858 1 1C1 1.27614 1.22386 1.5 1.5 1.5L5.5 1.5L5.5 5.5C5.5 5.77614 5.72386 6 6 6C6.27614 6 6.5 5.77614 6.5 5.5L6.5 1ZM1.35355 6.35355L6.35355 1.35355L5.64645 0.646447L0.646447 5.64645L1.35355 6.35355Z" fill="white" fill-opacity="0.6"/>
    </symbol>
    <symbol id="arrow-right" viewBox="0 0 50 50"  xmlns="http://www.w3.org/2000/svg">
        <path d="M 18.335938 3.304688 L 14.640625 7.003906 L 32.679688 25 L 14.640625 43.039062 L 18.296875 46.695312 L 38.164062 26.828125 L 40.03125 25 L 38.164062 23.171875 Z M 18.335938 3.304688 "/>
    </symbol>
    <symbol id="attach" viewBox="0 0 24 24" xmlns="http://www.w3.org/2000/svg">
        <path d="M11 1C8.80267 1 7 2.80267 7 5V17.5C7 20.5256 9.47442 23 12.5 23C15.5256 23 18 20.5256 18 17.5V6H16V17.5C16 19.4444 14.4444 21 12.5 21C10.5556 21 9 19.4444 9 17.5V5C9 3.88333 9.88333 3 11 3C12.1167 3 13 3.88333 13 5V15.5C13 15.7869 12.7869 16 12.5 16C12.2131 16 12 15.7869 12 15.5V6H10V15.5C10 16.8691 11.1309 18 12.5 18C13.8691 18 15 16.8691 15 15.5V5C15 2.80267 13.1973 1 11 1Z" />
    </symbol>
    <symbol id="brain" viewBox="0 0 24 24" xmlns="http://www.w3.org/2000/svg">
        <path d="M14 2C13.2908 2 12.6793 2.26558 12.0801 2.5293C10.2328 1.6733 7.98432 1.94537 6.46484 3.46484C6.14411 3.78558 5.8954 4.14066 5.69922 4.51562L5.66992 4.5C5.06301 5.55071 4.90715 6.73262 5.10156 7.84766C3.27549 8.87282 2 10.7627 2 13C2 14.8198 2.88649 16.388 4.16602 17.4844C4.64088 20.0321 6.81749 22 9.5 22C10.4221 22 11.2346 21.644 12 21.2402C12.7654 21.644 13.5779 22 14.5 22C17.1825 22 19.3591 20.0321 19.834 17.4844C21.1135 16.388 22 14.8198 22 13C22 10.7621 20.7242 8.86966 18.8984 7.84375C18.9375 7.61889 18.9703 7.39492 18.9785 7.16602C18.9851 7.11037 19 7.05898 19 7C19 6.7935 18.9836 6.59075 18.959 6.39062C18.9576 6.37942 18.9545 6.36862 18.9531 6.35742C18.9242 6.13475 18.8661 5.92363 18.8086 5.71094C18.7526 5.50008 18.6985 5.28931 18.6133 5.08398C18.6082 5.07183 18.6048 5.05898 18.5996 5.04688C18.5209 4.86129 18.4333 4.67879 18.3301 4.5L18.3086 4.51367C17.4411 3.02059 15.8417 2 14 2ZM14 4C15.1605 4 16.1467 4.65185 16.6465 5.60547C16.7083 5.7226 16.7615 5.84207 16.8066 5.96289C16.8379 6.04833 16.8651 6.13562 16.8887 6.22461C16.9134 6.31527 16.9333 6.40658 16.9492 6.49805C16.97 6.62256 16.9831 6.74946 16.9883 6.87891C16.9909 6.94096 16.9954 7.00261 16.9941 7.06445C16.9903 7.20948 16.979 7.35372 16.9512 7.49805C16.9508 7.50005 16.9496 7.5019 16.9492 7.50391C16.9173 7.66771 16.8716 7.83196 16.8125 7.99805L16.6953 8.33008C16.4415 8.84227 16.0368 9.28785 15.5 9.59766L16.5 11.3301C17.2166 10.9165 17.7724 10.3379 18.1895 9.68164C19.2751 10.3924 20 11.5989 20 13C20 14.3271 19.3519 15.4824 18.3555 16.2148L18.0059 16.4727L17.9551 16.9043C17.7504 18.6522 16.3036 20 14.5 20C13.9603 20 13.4542 19.8788 13 19.6621V16.4414C13.5887 16.786 14.2636 16.9991 14.9902 17L14.9922 15C13.8792 14.9987 12.9987 14.1156 13 13.002V4.20508C13.3179 4.08564 13.6469 4 14 4ZM10.1074 4.00977C10.4098 4.02302 10.7107 4.0851 11 4.18945V10.002H10.9941C10.9955 11.1156 10.1149 11.9987 9.00195 12L9.00391 14C9.73301 13.9991 10.41 13.7843 11 13.4375V19.6621C10.5458 19.8788 10.0397 20 9.5 20C7.6964 20 6.24964 18.6522 6.04492 16.9043L5.99414 16.4727L5.64453 16.2148C4.64813 15.4824 4 14.3271 4 13C4 11.5988 4.72463 10.393 5.81055 9.68164C6.22763 10.3379 6.78339 10.9165 7.5 11.3301L8.5 9.59766C7.95877 9.28531 7.55024 8.83388 7.29688 8.31641L7.18555 8C7.0081 7.4983 6.9699 6.96252 7.0625 6.44727C7.07666 6.37353 7.09143 6.29974 7.11133 6.22656C7.13108 6.15058 7.14988 6.07452 7.17578 6C7.23308 5.84023 7.30232 5.68251 7.38867 5.5293C7.51878 5.29759 7.68047 5.07734 7.87891 4.87891C8.49692 4.26089 9.3061 3.97465 10.1074 4.00977Z"/>
    </symbol>
    <symbol id="business" viewBox="0 0 24 24" xmlns="http://www.w3.org/2000/svg">
        <path d="M12 1C11.4909 1.00056 11.0012 1.19523 10.6307 1.54435C10.2601 1.89347 10.0367 2.37075 10.0059 2.87891L5.10156 5.33203C4.77482 5.11585 4.39178 5.00039 4 5C3.46957 5 2.96086 5.21071 2.58579 5.58579C2.21071 5.96086 2 6.46957 2 7C2.00028 7.35081 2.09282 7.69537 2.26834 7.9991C2.44387 8.30284 2.69619 8.55507 3 8.73047V15.2715C2.69648 15.4467 2.44434 15.6986 2.26883 16.002C2.09333 16.3054 2.00062 16.6495 2 17C2 17.5304 2.21071 18.0391 2.58579 18.4142C2.96086 18.7893 3.46957 19 4 19C4.39178 18.9996 4.77482 18.8842 5.10156 18.668L10.0059 21.1191C10.0362 21.6276 10.2594 22.1054 10.63 22.4549C11.0006 22.8045 11.4906 22.9994 12 23C12.5091 22.9994 12.9988 22.8048 13.3693 22.4556C13.7399 22.1065 13.9633 21.6293 13.9941 21.1211L18.8984 18.668C19.2252 18.8842 19.6082 18.9996 20 19C20.5304 19 21.0391 18.7893 21.4142 18.4142C21.7893 18.0391 22 17.5304 22 17C21.9997 16.6492 21.9072 16.3046 21.7317 16.0009C21.5561 15.6972 21.3038 15.4449 21 15.2695V8.72852C21.3035 8.55328 21.5557 8.30136 21.7312 7.998C21.9067 7.69463 21.9994 7.35047 22 7C22 6.46957 21.7893 5.96086 21.4142 5.58579C21.0391 5.21071 20.5304 5 20 5C19.6082 5.00039 19.2252 5.11585 18.8984 5.33203L13.9941 2.88086C13.9638 2.37235 13.7406 1.89459 13.37 1.54506C12.9994 1.19554 12.5094 1.00059 12 1V1ZM10.8984 4.66797C11.2252 4.88415 11.6082 4.99961 12 5C12.3918 4.99961 12.7748 4.88415 13.1016 4.66797L18.0059 7.11914C18.0256 7.44894 18.1267 7.76872 18.3002 8.04989C18.4737 8.33107 18.7141 8.5649 19 8.73047V15.2715C18.7146 15.4367 18.4745 15.6699 18.3011 15.9504C18.1276 16.2308 18.0262 16.5498 18.0059 16.8789L13.1016 19.332C12.7748 19.1158 12.3918 19.0004 12 19C11.6082 19.0004 11.2252 19.1158 10.8984 19.332L5.99414 16.8809C5.97442 16.5511 5.8733 16.2313 5.69982 15.9501C5.52634 15.6689 5.28591 15.4351 5 15.2695V8.72852C5.28538 8.5633 5.52548 8.33009 5.69892 8.04965C5.87237 7.7692 5.97379 7.45022 5.99414 7.12109L10.8984 4.66797ZM12 8C11.4696 8 10.9609 8.21071 10.5858 8.58579C10.2107 8.96086 10 9.46957 10 10C10 10.5304 10.2107 11.0391 10.5858 11.4142C10.9609 11.7893 11.4696 12 12 12C12.5304 12 13.0391 11.7893 13.4142 11.4142C13.7893 11.0391 14 10.5304 14 10C14 9.46957 13.7893 8.96086 13.4142 8.58579C13.0391 8.21071 12.5304 8 12 8V8ZM12 13C10.665 13 9 13.7208 9 15.0508V16H15V15.0508C15 13.7208 13.335 13 12 13Z" />
    </symbol>
    <symbol id="check" viewBox="0 0 24 24" xmlns="http://www.w3.org/2000/svg" >
        <path d="M20.293 5.29297L9 16.5859L4.70703 12.293L3.29297 13.707L9 19.4141L21.707 6.70703L20.293 5.29297Z"/>
    </symbol>
    <symbol id="clock" viewBox="0 0 16 16" xmlns="http://www.w3.org/2000/svg">
        <path d="M7.99967 1.33334C4.32567 1.33334 1.33301 4.32601 1.33301 8.00001C1.33301 11.674 4.32567 14.6667 7.99967 14.6667C11.6737 14.6667 14.6663 11.674 14.6663 8.00001C14.6663 4.32601 11.6737 1.33334 7.99967 1.33334ZM7.99967 2.66668C10.9531 2.66668 13.333 5.0466 13.333 8.00001C13.333 10.9534 10.9531 13.3333 7.99967 13.3333C5.04626 13.3333 2.66634 10.9534 2.66634 8.00001C2.66634 5.0466 5.04626 2.66668 7.99967 2.66668ZM7.33301 4.00001V8.27605L10.195 11.138L11.1377 10.1953L8.66634 7.72397V4.00001H7.33301Z"/>
    </symbol>
    <symbol id="close" viewBox="0 0 24 24" xmlns="http://www.w3.org/2000/svg">
        <path d="M19 6.41L17.59 5L12 10.59L6.41 5L5 6.41L10.59 12L5 17.59L6.41 19L12 13.41L17.59 19L19 17.59L13.41 12L19 6.41Z"/>
    </symbol>
    <symbol id="database" viewBox="0 0 24 24" xmlns="http://www.w3.org/2000/svg">   
        <path d="M6 2C4.895 2 4 2.895 4 4V20C4 21.105 4.895 22 6 22H18C19.105 22 20 21.105 20 20V4C20 2.895 19.105 2 18 2H6ZM6 4H18V8H6V4ZM6 10H18V14H6V10ZM6 16H18V20H6V16Z" />
    </symbol>
    <symbol id="download" viewBox="0 0 24 24" xmlns="http://www.w3.org/2000/svg">
        <path d="M5 3C3.90694 3 3 3.90694 3 5V19C3 20.0931 3.90694 21 5 21H19C20.0931 21 21 20.0931 21 19V12H19V19H5V5H12V3H5ZM14 3V5H17.5859L8.29297 14.293L9.70703 15.707L19 6.41406V10H21V3H14Z"/>
    </symbol>
    <symbol id="download2" viewBox="0 0 24 24" xmlns="http://www.w3.org/2000/svg">
        <path d="M11 2V4H13V2H11ZM11 6V14.5859L7.70703 11.293L6.29297 12.707L12 18.4141L17.707 12.707L16.293 11.293L13 14.5859V6H11ZM2 17V20C2 21.0931 2.90694 22 4 22H20C21.0931 22 22 21.0931 22 20V17H20V20H4V17H2Z"/>
    </symbol>
    <symbol id="facebook" viewBox="0 0 24 24" xmlns="http://www.w3.org/2000/svg">
        <path d="M12 2C6.477 2 2 6.477 2 12C2 17.013 5.693 21.153 10.505 21.876V14.65H8.031V12.021H10.505V10.272C10.505 7.376 11.916 6.105 14.323 6.105C15.476 6.105 16.085 6.19 16.374 6.229V8.523H14.732C13.71 8.523 13.353 9.492 13.353 10.584V12.021H16.348L15.942 14.65H13.354V21.897C18.235 21.236 22 17.062 22 12C22 6.477 17.523 2 12 2Z"/>
    </symbol>
    <symbol id="lock" viewBox="0 0 24 24" xmlns="http://www.w3.org/2000/svg">
        <path d="M12 1C8.67619 1 6 3.67619 6 7V8C4.90694 8 4 8.90694 4 10V20C4 21.0931 4.90694 22 6 22H18C19.0931 22 20 21.0931 20 20V10C20 8.90694 19.0931 8 18 8V7C18 3.67619 15.3238 1 12 1ZM12 3C14.2762 3 16 4.72381 16 7V8H8V7C8 4.72381 9.72381 3 12 3ZM6 10H18V20H6V10ZM12 13C10.9 13 10 13.9 10 15C10 16.1 10.9 17 12 17C13.1 17 14 16.1 14 15C14 13.9 13.1 13 12 13Z"/>
    </symbol>
    <symbol id="instagram" viewBox="0 0 24 24" xmlns="http://www.w3.org/2000/svg">
        <path d="M8 3C5.243 3 3 5.243 3 8V16C3 18.757 5.243 21 8 21H16C18.757 21 21 18.757 21 16V8C21 5.243 18.757 3 16 3H8ZM8 5H16C17.654 5 19 6.346 19 8V16C19 17.654 17.654 19 16 19H8C6.346 19 5 17.654 5 16V8C5 6.346 6.346 5 8 5ZM17 6C16.7348 6 16.4804 6.10536 16.2929 6.29289C16.1054 6.48043 16 6.73478 16 7C16 7.26522 16.1054 7.51957 16.2929 7.70711C16.4804 7.89464 16.7348 8 17 8C17.2652 8 17.5196 7.89464 17.7071 7.70711C17.8946 7.51957 18 7.26522 18 7C18 6.73478 17.8946 6.48043 17.7071 6.29289C17.5196 6.10536 17.2652 6 17 6ZM12 7C9.243 7 7 9.243 7 12C7 14.757 9.243 17 12 17C14.757 17 17 14.757 17 12C17 9.243 14.757 7 12 7ZM12 9C13.654 9 15 10.346 15 12C15 13.654 13.654 15 12 15C10.346 15 9 13.654 9 12C9 10.346 10.346 9 12 9Z"/>
    </symbol>
    <symbol id="meeting-room" viewBox="0 0 40 40" xmlns="http://www.w3.org/2000/svg">
        <path d="M8.33325 5C7.4492 5 6.60135 5.35119 5.97623 5.97631C5.35111 6.60143 4.99992 7.44928 4.99992 8.33333C4.99992 9.21739 5.35111 10.0652 5.97623 10.6904C6.60135 11.3155 7.4492 11.6667 8.33325 11.6667C9.21731 11.6667 10.0652 11.3155 10.6903 10.6904C11.3154 10.0652 11.6666 9.21739 11.6666 8.33333C11.6666 7.44928 11.3154 6.60143 10.6903 5.97631C10.0652 5.35119 9.21731 5 8.33325 5ZM19.9999 5C19.1159 5 18.268 5.35119 17.6429 5.97631C17.0178 6.60143 16.6666 7.44928 16.6666 8.33333C16.6666 9.21739 17.0178 10.0652 17.6429 10.6904C18.268 11.3155 19.1159 11.6667 19.9999 11.6667C20.884 11.6667 21.7318 11.3155 22.3569 10.6904C22.9821 10.0652 23.3333 9.21739 23.3333 8.33333C23.3333 7.44928 22.9821 6.60143 22.3569 5.97631C21.7318 5.35119 20.884 5 19.9999 5ZM31.6666 5C30.7825 5 29.9347 5.35119 29.3096 5.97631C28.6844 6.60143 28.3333 7.44928 28.3333 8.33333C28.3333 9.21739 28.6844 10.0652 29.3096 10.6904C29.9347 11.3155 30.7825 11.6667 31.6666 11.6667C32.5506 11.6667 33.3985 11.3155 34.0236 10.6904C34.6487 10.0652 34.9999 9.21739 34.9999 8.33333C34.9999 7.44928 34.6487 6.60143 34.0236 5.97631C33.3985 5.35119 32.5506 5 31.6666 5ZM6.66659 13.3333C4.82492 13.3333 3.33325 14.825 3.33325 16.6667V26.6667C3.33325 28.5083 4.82492 30 6.66659 30H11.6666V35H14.9999V28.3333V26.6667H11.6666H6.66659V23.3333V16.6667H9.99992V23.3333H29.9999V20V16.6667H33.3333V23.3333V26.6667H28.3333H24.9999V30V35H28.3333V30H33.3333C35.1749 30 36.6666 28.5083 36.6666 26.6667V16.6667C36.6666 14.825 35.1749 13.3333 33.3333 13.3333H29.9999C28.1583 13.3333 26.6666 14.825 26.6666 16.6667V20H24.9999V16.6667C24.9999 14.825 23.5083 13.3333 21.6666 13.3333H18.3333C16.4916 13.3333 14.9999 14.825 14.9999 16.6667V20H13.3333V16.6667C13.3333 14.825 11.8416 13.3333 9.99992 13.3333H6.66659ZM18.3333 16.6667H21.6666V20H18.3333V16.6667Z" />
    </symbol>
    <symbol id="next" viewBox="0 0 492.004 492.004" xmlns="http://www.w3.org/2000/svg">
        <path d="M382.678,226.804L163.73,7.86C158.666,2.792,151.906,0,144.698,0s-13.968,2.792-19.032,7.86l-16.124,16.12
            c-10.492,10.504-10.492,27.576,0,38.064L293.398,245.9l-184.06,184.06c-5.064,5.068-7.86,11.824-7.86,19.028
            c0,7.212,2.796,13.968,7.86,19.04l16.124,16.116c5.068,5.068,11.824,7.86,19.032,7.86s13.968-2.792,19.032-7.86L382.678,265
            c5.076-5.084,7.864-11.872,7.848-19.088C390.542,238.668,387.754,231.884,382.678,226.804z"/>
    </symbol>
    <symbol id="news" viewBox="0 0 32 32" xmlns="http://www.w3.org/2000/svg">
        <path d="M2.66699 4V24C2.66699 26.1933 4.4737 28 6.66699 28H25.3337C27.527 28 29.3337 26.1933 29.3337 24V9.33333H26.667V24C26.667 24.7534 26.087 25.3333 25.3337 25.3333C24.5803 25.3333 24.0003 24.7534 24.0003 24V4H2.66699ZM5.33366 6.66667H21.3337V24C21.3337 24.5178 21.7056 24.8773 21.8883 25.3333H6.66699C5.91362 25.3333 5.33366 24.7534 5.33366 24V6.66667ZM8.00033 9.33333V13.3333H18.667V9.33333H8.00033ZM8.00033 16V18.6667H18.667V16H8.00033ZM8.00033 21.3333V24H18.667V21.3333H8.00033Z" />
    </symbol>
    <symbol id="padlock" viewBox="0 0 24 24" xmlns="http://www.w3.org/2000/svg">
        <path d="M12 1C9.12778 1 6.71891 3.04615 6.12305 5.78711L8.07812 6.21289C8.48226 4.35385 10.0722 3 12 3C14.2762 3 16 4.72381 16 7V8H6C4.90694 8 4 8.90694 4 10V20C4 21.0931 4.90694 22 6 22H18C19.0931 22 20 21.0931 20 20V10C20 8.90694 19.0931 8 18 8V7C18 3.67619 15.3238 1 12 1ZM6 10H18V20H6V10ZM12 13C10.9 13 10 13.9 10 15C10 16.1 10.9 17 12 17C13.1 17 14 16.1 14 15C14 13.9 13.1 13 12 13Z"/>
    </symbol>
    <symbol id="pin" viewBox="0 0 16 16" xmlns="http://www.w3.org/2000/svg">
        <path d="M8.00033 1.33984C5.42966 1.33984 3.33887 3.43194 3.33887 6.0026C3.33887 8.99127 7.31667 13.8461 7.486 14.0508L8.00033 14.6745L8.51465 14.0508C8.68398 13.8454 12.6618 8.99127 12.6618 6.0026C12.6618 3.43127 10.571 1.33984 8.00033 1.33984ZM8.00033 2.67318C9.83566 2.67318 11.3285 4.16727 11.3285 6.0026C11.3284 7.80594 9.25233 10.9074 8.00033 12.5508C6.74833 10.9088 4.6722 7.8086 4.6722 6.0026C4.6722 4.16727 6.16499 2.67318 8.00033 2.67318ZM8.00033 4.33333C7.07966 4.33333 6.33366 5.07933 6.33366 6C6.33366 6.92067 7.07966 7.66667 8.00033 7.66667C8.92099 7.66667 9.66699 6.92067 9.66699 6C9.66699 5.07933 8.92099 4.33333 8.00033 4.33333Z"/>
    </symbol>
    <symbol id="play-button" viewBox="0 0 72 72" xmlns="http://www.w3.org/2000/svg">
        <path d="M36 6C19.467 6 6 19.467 6 36C6 52.533 19.467 66 36 66C52.533 66 66 52.533 66 36C66 19.467 52.533 6 36 6ZM36 12C49.2904 12 60 22.7096 60 36C60 49.2904 49.2904 60 36 60C22.7096 60 12 49.2904 12 36C12 22.7096 22.7096 12 36 12ZM30 25.6055V46.3945L48 36L30 25.6055Z"/>
    </symbol>
    <symbol id="prev" viewBox="0 0 492 492" xmlns="http://www.w3.org/2000/svg">
        <path d="M198.608,246.104L382.664,62.04c5.068-5.056,7.856-11.816,7.856-19.024c0-7.212-2.788-13.968-7.856-19.032l-16.128-16.12
            C361.476,2.792,354.712,0,347.504,0s-13.964,2.792-19.028,7.864L109.328,227.008c-5.084,5.08-7.868,11.868-7.848,19.084
            c-0.02,7.248,2.76,14.028,7.848,19.112l218.944,218.932c5.064,5.072,11.82,7.864,19.032,7.864c7.208,0,13.964-2.792,19.032-7.864
            l16.124-16.12c10.492-10.492,10.492-27.572,0-38.06L198.608,246.104z"/>
    </symbol>
    <symbol id="rocket" viewBox="0 0 24 24" xmlns="http://www.w3.org/2000/svg">
        <path d="M20.3652 2.01177C20.2255 1.99649 20.081 1.99727 19.9355 2.01763C17.7644 2.32278 12.7201 3.15602 7.71672 9.00005H5.07414L2.39836 11.7852C2.02636 12.1572 1.91511 12.7123 2.11711 13.1993C2.31811 13.6863 2.78933 14.0001 3.31633 14.0001H5.58586L5.68937 14.1036C5.41619 14.4481 5.2617 14.8124 5.10734 15.2129C4.9193 15.7008 4.76274 16.232 4.63273 16.7325C4.37273 17.7333 4.21867 18.625 4.21867 18.625L3.97062 20.0293L5.37492 19.7813C5.37492 19.7813 6.26664 19.6272 7.2675 19.3672C7.76793 19.2372 8.29914 19.0807 8.78703 18.8926C9.18753 18.7383 9.55192 18.5838 9.8964 18.3106L9.99992 18.4141V20.6836C9.99992 21.2106 10.3137 21.6829 10.8007 21.8829C10.9657 21.9519 11.1376 21.9825 11.3066 21.9825C11.6376 21.9825 11.9576 21.8598 12.1816 21.6348L14.9999 19.0665V16.2833C20.8439 11.2799 21.6772 6.23562 21.9823 4.06451C22.1249 3.04601 21.3429 2.11874 20.3652 2.01177ZM19.953 4.04693C19.5958 6.59012 18.7907 11.5819 11.1249 16.711L7.28898 12.8751C12.4181 5.20926 17.4099 4.40414 19.953 4.04693ZM14.9999 8.00005C14.7347 8.00005 14.4803 8.10541 14.2928 8.29295C14.1053 8.48048 13.9999 8.73484 13.9999 9.00005C13.9999 9.26527 14.1053 9.51962 14.2928 9.70716C14.4803 9.89469 14.7347 10.0001 14.9999 10.0001C15.2651 10.0001 15.5195 9.89469 15.707 9.70716C15.8946 9.51962 15.9999 9.26527 15.9999 9.00005C15.9999 8.73484 15.8946 8.48048 15.707 8.29295C15.5195 8.10541 15.2651 8.00005 14.9999 8.00005ZM11.9999 11.0001C11.7347 11.0001 11.4803 11.1054 11.2928 11.2929C11.1053 11.4805 10.9999 11.7348 10.9999 12.0001C10.9999 12.2653 11.1053 12.5196 11.2928 12.7072C11.4803 12.8947 11.7347 13.0001 11.9999 13.0001C12.2651 13.0001 12.5195 12.8947 12.707 12.7072C12.8946 12.5196 12.9999 12.2653 12.9999 12.0001C12.9999 11.7348 12.8946 11.4805 12.707 11.2929C12.5195 11.1054 12.2651 11.0001 11.9999 11.0001ZM7.14836 15.5626L8.43742 16.8516C8.3304 16.9083 8.21539 16.9699 8.06633 17.0274C7.69143 17.1719 7.21829 17.3116 6.76359 17.4297C6.63354 17.4635 6.63997 17.4545 6.51555 17.4844C6.54545 17.36 6.53645 17.3664 6.57023 17.2364C6.68835 16.7817 6.82809 16.3085 6.97258 15.9336C7.03003 15.7846 7.09171 15.6696 7.14836 15.5626Z"/>
    </symbol>
    <symbol id="spinner" viewBox="0 0 24 24" xmlns="http://www.w3.org/2000/svg">
        <path d="M11.9709 1.00176C9.2583 1.03138 7.0002 3.26197 7.0002 5.99981C7.0002 6.6892 7.14535 7.3462 7.40059 7.93926C7.41384 7.97017 7.43272 8.02099 7.45333 8.08575V8.0877C7.98302 9.74139 6.97183 11.5518 5.28145 12.0389H5.2795C5.18967 12.065 5.11303 12.0826 5.0627 12.0916L5.06075 12.0936C4.04194 12.279 3.04012 12.8019 2.2502 13.6775C1.03985 15.0183 0.652409 16.941 1.26583 18.6443C2.37891 21.736 6.04245 22.8962 8.67989 21.2147H8.68184C9.39089 20.7624 9.94407 20.152 10.3264 19.4686C10.323 19.4747 10.3409 19.4456 10.3752 19.4022C11.1718 18.3988 12.8181 18.3993 13.6135 19.4041L13.6154 19.4061V19.408C13.6439 19.4436 13.6616 19.4712 13.6623 19.4725C14.0448 20.1526 14.5973 20.7609 15.3068 21.2127C17.9444 22.8943 21.609 21.7354 22.7209 18.6424C23.3332 16.9387 22.9459 15.0159 21.7346 13.6756C20.9444 12.801 19.9461 12.2793 18.9279 12.0936H18.926C18.8862 12.0862 18.8282 12.0732 18.76 12.0545L18.758 12.0525H18.7561C17.0599 11.5917 16.0654 9.75402 16.5686 8.0545V8.05254C16.5946 7.9652 16.6184 7.89347 16.635 7.85333L16.6369 7.85137C17.0291 6.89151 17.126 5.76562 16.8127 4.62872C16.3335 2.88775 14.9225 1.52807 13.1565 1.12872C12.7557 1.03817 12.3584 0.997532 11.9709 1.00176ZM11.9729 2.9959C12.213 2.99557 12.4618 3.02268 12.715 3.07989C13.735 3.31054 14.6061 4.14693 14.885 5.15997C15.0837 5.88107 15.0191 6.52338 14.7854 7.09551C14.7328 7.22365 14.6899 7.35199 14.6506 7.48419C13.8311 10.2461 15.4394 13.2233 18.2326 13.9822C18.3443 14.0128 18.4537 14.0399 18.5647 14.0604H18.5666C19.1738 14.1709 19.7508 14.4625 20.2522 15.0174C20.9568 15.797 21.1938 16.9804 20.84 17.9647C20.138 19.9176 17.9815 20.5475 16.3811 19.5272C15.9579 19.2577 15.636 18.9025 15.4045 18.49V18.4881L15.4025 18.4861C15.3357 18.3682 15.2628 18.2637 15.1799 18.16C13.5753 16.1358 10.4084 16.1362 8.80489 18.1619V18.1639C8.72718 18.2624 8.65168 18.3658 8.58028 18.494C8.35063 18.904 8.02821 19.2577 7.60567 19.5272C6.00511 20.5476 3.85156 19.919 3.14864 17.9666C2.79437 16.9828 3.03036 15.7966 3.73458 15.0174H3.73653C4.23619 14.4635 4.80961 14.1711 5.41622 14.0604C5.55528 14.0355 5.69265 14.0024 5.83614 13.9607C8.58776 13.1678 10.2379 10.2266 9.35763 7.47833C9.32244 7.36792 9.28491 7.25851 9.23849 7.1502C9.08573 6.79526 9.0002 6.41042 9.0002 5.99981C9.0002 4.57553 9.94989 3.38767 11.2795 3.07598C11.5011 3.02403 11.7327 2.99624 11.9729 2.9959ZM12.0002 4.99981C11.735 4.99981 11.4806 5.10517 11.2931 5.2927C11.1056 5.48024 11.0002 5.73459 11.0002 5.99981C11.0002 6.26503 11.1056 6.51938 11.2931 6.70692C11.4806 6.89445 11.735 6.99981 12.0002 6.99981C12.2654 6.99981 12.5198 6.89445 12.7073 6.70692C12.8948 6.51938 13.0002 6.26503 13.0002 5.99981C13.0002 5.73459 12.8948 5.48024 12.7073 5.2927C12.5198 5.10517 12.2654 4.99981 12.0002 4.99981ZM12.0002 11.9998C11.735 11.9998 11.4806 12.1052 11.2931 12.2927C11.1056 12.4802 11.0002 12.7346 11.0002 12.9998C11.0002 13.265 11.1056 13.5194 11.2931 13.7069C11.4806 13.8945 11.735 13.9998 12.0002 13.9998C12.2654 13.9998 12.5198 13.8945 12.7073 13.7069C12.8948 13.5194 13.0002 13.265 13.0002 12.9998C13.0002 12.7346 12.8948 12.4802 12.7073 12.2927C12.5198 12.1052 12.2654 11.9998 12.0002 11.9998ZM5.99239 15.9979C5.72718 15.9979 5.47282 16.1032 5.28528 16.2907C5.09775 16.4783 4.99239 16.7326 4.99239 16.9979C4.99239 17.2631 5.09775 17.5174 5.28528 17.705C5.47282 17.8925 5.72718 17.9979 5.99239 17.9979C6.25761 17.9979 6.51196 17.8925 6.6995 17.705C6.88703 17.5174 6.99239 17.2631 6.99239 16.9979C6.99239 16.7326 6.88703 16.4783 6.6995 16.2907C6.51196 16.1032 6.25761 15.9979 5.99239 15.9979ZM17.9943 15.9979C17.7291 15.9979 17.4748 16.1032 17.2872 16.2907C17.0997 16.4783 16.9943 16.7326 16.9943 16.9979C16.9943 17.2631 17.0997 17.5174 17.2872 17.705C17.4748 17.8925 17.7291 17.9979 17.9943 17.9979C18.2596 17.9979 18.5139 17.8925 18.7015 17.705C18.889 17.5174 18.9943 17.2631 18.9943 16.9979C18.9943 16.7326 18.889 16.4783 18.7015 16.2907C18.5139 16.1032 18.2596 15.9979 17.9943 15.9979Z" />
    </symbol>
    <symbol id="wi-fi" viewBox="0 0 24 24" xmlns="http://www.w3.org/2000/svg">
        <path d="M16.8027 1.69727L15.3887 3.11133C17.5444 5.26708 17.5444 8.73292 15.3887 10.8887L16.8027 12.3027C19.723 9.38249 19.723 4.61752 16.8027 1.69727ZM5 3V14C3.90694 14 3 14.9069 3 16V19C3 20.0931 3.90694 21 5 21H19C20.0931 21 21 20.0931 21 19V16C21 14.9069 20.0931 14 19 14H11V7H9V14H7V3H5ZM13.9746 4.52539L12.5605 5.93945C13.1543 6.53316 13.1548 7.46564 12.5605 8.06055L13.9746 9.47461C15.3323 8.11551 15.3329 5.88368 13.9746 4.52539ZM5 16H19V19H18V18H16V19H11V18H9V19H8V18H6V19H5V16Z" />
    </symbol>
    <symbol id="youtube" viewBox="0 0 24 24" xmlns="http://www.w3.org/2000/svg">
        <path d="M12 4C12 4 5.74555 3.99997 4.18555 4.41797C3.32455 4.64797 2.64797 5.32555 2.41797 6.18555C1.99997 7.74555 2 12 2 12C2 12 1.99997 16.2545 2.41797 17.8145C2.64797 18.6755 3.32555 19.352 4.18555 19.582C5.74555 20 12 20 12 20C12 20 18.2545 20 19.8145 19.582C20.6745 19.352 21.352 18.6745 21.582 17.8145C22 16.2545 22 12 22 12C22 12 22 7.74555 21.582 6.18555C21.352 5.32555 20.6745 4.64797 19.8145 4.41797C18.2545 3.99997 12 4 12 4ZM12 6C14.882 6 18.4909 6.13361 19.2969 6.34961C19.4659 6.39461 19.6044 6.53312 19.6504 6.70312C19.8914 7.60113 20 10.342 20 12C20 13.658 19.8914 16.3979 19.6504 17.2969C19.6054 17.4659 19.4669 17.6044 19.2969 17.6504C18.4919 17.8664 14.882 18 12 18C9.119 18 5.51012 17.8664 4.70312 17.6504C4.53413 17.6054 4.39561 17.4669 4.34961 17.2969C4.10861 16.3989 4 13.658 4 12C4 10.342 4.10861 7.60117 4.34961 6.70117C4.39461 6.53317 4.53312 6.39461 4.70312 6.34961C5.50813 6.13361 9.118 6 12 6ZM10 8.53516V15.4648L16 12L10 8.53516Z"/>
    </symbol>
</svg>
