<svg width="40" height="40" viewBox="0 0 40 40" fill="none" xmlns="http://www.w3.org/2000/svg">
<path d="M33.333 9.99996V14.2283C31.3413 15.3833 29.9997 17.5383 29.9997 20C29.9997 22.4616 31.3413 24.6183 33.333 25.7716V30H6.66634V25.7716C8.65801 24.6183 9.99967 22.4633 9.99967 20C9.99967 17.5366 8.65801 15.3816 6.66634 14.2283V9.99996H33.333ZM33.333 6.66663H6.66634C4.82467 6.66663 3.33301 8.15829 3.33301 9.99996V16.6666C5.17467 16.6666 6.66634 18.1583 6.66634 20C6.66634 21.8416 5.17467 23.3333 3.33301 23.3333V30C3.33301 31.8416 4.82467 33.3333 6.66634 33.3333H33.333C35.1747 33.3333 36.6663 31.8416 36.6663 30V23.3333C34.8247 23.3333 33.333 21.8416 33.333 20C33.333 18.1583 34.8247 16.6666 36.6663 16.6666V9.99996C36.6663 8.15829 35.1747 6.66663 33.333 6.66663Z" fill="#1AA995"/>
</svg>
