<svg width="24" height="24" viewBox="0 0 24 24" fill="none" xmlns="http://www.w3.org/2000/svg">
<path d="M4 4C2.897 4 2 4.897 2 6V18C2 19.103 2.897 20 4 20H14V19C14 18.643 14.0718 18.312 14.1758 18H4V8.00391L12 13L20 8.00586L20.002 12C20.719 12 21.39 12.1511 22 12.4121V6C22 4.897 21.103 4 20 4H4ZM4 6H20V6.00586L12 11L4 6.00391V6ZM20 14C18.3 14 17 15.3 17 17V18C16.4 18 16 18.4 16 19V23C16 23.6 16.4 24 17 24H23C23.6 24 24 23.6 24 23V19C24 18.4 23.6 18 23 18H21.5H20H18.5V17C18.5 16.2 19.2 15.5 20 15.5C20.422 15.5 20.8128 15.698 21.0918 16H22.8262C22.4272 14.819 21.344 14 20 14Z" fill="#E4524C"/>
</svg>
