<svg width="24" height="25" viewBox="0 0 24 25" fill="none" xmlns="http://www.w3.org/2000/svg">
<g clip-path="url(#clip0)">
<path d="M5 2.49072V3.49072V10.6743C3.83875 11.0886 3 12.1891 3 13.4907V17.4907C3 19.1447 4.346 20.4907 6 20.4907H10V22.4907H12V20.4907V19.4907C12 19.1507 12.0331 18.8177 12.0801 18.4907H6C5.448 18.4907 5 18.0427 5 17.4907V13.4907C5 12.9387 5.448 12.4907 6 12.4907H16C16.31 12.4907 16.5768 12.6398 16.7598 12.8618C17.4088 12.6428 18.1004 12.5185 18.8184 12.5005C18.5181 11.6488 17.8474 10.9728 17 10.6685V2.49072H5ZM7 4.49072H15V10.4907H7V4.49072ZM8 5.49072V7.49072H10V5.49072H8ZM12 5.49072V7.49072H14V5.49072H12ZM11 14.4907C10.7348 14.4907 10.4804 14.5961 10.2929 14.7836C10.1054 14.9712 10 15.2255 10 15.4907C10 15.7559 10.1054 16.0103 10.2929 16.1978C10.4804 16.3854 10.7348 16.4907 11 16.4907C11.2652 16.4907 11.5196 16.3854 11.7071 16.1978C11.8946 16.0103 12 15.7559 12 15.4907C12 15.2255 11.8946 14.9712 11.7071 14.7836C11.5196 14.5961 11.2652 14.4907 11 14.4907ZM19 14.4907C16.239 14.4907 14 16.7297 14 19.4907C14 22.2517 16.239 24.4907 19 24.4907C21.761 24.4907 24 22.2517 24 19.4907C24 16.7297 21.761 14.4907 19 14.4907ZM21.0508 17.1411L22.4492 18.5415L18.5 22.4907L15.5508 19.5415L16.9492 18.1411L18.5 19.6899L21.0508 17.1411Z" fill="#4ED1BA"/>
</g>
<defs>
<clipPath id="clip0">
<rect width="24" height="24" fill="white" transform="translate(0 0.490723)"/>
</clipPath>
</defs>
</svg>
