<svg width="24" height="24" viewBox="0 0 24 24" fill="none" xmlns="http://www.w3.org/2000/svg">
<path d="M12 1L3 5V11C3 18.83 9.439 22.486 12 23C14.561 22.486 21 18.83 21 11V5L12 1ZM12 3.18945L19 6.30078V11C19 12.8357 18.5662 14.3958 17.9062 15.707C16.3457 14.531 13.5242 14 12 14C10.4758 14 7.6533 14.5309 6.09375 15.707C5.43382 14.3958 5 12.8357 5 11V6.30078L12 3.18945ZM12 5.75C10.208 5.75 8.75 7.208 8.75 9C8.75 10.792 10.208 12.25 12 12.25C13.792 12.25 15.25 10.792 15.25 9C15.25 7.208 13.792 5.75 12 5.75ZM12 7.75C12.689 7.75 13.25 8.311 13.25 9C13.25 9.689 12.689 10.25 12 10.25C11.311 10.25 10.75 9.689 10.75 9C10.75 8.311 11.311 7.75 12 7.75ZM12 16C14.4467 16 15.9777 16.72 16.9082 17.3145C15.3402 19.3761 13.2567 20.55 12 20.9375C10.7433 20.55 8.65978 19.3761 7.0918 17.3145C8.0223 16.72 9.55327 16 12 16Z" fill="#5EDBC5"/>
</svg>
