<svg width="40" height="40" viewBox="0 0 40 40" fill="none" xmlns="http://www.w3.org/2000/svg">
<path d="M8.33325 5C7.4492 5 6.60135 5.35119 5.97623 5.97631C5.35111 6.60143 4.99992 7.44928 4.99992 8.33333C4.99992 9.21739 5.35111 10.0652 5.97623 10.6904C6.60135 11.3155 7.4492 11.6667 8.33325 11.6667C9.21731 11.6667 10.0652 11.3155 10.6903 10.6904C11.3154 10.0652 11.6666 9.21739 11.6666 8.33333C11.6666 7.44928 11.3154 6.60143 10.6903 5.97631C10.0652 5.35119 9.21731 5 8.33325 5ZM19.9999 5C19.1159 5 18.268 5.35119 17.6429 5.97631C17.0178 6.60143 16.6666 7.44928 16.6666 8.33333C16.6666 9.21739 17.0178 10.0652 17.6429 10.6904C18.268 11.3155 19.1159 11.6667 19.9999 11.6667C20.884 11.6667 21.7318 11.3155 22.3569 10.6904C22.9821 10.0652 23.3333 9.21739 23.3333 8.33333C23.3333 7.44928 22.9821 6.60143 22.3569 5.97631C21.7318 5.35119 20.884 5 19.9999 5ZM31.6666 5C30.7825 5 29.9347 5.35119 29.3096 5.97631C28.6844 6.60143 28.3333 7.44928 28.3333 8.33333C28.3333 9.21739 28.6844 10.0652 29.3096 10.6904C29.9347 11.3155 30.7825 11.6667 31.6666 11.6667C32.5506 11.6667 33.3985 11.3155 34.0236 10.6904C34.6487 10.0652 34.9999 9.21739 34.9999 8.33333C34.9999 7.44928 34.6487 6.60143 34.0236 5.97631C33.3985 5.35119 32.5506 5 31.6666 5ZM6.66659 13.3333C4.82492 13.3333 3.33325 14.825 3.33325 16.6667V26.6667C3.33325 28.5083 4.82492 30 6.66659 30H11.6666V35H14.9999V28.3333V26.6667H11.6666H6.66659V23.3333V16.6667H9.99992V23.3333H29.9999V20V16.6667H33.3333V23.3333V26.6667H28.3333H24.9999V30V35H28.3333V30H33.3333C35.1749 30 36.6666 28.5083 36.6666 26.6667V16.6667C36.6666 14.825 35.1749 13.3333 33.3333 13.3333H29.9999C28.1583 13.3333 26.6666 14.825 26.6666 16.6667V20H24.9999V16.6667C24.9999 14.825 23.5083 13.3333 21.6666 13.3333H18.3333C16.4916 13.3333 14.9999 14.825 14.9999 16.6667V20H13.3333V16.6667C13.3333 14.825 11.8416 13.3333 9.99992 13.3333H6.66659ZM18.3333 16.6667H21.6666V20H18.3333V16.6667Z" fill="white" fill-opacity="0.87"/>
</svg>
