<svg width="368" height="276" viewBox="0 0 368 276" fill="none" xmlns="http://www.w3.org/2000/svg">
<path d="M313.169 222.893C311.605 220.938 310.432 218.73 309.443 216.453C308.96 215.326 308.5 214.153 308.063 213.003C307.856 212.451 307.626 211.922 307.465 211.37C307.281 210.795 307.212 210.496 307.488 209.944C307.488 209.553 307.649 209.392 307.948 209.438C308.201 209.369 308.362 209.484 308.454 209.783C308.684 209.76 308.914 209.714 309.121 209.691C307.741 205.528 306.844 201.227 306.453 196.88C306.269 194.764 306.2 192.625 306.246 190.486C306.269 189.497 306.315 188.508 306.407 187.496C306.43 187.105 306.384 186.001 306.614 185.679C306.867 185.61 307.097 185.541 307.35 185.495C307.764 185.15 308.086 185.15 308.293 185.518C308.546 185.725 308.707 186.093 308.868 186.369C313.077 193.361 315.883 201.25 317.24 209.277C318.022 213.9 318.321 218.569 318.114 223.261C318.091 223.698 318.781 223.698 318.804 223.261C319.172 213.946 317.631 204.585 314.25 195.891C313.399 193.729 312.456 191.613 311.398 189.543C310.915 188.577 310.386 187.634 309.857 186.714C309.42 185.955 308.983 185.035 308.247 184.529C306.821 183.563 305.993 184.943 305.832 186.208C305.533 188.6 305.487 191.038 305.556 193.453C305.717 199.042 306.683 204.562 308.431 209.852C308.546 210.22 309.121 210.174 309.098 209.76C309.098 208.84 308.063 208.449 307.281 208.84C305.901 209.507 306.683 211.416 307.051 212.428C308.477 216.292 310.018 220.11 312.617 223.353C312.962 223.744 313.445 223.238 313.169 222.893Z" fill="#E8E8E8"/>
<path d="M317.217 205.689C317.401 202.63 317.792 199.594 318.459 196.581C318.781 195.178 319.126 193.775 319.563 192.395C319.77 191.705 320 191.015 320.23 190.348C320.345 190.003 320.46 189.658 320.598 189.336C320.644 189.198 320.69 189.06 320.759 188.922C320.851 188.439 321.173 188.163 321.702 188.071C321.656 188.462 322.277 188.531 322.369 188.163C322.829 186.645 326.555 176.87 328.832 178.549C329.499 179.032 329.683 180.159 329.798 180.918C329.982 181.976 330.143 183.057 330.258 184.115C330.465 185.932 330.603 187.749 330.649 189.589C330.856 197.064 329.729 204.585 327.337 211.692C325.957 215.763 324.163 219.65 322.001 223.353C321.771 223.744 322.369 224.089 322.599 223.698C326.946 216.292 329.729 208.058 330.833 199.571C331.385 195.293 331.523 190.969 331.201 186.668C331.04 184.621 330.81 182.574 330.442 180.55C330.235 179.446 329.729 177.813 328.418 177.606C326.693 177.33 325.359 180.182 324.669 181.332C323.404 183.425 322.438 185.656 321.725 187.979C321.955 188.002 322.185 188.048 322.392 188.071C322.53 186.967 321.15 186.898 320.598 187.611C320.184 188.14 320 188.922 319.793 189.543C319.402 190.624 319.057 191.728 318.735 192.832C317.516 197.018 316.803 201.319 316.55 205.666C316.504 206.126 317.194 206.126 317.217 205.689Z" fill="#E8E8E8"/>
<path d="M306.407 185.426C311.421 197.133 314.572 209.576 315.722 222.249C315.768 222.686 316.458 222.686 316.412 222.249C315.239 209.438 312.065 196.903 307.005 185.058C306.821 184.667 306.223 185.035 306.407 185.426Z" fill="#E8E8E8"/>
<path d="M306.269 200.583C308.661 201.779 310.869 203.274 312.87 205.022C313.192 205.321 313.698 204.838 313.353 204.539C311.283 202.745 309.052 201.227 306.591 199.985C306.223 199.801 305.855 200.399 306.269 200.583Z" fill="#E8E8E8"/>
<path d="M312.663 193.844C312.019 195.109 311.536 196.443 311.237 197.846C311.145 198.283 311.812 198.467 311.904 198.03C312.203 196.696 312.64 195.408 313.261 194.189C313.468 193.798 312.87 193.453 312.663 193.844Z" fill="#E8E8E8"/>
<path d="M327.704 179.078C326.209 192.441 324.576 206.241 318.067 218.247C317.86 218.638 318.458 218.983 318.665 218.592C325.243 206.471 326.876 192.579 328.394 179.078C328.44 178.641 327.75 178.641 327.704 179.078Z" fill="#E8E8E8"/>
<path d="M319.103 192.165C320.943 196.489 322.3 200.974 323.197 205.574C323.289 206.011 323.956 205.827 323.864 205.39C322.944 200.721 321.541 196.19 319.701 191.82C319.517 191.406 318.942 191.751 319.103 192.165Z" fill="#E8E8E8"/>
<path d="M326.026 195.638C327.751 193.453 329.476 191.268 331.201 189.106C331.477 188.761 330.994 188.278 330.718 188.623C328.993 190.808 327.268 192.993 325.543 195.155C325.267 195.477 325.75 195.983 326.026 195.638Z" fill="#E8E8E8"/>
<path d="M40.2049 219.834C38.7099 218.224 37.1919 216.568 35.9729 214.728C35.3979 213.831 34.8689 212.911 34.4549 211.922C34.2249 211.37 33.1439 208.426 34.6389 209.024C35.0069 209.162 35.1679 208.679 34.9839 208.449C33.4659 206.517 32.4539 204.263 31.5799 201.986C30.7519 199.824 29.9469 197.639 29.1879 195.454C28.3599 193.062 27.6469 190.601 27.3709 188.094C27.1639 186.116 26.9569 183.402 28.3829 181.769C30.4759 179.4 32.5919 183.31 33.5809 184.782C34.9149 186.76 36.2259 188.784 37.4909 190.808C39.9979 194.925 42.2749 199.203 43.9539 203.757C45.8629 208.955 46.9209 214.452 46.6679 219.995C46.6449 220.432 47.3349 220.432 47.3579 219.995C47.8639 208.771 43.0569 198.306 37.1919 189.014C35.7429 186.737 34.2939 184.437 32.7069 182.252C31.8099 181.033 30.3839 179.768 28.7739 180.573C27.3019 181.286 26.7499 183.195 26.6119 184.69C26.3589 187.404 26.8879 190.164 27.6239 192.763C28.4519 195.707 29.5789 198.559 30.6369 201.411C31.6259 204.079 32.7299 206.678 34.5009 208.932C34.6159 208.748 34.7309 208.541 34.8459 208.357C34.2479 208.127 33.7189 208.196 33.2129 208.564C33.1209 208.633 33.0289 208.748 33.0519 208.863C33.5579 213.509 36.7089 217.074 39.7449 220.34C40.0209 220.662 40.5039 220.179 40.2049 219.834Z" fill="#E8E8E8"/>
<path d="M42.0905 197.961C41.3775 191.521 42.2285 185.058 44.5745 179.009C44.3905 179.055 44.1835 179.101 43.9995 179.17C44.7125 179.814 45.1955 180.55 45.4715 181.47C45.5635 181.792 46.0465 181.815 46.1385 181.47C47.7025 176.042 49.9795 170.867 52.9695 166.06C52.7625 166.037 52.5555 166.014 52.3485 165.968C54.1425 170.545 55.2695 175.375 55.6375 180.297C55.9595 184.713 56.0745 189.796 53.3835 193.545C53.2455 193.729 53.3835 194.005 53.5905 194.051C55.6605 194.534 55.0395 197.8 54.8555 199.272C54.5795 201.71 54.1655 204.148 53.6365 206.54C52.6245 211.163 51.1525 215.694 49.2895 220.041C49.1055 220.455 49.7035 220.8 49.8875 220.386C52.0725 215.326 53.7055 210.036 54.7405 204.631C55.2005 202.147 55.7295 199.525 55.7755 196.995C55.7985 195.546 55.4305 193.729 53.7975 193.361C53.8665 193.522 53.9355 193.706 54.0045 193.867C56.6955 190.118 56.6495 185.104 56.3735 180.688C56.0515 175.559 54.9015 170.522 53.0385 165.761C52.9235 165.485 52.5785 165.416 52.4175 165.669C49.4045 170.522 47.1045 175.743 45.5175 181.24C45.7475 181.24 45.9545 181.24 46.1845 181.24C45.8625 180.205 45.3335 179.377 44.5285 178.641C44.3215 178.457 44.0455 178.549 43.9535 178.802C41.5845 184.897 40.7335 191.452 41.4465 197.938C41.4465 198.398 42.1365 198.398 42.0905 197.961Z" fill="#E8E8E8"/>
<path d="M28.6367 181.654C31.8337 187.979 35.0997 194.281 38.1587 200.675C41.1487 206.977 43.7937 213.486 45.2197 220.34C45.3117 220.777 45.9787 220.593 45.8867 220.156C44.4607 213.371 41.8847 206.954 38.9177 200.698C35.8357 194.166 32.4777 187.749 29.2117 181.286C29.0277 180.918 28.4297 181.263 28.6367 181.654Z" fill="#E8E8E8"/>
<path d="M52.4873 166.934C52.0043 173.765 49.8883 180.297 48.3243 186.921C46.7603 193.545 45.6793 200.284 45.0813 207.069C45.0353 207.506 45.7253 207.506 45.7713 207.069C46.3923 200.054 47.5423 193.085 49.1983 186.254C50.7623 179.86 52.6943 173.535 53.1773 166.934C53.2003 166.474 52.5103 166.474 52.4873 166.934Z" fill="#E8E8E8"/>
<path d="M28.2684 194.833C31.7414 196.006 34.9154 197.8 37.7444 200.146C38.0894 200.422 38.5724 199.939 38.2274 199.663C35.3064 197.248 32.0404 195.408 28.4524 194.166C28.0154 194.005 27.8314 194.672 28.2684 194.833Z" fill="#E8E8E8"/>
<path d="M43.7932 179.561C44.5752 183.724 45.7252 187.818 47.2202 191.774C47.3812 192.188 48.0482 192.004 47.8872 191.59C46.3922 187.611 45.2652 183.54 44.4602 179.377C44.3682 178.94 43.7242 179.124 43.7932 179.561Z" fill="#E8E8E8"/>
<path d="M46.2773 208.587C48.7613 205.321 51.3143 202.032 54.9483 199.985C55.3393 199.778 54.9943 199.18 54.6033 199.387C50.8773 201.503 48.2323 204.884 45.6793 208.242C45.4263 208.587 46.0243 208.932 46.2773 208.587Z" fill="#E8E8E8"/>
<path d="M285.476 224.135C304.819 224.135 324.185 224.135 343.528 224.135C344.425 224.135 344.425 222.755 343.528 222.755C324.185 222.755 304.819 222.755 285.476 222.755C284.579 222.755 284.579 224.135 285.476 224.135Z" fill="black"/>
<path d="M75.3719 219.535C60.1919 219.535 45.0119 219.535 29.8319 219.535C28.9349 219.535 28.9349 220.915 29.8319 220.915C45.0119 220.915 60.1919 220.915 75.3719 220.915C76.2459 220.915 76.2459 219.535 75.3719 219.535Z" fill="black"/>
<path d="M229.978 235.359C250.954 235.359 271.93 235.359 292.906 235.359C298.886 235.359 304.843 235.359 310.823 235.359C311.72 235.359 311.72 233.979 310.823 233.979C289.847 233.979 268.871 233.979 247.895 233.979C241.915 233.979 235.958 233.979 229.978 233.979C229.104 233.979 229.081 235.359 229.978 235.359Z" fill="black"/>
<path d="M279.633 224.503C212.703 223.169 145.773 221.835 78.8433 220.501C66.8603 220.271 58.4883 208.564 62.1223 197.156L103.453 67.114C105.799 59.731 112.653 54.671 120.404 54.625C182.343 54.188 244.282 53.728 306.221 53.291C317.537 53.199 326.116 63.526 323.931 74.635L297.55 210.013C295.917 218.569 288.35 224.687 279.633 224.503Z" fill="#EC615B" stroke="black" stroke-width="1.38" stroke-miterlimit="10"/>
<path d="M278.345 223.376C211.415 222.111 144.485 220.869 77.5552 219.604C65.5722 219.374 57.2002 208.334 60.8342 197.57L102.165 74.8189C104.511 67.8499 111.365 63.0889 119.116 63.0199C181.055 62.6059 242.994 62.1689 304.933 61.7549C316.249 61.6859 324.828 71.4149 322.643 81.9029L296.262 209.714C294.629 217.764 287.062 223.537 278.345 223.376Z" fill="white" stroke="black" stroke-width="1.38" stroke-miterlimit="10"/>
<path d="M295.504 213.141C293.296 217.994 289.041 221.651 283.912 223.077C283.475 223.192 283.659 223.859 284.096 223.744C289.386 222.272 293.825 218.477 296.102 213.486C296.263 213.095 295.688 212.727 295.504 213.141Z" fill="black"/>
<path d="M122.175 59.708C121.485 59.639 121.232 58.903 121.416 58.305C121.669 57.546 122.405 57.385 123.095 57.73C123.578 57.983 123.831 58.581 123.624 59.11C123.394 59.685 122.727 59.869 122.175 59.662C121.761 59.501 121.577 60.168 121.991 60.329C122.888 60.674 123.992 60.214 124.314 59.271C124.636 58.259 123.992 57.27 123.026 56.971C121.945 56.649 121.002 57.155 120.726 58.282C120.496 59.317 121.14 60.283 122.175 60.398C122.612 60.444 122.612 59.754 122.175 59.708Z" fill="black"/>
<path d="M121.37 59.1561C121.646 59.8691 122.658 60.0991 123.256 59.6621C123.647 59.3631 123.831 58.7881 123.647 58.2821C123.44 57.7301 122.842 57.4081 122.313 57.5001C121.577 57.6381 121.094 58.4891 121.37 59.1561Z" fill="white"/>
<path d="M129.949 59.501C129.259 59.432 129.006 58.696 129.19 58.098C129.443 57.339 130.179 57.178 130.869 57.523C131.352 57.776 131.605 58.374 131.398 58.903C131.168 59.478 130.501 59.662 129.949 59.455C129.535 59.294 129.351 59.961 129.765 60.122C130.662 60.467 131.766 60.007 132.088 59.064C132.41 58.052 131.766 57.063 130.8 56.764C129.719 56.442 128.776 56.948 128.5 58.075C128.27 59.11 128.914 60.076 129.949 60.191C130.386 60.237 130.386 59.547 129.949 59.501Z" fill="black"/>
<path d="M129.144 58.9491C129.42 59.6621 130.432 59.8921 131.03 59.4551C131.421 59.1561 131.605 58.5811 131.421 58.0751C131.214 57.5231 130.616 57.2011 130.087 57.2931C129.351 57.4311 128.868 58.2821 129.144 58.9491Z" stroke="black" stroke-width="0.23" stroke-miterlimit="10"/>
<path d="M121.715 57.7301C122.037 58.4431 122.405 59.1331 122.842 59.8001C123.072 60.1681 123.67 59.8231 123.44 59.4551C123.026 58.7881 122.658 58.0981 122.313 57.3851C122.129 56.9941 121.531 57.3391 121.715 57.7301Z" fill="black"/>
<path d="M121.784 59.7999C122.106 59.5239 122.405 59.2249 122.727 58.9489C123.003 58.6959 123.279 58.3969 123.624 58.2129C124.015 58.0059 123.67 57.4079 123.279 57.6149C122.934 57.7989 122.658 58.0979 122.359 58.3739C122.014 58.6959 121.647 59.0179 121.302 59.3399C120.98 59.6159 121.462 60.0989 121.784 59.7999Z" fill="black"/>
<path d="M207.206 75.3249C205.159 81.9029 203.089 88.5039 201.042 95.0819C199.777 99.1759 202.79 103.316 207.068 103.385C235.611 103.73 264.131 104.052 292.674 104.397C295.802 104.443 298.493 102.189 299.045 99.1069C300.264 92.1149 301.506 85.1229 302.725 78.1309C303.415 74.2209 300.402 70.6329 296.423 70.6329C268.708 70.7019 240.993 70.7709 213.301 70.8399C210.518 70.8399 208.034 72.6569 207.206 75.3249Z" fill="white" stroke="black" stroke-width="0.69" stroke-miterlimit="10"/>
<path d="M97.6797 167.026C93.7007 178.457 89.7217 189.888 85.7427 201.319C83.2817 208.403 89.1237 215.625 97.4037 215.717C152.65 216.292 207.919 216.89 263.165 217.465C269.237 217.534 274.458 213.647 275.493 208.288C277.885 196.167 280.254 184.023 282.646 171.902C283.98 165.094 278.138 158.884 270.433 158.884C216.774 158.999 163.115 159.114 109.456 159.229C104.051 159.252 99.2897 162.403 97.6797 167.026Z" fill="white" stroke="black" stroke-width="0.69" stroke-miterlimit="10"/>
<path d="M215.854 114.724C212.151 125.81 208.448 136.896 204.745 147.982C204.607 148.396 205.274 148.58 205.412 148.166C209.115 137.08 212.818 125.994 216.521 114.908C216.659 114.471 215.992 114.287 215.854 114.724Z" fill="#E8E8E8"/>
<path d="M216.292 114.793C225.906 114.287 235.565 113.505 245.202 113.505C254.793 113.505 264.362 114.333 273.907 115.161C274.344 115.207 274.344 114.517 273.907 114.471C264.362 113.643 254.793 112.838 245.202 112.815C235.565 112.815 225.906 113.597 216.292 114.103C215.855 114.126 215.832 114.816 216.292 114.793Z" fill="#E8E8E8"/>
<path d="M273.791 115.138C271.215 126.132 268.616 137.103 266.04 148.097C265.948 148.534 266.615 148.718 266.707 148.281C269.283 137.287 271.882 126.316 274.458 115.322C274.55 114.908 273.883 114.724 273.791 115.138Z" fill="#E8E8E8"/>
<path d="M205.16 149.178C220.938 148.327 236.739 148.12 252.54 148.603C257.048 148.741 261.533 148.925 266.041 149.178C266.478 149.201 266.478 148.511 266.041 148.488C250.263 147.614 234.462 147.43 218.661 147.913C214.153 148.051 209.668 148.235 205.16 148.488C204.723 148.511 204.7 149.201 205.16 149.178Z" fill="#E8E8E8"/>
<path d="M235.796 148.005C245.64 142.876 256.887 142.117 267.766 141.45C268.203 141.427 268.203 140.737 267.766 140.76C256.772 141.45 245.41 142.232 235.451 147.407C235.037 147.614 235.382 148.212 235.796 148.005Z" fill="#E8E8E8"/>
<path d="M251.504 126.109C252.585 131.376 253.137 136.735 253.16 142.117C253.16 142.554 253.85 142.554 253.85 142.117C253.804 136.666 253.252 131.261 252.171 125.925C252.079 125.488 251.412 125.672 251.504 126.109Z" fill="#E8E8E8"/>
<path d="M251.251 125.994C249.848 128.041 248.468 130.111 247.065 132.158C247.272 132.227 247.502 132.273 247.709 132.342C247.594 130.272 248.123 128.34 249.296 126.638C249.549 126.27 248.951 125.925 248.698 126.293C247.456 128.087 246.881 130.18 246.996 132.342C247.019 132.687 247.433 132.802 247.64 132.526C249.043 130.479 250.423 128.409 251.826 126.362C252.102 125.971 251.504 125.626 251.251 125.994Z" fill="#E8E8E8"/>
<path d="M248.928 125.81C248.146 125.465 247.364 125.304 246.513 125.35C246.007 125.373 243.96 125.994 244.259 125.235C244.374 124.936 245.018 124.545 245.271 124.338C245.754 123.947 246.26 123.579 246.789 123.28C247.962 122.613 249.273 122.291 250.607 122.498C251.044 122.567 251.228 121.9 250.791 121.831C248.123 121.417 245.34 122.866 243.615 124.867C243.155 125.396 243.224 126.132 243.983 126.362C244.397 126.477 244.857 126.316 245.248 126.224C246.375 125.971 247.479 125.879 248.583 126.362C248.974 126.592 249.319 125.994 248.928 125.81Z" fill="#E8E8E8"/>
<path d="M251.228 121.785C252.102 119.715 253.827 118.197 255.966 117.553C255.851 117.369 255.736 117.162 255.621 116.978C254.839 117.99 254.379 119.094 254.218 120.359C254.172 120.796 254.862 120.796 254.908 120.359C255.046 119.278 255.46 118.312 256.104 117.461C256.288 117.208 256.127 116.771 255.759 116.886C253.367 117.599 251.504 119.301 250.538 121.601C250.4 122.015 251.067 122.199 251.228 121.785Z" fill="#E8E8E8"/>
<path d="M254.724 120.773C256.518 119.738 258.634 119.715 260.451 120.704C260.451 120.497 260.451 120.313 260.451 120.106C259.002 120.796 257.622 121.624 256.311 122.544C255.943 122.797 256.288 123.395 256.656 123.142C257.967 122.222 259.347 121.394 260.796 120.704C261.026 120.589 261.003 120.221 260.796 120.106C258.749 118.979 256.38 119.002 254.379 120.175C253.988 120.405 254.333 121.003 254.724 120.773Z" fill="#E8E8E8"/>
<path d="M256.058 123.188C257.553 124.016 259.002 125.373 258.588 127.259C258.795 127.236 259.002 127.213 259.209 127.167C258.243 125.626 256.587 124.752 254.77 124.821C254.333 124.844 254.333 125.534 254.77 125.511C256.357 125.442 257.783 126.178 258.611 127.512C258.749 127.742 259.186 127.742 259.232 127.42C259.692 125.235 258.174 123.556 256.38 122.567C256.012 122.383 255.667 122.981 256.058 123.188Z" fill="#E8E8E8"/>
<path d="M254.173 125.396C255.231 130.916 255.622 136.505 255.323 142.117C255.3 142.554 255.99 142.554 256.013 142.117C256.312 136.459 255.921 130.778 254.84 125.212C254.748 124.775 254.081 124.959 254.173 125.396Z" fill="#E8E8E8"/>
<path d="M253.414 136.229C254.173 136.321 254.886 136.183 255.576 135.884C255.99 135.7 255.622 135.102 255.231 135.286C254.656 135.562 254.035 135.631 253.414 135.539C252.977 135.47 252.977 136.16 253.414 136.229Z" fill="#E8E8E8"/>
<path d="M208.149 139.771C211.921 140.001 215.739 140.07 219.488 140.507C221.328 140.714 223.099 141.266 224.916 141.542C226.687 141.795 228.412 141.542 230.183 141.22C237.934 139.863 245.731 140.599 253.482 141.427C253.919 141.473 253.919 140.783 253.482 140.737C245.984 139.932 238.371 139.15 230.873 140.392C228.757 140.737 226.756 141.151 224.617 140.783C222.892 140.484 221.236 140.024 219.511 139.817C215.762 139.38 211.944 139.311 208.172 139.081C207.712 139.035 207.712 139.725 208.149 139.771Z" fill="#E8E8E8"/>
<path d="M252.61 131.468C252.702 131.859 253.093 131.951 253.461 131.882C254.174 131.767 254.91 131.514 255.6 131.307C256.037 131.192 255.853 130.525 255.416 130.64C255.002 130.755 254.588 130.87 254.174 130.962C253.99 131.008 253.783 131.054 253.599 131.123C253.507 131.146 253.415 131.169 253.323 131.192C253.162 131.169 253.162 131.192 253.277 131.261C253.185 130.847 252.518 131.031 252.61 131.468Z" fill="#E8E8E8"/>
<path d="M223.467 122.682C221.19 121.946 224.157 118.036 225.744 119.784C226.319 120.405 226.296 121.486 225.767 122.13C225.169 122.866 224.134 122.981 223.329 122.521C222.938 122.291 222.593 122.889 222.984 123.119C224.157 123.786 225.744 123.533 226.48 122.36C227.147 121.279 226.963 119.6 225.79 118.933C223.237 117.507 220.178 122.36 223.306 123.372C223.72 123.487 223.904 122.82 223.467 122.682Z" fill="#E8E8E8"/>
<path d="M276.643 117.139C284.072 117.53 291.432 118.404 298.746 119.784C299.183 119.876 299.367 119.209 298.93 119.117C291.57 117.714 284.141 116.817 276.643 116.426C276.206 116.426 276.206 117.116 276.643 117.139Z" fill="#E8E8E8"/>
<path d="M276.53 119.14C283.614 119.899 290.721 120.704 297.782 121.555C298.219 121.601 298.219 120.911 297.782 120.865C290.698 120.014 283.614 119.209 276.53 118.45C276.093 118.404 276.093 119.094 276.53 119.14Z" fill="#E8E8E8"/>
<path d="M276.299 121.21C280.577 121.923 284.878 122.383 289.202 122.521C289.639 122.544 289.639 121.854 289.202 121.831C284.947 121.67 280.692 121.256 276.483 120.543C276.046 120.474 275.862 121.141 276.299 121.21Z" fill="#E8E8E8"/>
<path d="M273.722 133.607C279.541 134.435 285.383 135.125 291.225 135.677C291.662 135.723 291.662 135.033 291.225 134.987C285.429 134.435 279.656 133.745 273.906 132.94C273.469 132.871 273.285 133.538 273.722 133.607Z" fill="#E8E8E8"/>
<path d="M273.285 135.585C277.908 136.39 282.531 137.057 287.177 137.609C287.614 137.655 287.614 136.965 287.177 136.919C282.577 136.39 278.023 135.723 273.469 134.918C273.032 134.826 272.848 135.493 273.285 135.585Z" fill="#E8E8E8"/>
<path d="M272.803 138.506C278.599 139.656 284.441 140.438 290.329 140.806C290.766 140.829 290.766 140.139 290.329 140.116C284.51 139.725 278.714 138.966 272.987 137.839C272.55 137.747 272.366 138.414 272.803 138.506Z" fill="#E8E8E8"/>
<path d="M107.639 168.107C118.219 168.636 128.845 168.084 139.425 167.923C150.005 167.762 160.562 167.716 171.142 167.739C192.371 167.785 213.577 168.176 234.806 168.659C246.766 168.935 258.703 169.257 270.663 169.556C271.1 169.579 271.1 168.889 270.663 168.866C249.457 168.314 228.228 167.739 206.999 167.394C185.77 167.049 164.564 166.888 143.335 167.164C131.444 167.302 119.507 168.015 107.639 167.394C107.179 167.394 107.179 168.084 107.639 168.107Z" fill="#E8E8E8"/>
<path d="M107.225 87.1011C108.605 87.3081 109.571 86.3651 112.308 84.3411C116.425 81.2821 117.299 81.1901 117.92 81.2361C118.219 81.2591 118.771 81.3511 121.37 83.3061C125.165 86.1581 125.395 87.0321 126.637 87.1011C128.891 87.1931 129.213 84.3411 131.904 84.0881C134.342 83.8581 135.101 86.0891 138.114 85.9741C140.437 85.9051 141.794 84.4791 142.001 84.7781C142.254 85.1691 140.069 88.1821 136.918 88.6651C134.595 89.0101 134.089 87.6531 131.835 87.9751C128.707 88.4351 128.109 91.2871 125.809 91.0801C124.452 90.9421 124.268 89.9301 121.922 88.3201C120.68 87.4691 118.518 85.9971 116.149 85.8131C111.802 85.4911 109.548 89.7001 106.926 88.4811C105.661 87.9061 104.948 86.3421 105.109 86.1581C105.224 85.9741 106.029 86.9171 107.225 87.1011Z" fill="#5EDBC5"/>
<path d="M214.98 75.3019C213.577 81.6729 211.852 87.9749 209.828 94.1849C209.69 94.5989 210.357 94.7829 210.495 94.3689C212.519 88.1589 214.244 81.8569 215.647 75.4859C215.739 75.0489 215.072 74.8649 214.98 75.3019Z" fill="#E8E8E8"/>
<path d="M210.242 94.7139C212.611 94.9899 214.98 94.8749 217.372 94.8289C219.856 94.7599 222.34 94.7139 224.847 94.6449C229.815 94.5299 234.806 94.3919 239.774 94.2769C240.211 94.2769 240.211 93.5869 239.774 93.5869C234.806 93.7019 229.815 93.8399 224.847 93.9549C222.432 94.0239 220.017 94.0699 217.602 94.1389C215.141 94.2079 212.703 94.3229 210.242 94.0469C209.805 93.9779 209.805 94.6679 210.242 94.7139Z" fill="#E8E8E8"/>
<path d="M218.799 81.719C217.925 85.813 217.188 89.93 216.567 94.07C216.498 94.507 217.166 94.691 217.235 94.254C217.856 90.114 218.592 85.997 219.466 81.903C219.558 81.466 218.891 81.282 218.799 81.719Z" fill="#E8E8E8"/>
<path d="M219.328 82.0871C220.547 82.1561 221.743 82.2711 222.939 82.5011C222.87 82.3631 222.778 82.2251 222.709 82.0871C221.628 85.9741 220.708 89.9071 219.949 93.8631C219.857 94.3001 220.524 94.4841 220.616 94.0471C221.375 90.0911 222.295 86.1581 223.376 82.2711C223.422 82.1101 223.33 81.8801 223.146 81.8571C221.881 81.6271 220.639 81.4891 219.351 81.4201C218.868 81.3741 218.868 82.0641 219.328 82.0871Z" fill="#E8E8E8"/>
<path d="M225.262 85.6291C224.917 88.4351 224.457 91.1951 223.882 93.9551C223.79 94.3921 224.457 94.5761 224.549 94.1391C225.147 91.3331 225.607 88.4811 225.952 85.6291C225.998 85.1921 225.308 85.1921 225.262 85.6291Z" fill="#E8E8E8"/>
<path d="M225.606 85.6751C226.894 85.6291 228.205 85.6521 229.493 85.7441C229.378 85.6061 229.263 85.4451 229.171 85.3071C228.665 88.0441 228.228 90.7811 227.86 93.5411C227.791 93.9781 228.481 93.9781 228.55 93.5411C228.918 90.8501 229.332 88.1821 229.838 85.4911C229.884 85.2611 229.746 85.0771 229.516 85.0541C228.228 84.9621 226.917 84.9621 225.629 84.9851C225.146 84.9851 225.146 85.6751 225.606 85.6751Z" fill="#E8E8E8"/>
<path d="M233.656 79.373C232.851 84.18 231.908 88.987 230.873 93.748C230.781 94.185 231.448 94.369 231.54 93.932C232.575 89.171 233.518 84.364 234.323 79.557C234.415 79.12 233.748 78.936 233.656 79.373Z" fill="#E8E8E8"/>
<path d="M234.208 79.0281C234.208 79.0741 234.208 79.0971 234.208 79.1431C234.208 79.3271 234.369 79.4881 234.553 79.4881C234.737 79.4881 234.898 79.3271 234.898 79.1431C234.898 79.0971 234.898 79.0741 234.898 79.0281C234.898 78.8441 234.737 78.6831 234.553 78.6831C234.369 78.7061 234.208 78.8441 234.208 79.0281Z" fill="#E8E8E8"/>
<path d="M234.369 79.603C235.427 79.833 236.439 79.948 237.52 79.925C237.405 79.787 237.29 79.626 237.198 79.488C236.301 84.295 235.473 89.125 234.691 93.955C234.622 94.392 235.289 94.576 235.358 94.139C236.14 89.309 236.968 84.479 237.865 79.672C237.911 79.465 237.773 79.235 237.543 79.235C236.531 79.235 235.565 79.143 234.576 78.936C234.116 78.844 233.932 79.488 234.369 79.603Z" fill="#E8E8E8"/>
<path d="M244.88 78.0391C252.7 77.9471 260.497 77.9931 268.317 78.2001C268.754 78.2001 268.754 77.5101 268.317 77.5101C260.497 77.3261 252.7 77.2801 244.88 77.3491C244.443 77.3491 244.443 78.0391 244.88 78.0391Z" fill="#E8E8E8"/>
<path d="M245.41 80.8451C250.263 81.1671 255.139 81.0981 259.992 80.6381C260.429 80.5921 260.429 79.9021 259.992 79.9481C255.139 80.4081 250.263 80.4771 245.41 80.1551C244.973 80.1321 244.973 80.8221 245.41 80.8451Z" fill="#E8E8E8"/>
<path d="M244.351 84.318C251.021 84.203 257.691 84.318 264.361 84.663C264.798 84.686 264.798 83.996 264.361 83.973C257.691 83.605 251.021 83.49 244.351 83.628C243.914 83.628 243.914 84.318 244.351 84.318Z" fill="#E8E8E8"/>
<path d="M280.139 94.99C277.793 94.691 276.666 92.345 275.999 90.344C275.378 88.458 275.148 86.48 275.861 84.594C277.103 81.282 280.484 78.614 283.888 77.855C287.43 77.05 291.018 78.936 292.72 82.087C294.514 85.399 293.893 89.654 291.8 92.667C289.224 96.37 283.796 96.784 280.024 94.829C279.633 94.622 279.288 95.22 279.679 95.427C283.29 97.29 288.281 97.198 291.34 94.277C294.33 91.425 295.296 86.342 293.732 82.57C292.237 79.005 288.465 76.521 284.555 77.027C280.691 77.533 276.804 80.477 275.332 84.088C274.343 86.549 274.757 89.125 275.723 91.517C276.551 93.541 277.862 95.381 280.162 95.68C280.576 95.726 280.576 95.036 280.139 94.99Z" fill="#E8E8E8"/>
<path d="M281.105 78.7751C282.186 81.5581 283.175 84.3871 284.118 87.2391C284.256 87.6531 284.923 87.4691 284.785 87.0551C283.842 84.2031 282.853 81.3971 281.772 78.5911C281.611 78.2001 280.944 78.3611 281.105 78.7751Z" fill="#E8E8E8"/>
<path d="M284.831 87.6301C287.545 85.7441 290.236 83.7891 292.858 81.7881C293.203 81.5121 292.858 80.9141 292.513 81.1901C289.868 83.1911 287.2 85.1461 284.486 87.0321C284.118 87.2851 284.463 87.8831 284.831 87.6301Z" fill="#E8E8E8"/>
<path d="M284.715 87.6531C287.797 87.5151 290.833 87.0091 293.8 86.1351C294.214 86.0201 294.053 85.3531 293.616 85.4681C290.718 86.3191 287.751 86.8251 284.715 86.9401C284.278 86.9861 284.278 87.6761 284.715 87.6531Z" fill="#E8E8E8"/>
<path d="M284.164 87.4231C282.324 89.7921 280.507 92.1611 278.667 94.5301C278.391 94.8751 278.989 95.2201 279.265 94.8751C281.105 92.5061 282.922 90.1371 284.762 87.7681C285.038 87.4231 284.44 87.0781 284.164 87.4231Z" fill="#E8E8E8"/>
<path d="M108.099 166.934C107.524 166.773 107.869 166.014 108.122 165.761C108.398 165.485 109.088 165.508 109.456 165.508C110.123 165.485 110.79 165.508 111.48 165.485C112.86 165.485 114.24 165.462 115.62 165.462C118.38 165.439 121.14 165.439 123.9 165.416C129.351 165.393 134.779 165.347 140.23 165.324C151.201 165.255 162.149 165.209 173.12 165.186C194.97 165.117 216.797 165.117 238.647 165.232C244.627 165.278 250.63 165.278 256.61 165.531C259.577 165.646 262.544 165.83 265.511 166.106C266.983 166.244 268.478 166.405 269.95 166.589C270.433 166.658 270.916 166.704 271.399 166.796C271.79 166.865 272.02 166.796 272.158 167.164C272.526 168.038 271.353 168.935 270.64 168.981C270.203 169.004 270.203 169.694 270.64 169.671C272.181 169.556 273.262 167.992 272.687 166.52C272.641 166.405 272.572 166.29 272.457 166.29C261.486 164.657 250.377 164.657 239.314 164.588C227.883 164.519 216.475 164.496 205.044 164.473C182.136 164.473 159.205 164.565 136.297 164.68C129.857 164.726 123.417 164.749 116.977 164.795C115.436 164.795 113.918 164.818 112.377 164.818C111.089 164.818 109.571 164.611 108.329 164.979C107.133 165.324 106.351 167.21 107.915 167.647C108.329 167.716 108.513 167.049 108.099 166.934Z" fill="#E8E8E8"/>
<path d="M106.398 170.982C104.098 179.285 101.292 187.45 97.9565 195.408C97.7955 195.822 98.4625 196.006 98.6235 195.592C101.959 187.634 104.765 179.469 107.065 171.166C107.18 170.729 106.513 170.545 106.398 170.982Z" fill="#E8E8E8"/>
<path d="M106.627 171.672C112.538 172.385 118.633 171.902 124.567 171.833C125.004 171.833 125.004 171.143 124.567 171.143C118.633 171.235 112.538 171.695 106.627 170.982C106.167 170.936 106.19 171.626 106.627 171.672Z" fill="#E8E8E8"/>
<path d="M123.831 171.787C121.876 179.009 119.806 186.185 117.621 193.361C117.483 193.798 118.15 193.959 118.288 193.545C120.473 186.392 122.543 179.193 124.498 171.971C124.613 171.534 123.946 171.35 123.831 171.787Z" fill="#E8E8E8"/>
<path d="M98.2779 195.753C101.521 195.73 104.741 195.707 107.984 195.684C109.571 195.684 111.135 195.661 112.722 195.661C114.125 195.661 115.528 195.707 116.908 195.385C117.345 195.293 117.161 194.626 116.724 194.718C115.275 195.063 113.757 194.971 112.262 194.971C110.675 194.971 109.111 194.994 107.524 194.994C104.442 195.017 101.36 195.04 98.2779 195.04C97.8409 195.063 97.8409 195.753 98.2779 195.753Z" fill="#E8E8E8"/>
<path d="M127.443 171.948C142.991 171.511 158.562 171.534 174.11 172.04C174.547 172.063 174.547 171.373 174.11 171.35C158.562 170.844 142.991 170.798 127.443 171.258C127.006 171.258 127.006 171.948 127.443 171.948Z" fill="#E8E8E8"/>
<path d="M126.798 175.996C135.814 175.973 144.83 175.973 153.869 175.95C154.306 175.95 154.306 175.26 153.869 175.26C144.853 175.283 135.837 175.283 126.798 175.306C126.338 175.306 126.338 175.996 126.798 175.996Z" fill="#E8E8E8"/>
<path d="M117.529 194.948C117.943 194.258 118.242 193.522 118.403 192.763C118.495 192.326 117.828 192.142 117.736 192.579C117.575 193.292 117.322 193.982 116.931 194.603C116.701 194.971 117.299 195.316 117.529 194.948Z" fill="#E8E8E8"/>
<path d="M203.825 173.972C201.985 182.758 200.214 191.544 198.489 200.33C198.397 200.767 199.064 200.951 199.156 200.514C200.881 191.728 202.652 182.942 204.492 174.156C204.584 173.719 203.917 173.535 203.825 173.972Z" fill="#E8E8E8"/>
<path d="M198.628 200.905C208.081 201.158 217.511 201.411 226.964 201.664C236.302 201.917 245.64 202.308 254.978 202.308C255.415 202.308 255.415 201.618 254.978 201.618C245.64 201.618 236.302 201.204 226.964 200.974C217.511 200.721 208.081 200.468 198.628 200.215C198.191 200.192 198.191 200.882 198.628 200.905Z" fill="#E8E8E8"/>
<path d="M199.317 200.836C202.169 197.754 205.021 194.649 207.873 191.567C207.712 191.567 207.551 191.567 207.39 191.567C208.333 192.74 209.437 193.706 210.725 194.488C211.116 194.718 211.461 194.12 211.07 193.89C209.828 193.154 208.77 192.211 207.873 191.084C207.758 190.946 207.505 190.969 207.39 191.084C204.538 194.166 201.686 197.271 198.834 200.353C198.535 200.675 199.018 201.158 199.317 200.836Z" fill="#E8E8E8"/>
<path d="M210.91 194.258C213.969 190.647 217.051 187.059 220.11 183.448C220.386 183.103 219.903 182.62 219.627 182.965C216.568 186.576 213.486 190.164 210.427 193.775C210.128 194.097 210.611 194.58 210.91 194.258Z" fill="#E8E8E8"/>
<path d="M219.627 183.103C220.248 183.931 220.869 184.736 221.49 185.564C221.628 185.748 221.835 185.794 222.042 185.633C224.848 183.333 227.585 180.918 230.23 178.434C230.552 178.135 230.069 177.652 229.747 177.951C227.102 180.435 224.365 182.85 221.559 185.15C221.743 185.173 221.927 185.196 222.111 185.219C221.49 184.391 220.869 183.586 220.248 182.758C219.949 182.39 219.351 182.735 219.627 183.103Z" fill="#E8E8E8"/>
<path d="M229.493 178.733C233.334 181.769 237.037 184.966 240.625 188.278C240.947 188.577 241.43 188.094 241.108 187.795C237.52 184.46 233.817 181.286 229.976 178.25C229.631 177.974 229.148 178.457 229.493 178.733Z" fill="#E8E8E8"/>
<path d="M241.039 188.186C245.777 185.173 249.181 180.527 253.804 177.353C254.172 177.1 253.827 176.502 253.459 176.755C248.836 179.929 245.432 184.575 240.694 187.588C240.326 187.818 240.671 188.416 241.039 188.186Z" fill="#E8E8E8"/>
<path d="M249.779 178.066C251.228 177.813 252.631 177.445 254.034 177.008C253.896 176.87 253.758 176.732 253.62 176.594C253.367 177.744 253.137 178.894 252.884 180.044C252.792 180.481 253.459 180.665 253.551 180.228C253.804 179.078 254.034 177.928 254.287 176.778C254.333 176.525 254.126 176.272 253.873 176.364C252.47 176.801 251.067 177.169 249.618 177.422C249.181 177.491 249.365 178.158 249.779 178.066Z" fill="#E8E8E8"/>
<path d="M212.289 175.789C211.484 184 210.656 192.211 209.851 200.422C209.805 200.859 210.495 200.859 210.541 200.422C211.346 192.211 212.174 184 212.979 175.789C213.002 175.352 212.312 175.352 212.289 175.789Z" fill="#E8E8E8"/>
<path d="M222.502 174.34C221.651 183.149 220.961 191.981 220.455 200.813C220.432 201.25 221.122 201.25 221.145 200.813C221.651 191.981 222.341 183.149 223.192 174.34C223.215 173.88 222.525 173.903 222.502 174.34Z" fill="#E8E8E8"/>
<path d="M241.775 174.087C240.878 183.287 240.234 192.487 239.843 201.733C239.82 202.17 240.51 202.17 240.533 201.733C240.924 192.51 241.568 183.287 242.465 174.087C242.511 173.65 241.821 173.65 241.775 174.087Z" fill="#E8E8E8"/>
<path d="M230.253 170.729C229.655 180.987 229.057 191.222 228.459 201.48C228.436 201.917 229.126 201.917 229.149 201.48C229.747 191.222 230.345 180.987 230.943 170.729C230.966 170.269 230.276 170.269 230.253 170.729Z" fill="#E8E8E8"/>
<path d="M158.561 175.881C163.23 176.295 167.899 175.26 172.568 175.835C173.005 175.881 173.005 175.191 172.568 175.145C167.899 174.57 163.23 175.605 158.561 175.191C158.101 175.168 158.124 175.858 158.561 175.881Z" fill="#E8E8E8"/>
<path d="M86.1344 134.389C94.2764 133.193 102.119 136.459 109.341 139.863C116.034 143.037 122.658 146.28 130.087 147.223C145.957 149.201 161.16 142.531 176.087 138.322C184.85 135.861 193.935 134.136 203.066 135.286C203.503 135.332 203.503 134.642 203.066 134.596C186.897 132.549 171.625 139.357 156.399 143.566C148.671 145.705 140.667 147.315 132.617 146.786C124.544 146.257 117.437 142.991 110.238 139.564C102.671 135.953 94.5294 132.48 85.9504 133.745C85.5134 133.791 85.7204 134.458 86.1344 134.389Z" fill="#E8E8E8"/>
<path d="M129.696 140.668C149.959 141.749 168.727 132.71 188.116 128.363C193.705 127.121 199.386 126.247 205.136 126.132C205.573 126.132 205.573 125.442 205.136 125.442C184.896 125.902 166.381 135.217 146.693 138.782C141.081 139.794 135.4 140.3 129.696 140.001C129.259 139.932 129.259 140.622 129.696 140.668Z" fill="#E8E8E8"/>
<path d="M90.7114 117.139C99.8884 117.783 108.26 121.877 116.724 125.074C125.326 128.317 134.296 130.134 143.496 129.904C148.763 129.766 154.007 129.007 159.113 127.673C159.55 127.558 159.366 126.891 158.929 127.006C149.66 129.444 139.931 129.904 130.478 128.271C121.462 126.707 113.343 122.774 104.81 119.715C100.256 118.082 95.5644 116.794 90.7114 116.472C90.2514 116.426 90.2744 117.116 90.7114 117.139Z" fill="#E8E8E8"/>
<path d="M153.11 72.9101C152.926 74.0601 152.627 75.1871 152.213 76.2911C152.121 76.5211 152.351 76.7281 152.535 76.7281C167.186 77.3721 181.837 77.5101 196.488 77.1191C196.925 77.0961 196.925 76.4061 196.488 76.4291C181.837 76.8201 167.163 76.7051 152.535 76.0381C152.65 76.1761 152.765 76.3371 152.857 76.4751C153.271 75.3711 153.57 74.2671 153.754 73.0941C153.846 72.6571 153.179 72.4731 153.11 72.9101Z" fill="#E8E8E8"/>
<path d="M153.571 73.1629C168.314 73.3469 183.034 73.5309 197.777 73.7149C198.214 73.7149 198.214 73.0249 197.777 73.0249C183.034 72.8409 168.314 72.6569 153.571 72.4729C153.134 72.4499 153.134 73.1399 153.571 73.1629Z" fill="#E8E8E8"/>
<path d="M197.707 73.301C197.247 74.382 196.902 75.509 196.718 76.682C196.649 77.119 197.316 77.303 197.385 76.866C197.569 75.762 197.868 74.681 198.305 73.646C198.466 73.232 197.868 72.887 197.707 73.301Z" fill="#E8E8E8"/>
<path d="M34.7761 205.298C30.8431 206.241 26.8871 207.184 22.9541 208.127C25.0011 221.053 26.6111 227.493 27.7381 227.401C28.7041 227.332 29.3251 222.502 29.6011 212.911C31.7861 212.152 33.9711 211.416 36.1561 210.657C35.6961 208.886 35.2361 207.092 34.7761 205.298Z" fill="#161616" stroke="#161616" stroke-width="0.69" stroke-miterlimit="10"/>
<path d="M61.6634 157.113C61.1574 158.631 60.3984 161.046 59.6164 164.105C57.9834 170.476 57.9144 173.19 56.2584 181.286C54.2804 190.923 53.2684 192.579 52.6244 193.522C49.7034 197.708 45.6554 199.617 43.4474 200.652C38.1114 203.159 33.1434 203.389 30.1994 203.274C30.0844 204.631 29.9694 207.943 31.9474 211.278C32.9364 212.934 34.1094 214.061 35.0064 214.774C37.9734 214.935 43.0794 214.82 48.8294 212.589C51.2904 211.646 57.5694 209.116 62.3534 202.837C66.0334 198.007 67.0454 193.292 68.1724 188.002C70.3574 177.813 67.6434 176.272 70.3574 167.624C71.9904 162.38 73.8764 159.804 72.5424 157.872C70.9554 155.503 65.9644 156.124 61.6634 157.113Z" fill="#EC615B"/>
<path opacity="0.09" d="M61.9387 157.136C61.7087 159.597 61.3637 163.001 60.8807 167.049C60.4437 170.614 59.9607 174.478 59.1787 178.986C57.8217 186.714 57.1317 190.578 55.6597 193.798C54.3717 196.604 51.8877 201.802 46.1837 205.735C40.2497 209.806 34.1087 210.197 31.3717 210.22C31.0497 209.484 30.7277 208.541 30.5207 207.46C30.2217 205.896 30.2217 204.539 30.3137 203.527C32.0847 203.55 34.5227 203.412 37.3517 202.791C42.2737 201.687 45.5627 199.686 46.4137 199.157C48.5067 197.846 50.6917 196.489 52.4857 193.821C53.7047 192.027 54.2107 190.394 55.0387 186.99C56.2577 181.976 56.8787 179.492 57.3847 175.812C57.9367 171.557 59.1557 165.347 61.9387 157.136Z" fill="#3D3D3D"/>
<path opacity="0.12" d="M30.3598 203.458C30.2678 204.47 30.2218 205.85 30.5438 207.437C30.7738 208.61 31.1188 209.576 31.4408 210.335C34.5918 209.668 44.5048 207.138 50.6458 198.076C52.4628 195.385 53.5438 192.74 54.2108 190.463C53.5898 191.912 52.5088 194.028 50.5998 196.075C47.3108 199.594 43.5388 200.882 40.8248 201.802C38.5248 202.607 34.9368 203.527 30.3598 203.458Z" fill="#3D3D3D"/>
<path d="M59.9836 226.412C58.1896 231.357 56.3956 236.302 54.6016 241.27C67.2056 242.742 73.6226 242.949 73.8526 241.845C74.0366 240.994 70.3106 239.315 62.7206 236.854C63.7556 233.795 64.8136 230.736 65.8486 227.677C63.8936 227.263 61.9386 226.826 59.9836 226.412Z" fill="#161616" stroke="#161616" stroke-width="0.69" stroke-miterlimit="10"/>
<path d="M78.6823 159.735C78.9353 163.139 79.1653 167.785 79.1193 173.259C79.0043 188.37 76.9573 199.709 76.3593 202.791C74.8183 210.864 72.1503 221.283 67.3433 232.921C65.8253 232.99 62.0763 232.944 58.3273 230.598C56.0273 229.149 54.6013 227.401 53.8193 226.228C55.2223 223.56 56.9473 220.041 58.6263 215.74C61.5933 208.15 62.8813 202.101 63.7093 198.122C65.5723 189.175 66.5153 184.713 65.7563 179.929C65.0203 175.398 63.8243 174.616 64.0083 170.752C64.0543 169.901 64.6293 159.988 70.8393 158.102C74.0363 157.159 77.2103 158.815 78.6823 159.735Z" fill="#EC615B"/>
<path opacity="0.14" d="M73.2306 158.01C75.2776 158.884 74.6106 164.634 74.4266 166.152C71.9656 187.818 75.3466 176.157 72.3796 189.52C68.3086 207.874 62.8116 225.515 60.8796 231.587C60.4196 231.587 59.7756 231.541 59.0856 231.219C58.4416 230.92 58.3036 230.529 57.5216 229.908C56.6706 229.241 56.3716 229.287 55.7276 228.827C55.1526 228.413 54.4396 227.677 53.9336 226.32C55.1296 223.974 56.5556 220.961 58.0046 217.327C59.8446 212.727 60.8566 209.231 61.9606 205.459C61.9606 205.459 65.4106 193.568 66.0316 184.483C66.1466 182.666 66.0546 181.424 65.9166 180.527C65.7096 179.101 65.4106 178.388 64.9506 176.686C64.8356 176.249 64.1916 173.765 63.9846 171.902C63.4096 166.405 66.3306 161.989 67.7106 160.402C68.1936 159.827 68.8376 159.206 69.7576 158.723C70.1026 158.562 72.1036 157.527 73.2306 158.01Z" fill="#3D3D3D"/>
<path opacity="0.11" d="M67.9648 195.431C67.5738 201.02 66.2628 202.676 62.4448 216.407C60.7658 222.433 59.5238 227.378 58.7188 230.552C58.0748 230.299 57.2698 229.885 56.4418 229.241C55.1998 228.275 54.4638 227.217 54.0498 226.481C55.1998 224.112 56.7408 220.731 58.2358 216.522C58.8338 214.866 59.2248 213.601 59.5928 212.451C64.8368 195.638 65.6648 190.532 65.9178 187.036C66.1248 184.069 65.9638 181.677 65.9178 180.918C65.6878 177.744 65.1358 175.559 65.1358 175.559C65.1358 175.559 68.7238 184.575 67.9648 195.431Z" fill="#3D3D3D"/>
<path d="M38.8919 149.454C38.9379 149.385 39.1679 149.408 39.6279 149.454C40.4099 149.523 40.6629 149.638 41.1689 149.684C41.6519 149.707 42.2959 149.753 42.4799 149.454C42.7329 149.063 41.9279 148.304 40.8009 146.671C38.8689 143.911 38.9609 142.945 39.1219 142.508C39.1679 142.393 39.3059 141.956 39.6049 141.887C39.9959 141.795 40.4329 142.324 40.8469 142.853C41.5369 143.704 41.8129 144.371 41.8819 144.325C42.0199 144.279 41.2149 142.554 41.3989 140.438C41.4449 139.863 41.5369 139.035 41.9509 138.92C42.3189 138.805 42.8709 139.265 43.3079 140.001C43.3079 139.909 43.4229 138.644 43.8599 138.552C44.2049 138.483 44.5959 139.15 44.9869 139.794C45.3089 140.323 45.5159 140.806 45.6309 141.128C45.6079 140.484 45.9529 139.955 46.4359 139.794C46.9649 139.633 47.4479 140.047 47.4709 140.07C47.9999 140.553 47.9539 141.404 47.9539 141.703C47.9079 143.014 48.0459 145.222 48.3449 148.442C48.9429 148.212 49.8169 147.798 50.7829 147.154C51.7719 146.487 52.8069 145.613 55.3599 142.554C56.3489 141.358 56.8549 140.76 57.7289 139.587C60.8799 135.378 62.7429 132.894 64.6289 129.375C65.2269 128.248 66.1929 126.339 68.1939 124.637C68.8379 124.085 70.1029 123.05 70.8389 123.441C71.3679 123.717 71.4139 124.591 71.3909 125.879C71.3679 128.685 71.3449 130.065 70.8619 131.974C69.7579 136.39 67.7109 139.472 67.2509 140.162C65.4339 142.83 63.6169 144.371 61.2709 146.372C58.8329 148.442 56.8089 150.144 53.6119 151.432C51.5189 152.26 49.8629 152.559 48.1149 152.881C45.2169 153.387 43.7219 153.64 42.2269 152.996C40.0879 152.076 38.6389 149.799 38.8919 149.454Z" fill="white"/>
<path d="M70.7475 123.119C68.2635 123.464 66.7915 125.787 65.4575 127.696C63.7555 130.134 62.1455 132.641 60.4895 135.102C58.8335 137.586 57.1085 140.024 55.1535 142.301C54.2105 143.382 53.2445 144.44 52.1865 145.406C51.0135 146.51 49.7255 147.775 48.1845 148.304C47.7705 148.442 47.9545 149.109 48.3685 148.971C50.7835 148.166 52.8305 145.866 54.5095 144.049C56.4415 141.956 58.1665 139.679 59.7995 137.333C61.4555 134.941 63.0425 132.48 64.6525 130.065C66.1705 127.811 67.9645 124.2 70.9315 123.786C71.3685 123.717 71.1845 123.073 70.7475 123.119Z" fill="black"/>
<path d="M48.9889 153.249C51.9329 152.973 54.4169 151.616 56.8779 150.052C59.3159 148.511 61.6389 146.74 63.7089 144.716C66.3769 142.14 68.6309 139.081 70.1259 135.654C71.5979 132.227 72.2879 128.478 71.8049 124.752C71.7589 124.315 71.0689 124.315 71.1149 124.752C71.8969 130.985 69.4129 137.172 65.4109 141.91C63.6169 144.026 61.5239 145.889 59.3159 147.545C56.2799 149.799 52.8299 152.214 48.9659 152.582C48.5519 152.605 48.5519 153.295 48.9889 153.249Z" fill="black"/>
<path d="M48.9891 152.536C47.6321 152.513 46.3211 152.835 44.9871 152.927C43.4461 153.042 42.1581 152.582 40.8931 151.731C40.3871 151.386 39.8351 150.972 39.5131 150.42C38.8461 149.247 40.2261 149.937 40.7091 150.075C41.4911 150.305 42.2041 150.213 42.8021 149.684C43.1471 149.385 42.6411 148.902 42.3191 149.201C41.2841 150.121 39.3521 148.074 38.6621 149.247C38.1331 150.144 39.3521 151.432 39.9501 151.915C40.9851 152.766 42.2501 153.456 43.6071 153.617C45.4011 153.824 47.1951 153.203 48.9891 153.249C49.4261 153.226 49.4261 152.536 48.9891 152.536Z" fill="black"/>
<path d="M42.8489 149.293C42.3889 147.752 41.3539 146.556 40.5259 145.199C40.4109 145.015 39.0309 142.508 39.4909 142.301C40.2959 141.933 41.4459 144.256 41.6069 144.716C41.7449 145.13 42.4119 144.946 42.2739 144.532C41.9059 143.474 41.2619 142.485 40.2959 141.841C39.7899 141.496 39.0539 141.243 38.8239 142.025C38.5249 143.083 39.3069 144.509 39.8359 145.383C40.6639 146.74 41.7449 147.913 42.2049 149.477C42.3199 149.914 42.9869 149.73 42.8489 149.293Z" fill="black"/>
<path d="M42.481 144.509C42.274 143.658 41.998 142.784 41.86 141.91C41.768 141.381 41.745 140.852 41.791 140.323C41.86 139.633 41.998 138.943 42.55 139.748C43.401 141.013 43.677 142.738 44.091 144.164C44.206 144.601 44.873 144.417 44.758 143.98C44.413 142.761 44.137 141.473 43.631 140.3C43.378 139.725 42.803 138.437 41.998 138.437C41.17 138.437 41.147 139.725 41.101 140.3C40.986 141.795 41.446 143.221 41.814 144.647C41.906 145.13 42.573 144.946 42.481 144.509Z" fill="black"/>
<path d="M44.0907 141.243C43.9757 140.76 43.7457 139.955 43.9297 139.472C44.2747 138.575 44.7807 140.185 44.9187 140.53C45.4247 141.749 45.7007 143.037 45.7697 144.348C45.7927 144.785 46.4827 144.785 46.4597 144.348C46.3677 143.083 46.1607 141.864 45.7237 140.691C45.4707 139.978 45.1027 138.713 44.4127 138.322C42.8487 137.425 43.2857 140.875 43.4007 141.45C43.5157 141.864 44.1827 141.68 44.0907 141.243Z" fill="black"/>
<path d="M46.4128 142.048C46.3898 141.818 46.2288 140.576 46.5048 140.346C47.2638 139.679 47.4708 140.898 47.5628 141.266C47.7238 142.048 47.7008 142.922 47.7698 143.727C47.8848 145.383 47.9998 147.016 48.1148 148.672C48.1378 149.109 48.8278 149.109 48.8048 148.672C48.6898 147.016 48.5748 145.383 48.4598 143.727C48.3908 142.577 48.4828 141.059 47.8848 140.024C47.5628 139.472 47.0108 138.966 46.3668 139.38C45.5388 139.932 45.6538 141.404 45.7688 142.232C45.8148 142.669 46.4818 142.485 46.4128 142.048Z" fill="black"/>
<path opacity="0.09" d="M71.0004 123.924C70.8854 123.924 70.9774 125.741 70.2644 128.271C69.7124 130.203 68.8154 132.043 65.9174 135.861C63.2494 139.38 61.3174 141.933 57.9594 144.923C54.2794 148.212 52.4394 149.845 49.9094 150.466C44.4354 151.823 39.3984 148.672 38.9154 149.73C38.6624 150.305 40.0424 151.455 40.5714 151.846C41.2384 152.329 42.5264 153.088 45.5624 153.134C48.8054 153.18 51.2894 152.398 51.8414 152.214C57.6834 150.282 61.5244 146.464 63.5714 144.348C66.2854 141.588 68.4934 139.334 69.9424 135.562C72.2654 129.697 71.2304 123.924 71.0004 123.924Z" fill="#3D3D3D"/>
<path opacity="0.13" d="M70.5402 132.802C70.3792 132.71 69.4132 134.32 68.0332 136.229C68.0332 136.229 64.7212 140.829 60.4432 144.739C58.0972 146.878 53.8192 150.19 47.0342 152.789C48.4372 152.881 50.5302 152.835 52.8532 152.053C53.5892 151.8 55.4292 151.11 59.8682 147.246C63.4102 144.164 65.3882 142.462 67.3662 139.472C69.5052 136.275 70.7702 132.917 70.5402 132.802Z" fill="#3D3D3D"/>
<path d="M73.4169 120.59C71.9679 121.096 71.0709 121.993 70.1279 122.936C67.5059 125.581 66.5629 128.571 65.8269 130.986C63.6189 138.254 62.4919 141.865 61.9859 145.039C61.3879 148.65 60.8819 153.434 61.0429 159.092C62.2389 159.92 63.9409 160.978 66.1029 161.898C68.5869 162.956 70.8179 163.899 73.6929 163.669C74.8429 163.577 76.8209 163.255 79.0289 161.898C79.1439 160.403 79.3969 158.08 80.0639 155.343C81.2139 150.49 82.4559 149.087 84.4799 143.061C86.0669 138.3 86.8489 135.862 86.7339 132.941C86.6419 130.894 86.4579 126.892 83.4449 123.764C81.1449 121.395 77.0279 119.325 73.4169 120.59Z" fill="white"/>
<path d="M72.3811 120.75C69.6211 122.406 67.9421 125.166 66.5621 127.995C65.0901 131.054 63.9861 134.274 63.1811 137.586C61.5021 144.486 61.0881 151.639 60.8121 158.723C60.7891 159.16 61.4791 159.16 61.5021 158.723C61.7551 151.961 62.1461 145.176 63.6641 138.552C64.4001 135.309 65.4121 132.112 66.8151 129.076C68.1721 126.109 69.8511 123.05 72.7261 121.348C73.0941 121.118 72.7491 120.52 72.3811 120.75Z" fill="black"/>
<path d="M81.2819 122.245C83.8809 124.269 85.6749 127.121 86.2499 130.364C86.8939 134.067 85.9969 137.839 84.7549 141.312C83.5589 144.67 81.9949 147.867 80.9139 151.271C79.8329 154.606 79.1659 158.079 78.8899 161.575C78.8439 162.012 79.5339 162.012 79.5799 161.575C79.9019 157.642 80.7299 153.755 82.0639 150.052C83.3289 146.51 85.0079 143.129 86.0889 139.518C87.0549 136.275 87.5609 132.756 86.7559 129.398C86.0429 126.362 84.2489 123.671 81.7879 121.785C81.4199 121.486 80.9369 121.969 81.2819 122.245Z" fill="black"/>
<path d="M60.9499 159.183C63.7329 161.667 67.1829 163.3 70.8859 163.829C73.8299 164.243 77.6249 164.266 79.5569 161.621C79.8099 161.253 79.2119 160.908 78.9589 161.276C77.0269 163.898 72.7489 163.553 69.9429 162.978C66.7689 162.334 63.8479 160.839 61.4329 158.7C61.1109 158.401 60.6279 158.884 60.9499 159.183Z" fill="black"/>
<path opacity="0.11" d="M76.3826 120.681C77.1646 122.038 74.2666 124.545 72.0356 128.455C70.6096 130.939 70.0576 133.101 68.9766 137.425C66.4466 147.545 66.9296 159.045 67.1366 162.38C65.1586 161.322 63.2036 160.287 61.2256 159.229C61.3176 156.975 61.5016 153.755 61.8696 149.891C62.4676 143.773 62.8126 140.438 63.9856 136.114C65.0206 132.365 66.0326 128.869 68.7926 125.12C70.5866 122.682 72.4956 121.003 73.8756 119.945C74.7496 119.899 75.9686 119.968 76.3826 120.681Z" fill="#3D3D3D"/>
<path opacity="0.15" d="M67.5975 127.627C67.8965 127.719 66.6775 132.526 64.7225 143.152C63.4345 150.121 63.1355 152.628 64.1705 155.733C65.5045 159.712 68.1955 162.127 67.6895 162.656C67.3675 162.978 65.9875 162.518 61.2265 158.953C61.1115 153.939 61.4335 147.016 63.4345 139.081C65.0215 132.802 67.2755 127.512 67.5975 127.627Z" fill="#3D3D3D"/>
<path d="M89.0566 111.205C90.1376 112.194 89.9996 114.126 89.7926 116.932C89.6546 118.887 89.5856 119.876 88.9186 120.819C87.5386 122.774 84.4106 123.671 81.9496 122.567C81.6506 122.429 80.1326 121.716 79.3046 119.991C78.1086 117.507 79.3506 115.023 79.6036 114.563C81.5356 110.952 87.1246 109.411 89.0566 111.205Z" fill="#5EDBC5"/>
<path d="M89.1021 98.4861C89.9761 98.6701 90.5051 99.8891 91.5631 102.35C92.4601 104.443 92.8741 106.145 93.0581 106.95C93.3571 108.353 93.5181 109.549 93.5871 110.446C92.9661 110.63 92.3451 110.791 91.7241 110.975C91.5861 111.78 91.2871 112.976 90.6891 114.31C89.8611 116.15 89.1711 117.737 87.5611 118.473C85.6981 119.324 83.6971 118.565 83.0301 118.243C82.7771 118.887 82.4091 119.623 81.9261 120.405C81.5811 120.957 81.2131 121.417 80.8911 121.808C78.7981 122.337 77.8321 121.785 77.4641 121.509C75.5321 120.083 75.6931 115.483 78.6601 110.285C78.4991 110.032 78.2461 109.664 77.9241 109.25C77.2571 108.422 77.0271 108.399 76.7281 107.916C76.6361 107.778 75.9231 106.559 76.4981 105.455C76.7741 104.926 77.3491 104.466 77.9931 104.42C78.7751 104.351 79.0281 104.972 79.6951 105.156C80.8451 105.501 82.1101 104.259 85.2611 101.292C87.9061 98.8081 88.4351 98.3481 89.1021 98.4861Z" fill="white"/>
<path d="M91.3089 102.258C92.3899 104.972 93.0799 107.801 93.3329 110.722C93.3559 111.044 93.8849 111.044 93.8619 110.722C93.6089 107.755 92.9189 104.88 91.8149 102.12C91.6999 101.798 91.1939 101.936 91.3089 102.258Z" fill="black"/>
<path d="M93.4717 110.492C92.8507 110.561 92.2297 110.653 91.6087 110.722C91.2867 110.768 91.2867 111.274 91.6087 111.251C92.2297 111.182 92.8507 111.09 93.4717 111.021C93.7937 110.952 93.7937 110.446 93.4717 110.492Z" fill="black"/>
<path d="M91.4698 110.952C91.0558 113.252 90.1128 115.483 88.5718 117.254C86.7318 119.416 83.8108 118.289 81.5568 117.369C81.2578 117.231 81.1198 117.737 81.4188 117.875C83.5348 118.749 86.5708 119.945 88.4798 118.105C90.3658 116.311 91.4927 113.62 91.9527 111.09C92.0217 110.768 91.5388 110.63 91.4698 110.952Z" fill="black"/>
<path d="M82.6854 118.358C82.2024 119.462 81.6044 120.497 80.9144 121.486C80.7304 121.762 81.1674 122.015 81.3514 121.739C82.0414 120.75 82.6394 119.692 83.1224 118.611C83.2604 118.312 82.8234 118.059 82.6854 118.358Z" fill="black"/>
<path d="M81.3739 117.944C81.7189 118.312 82.1099 118.634 82.5469 118.864C82.8459 119.025 83.0989 118.588 82.7999 118.427C82.3859 118.197 82.0409 117.921 81.7189 117.576C81.5119 117.323 81.1439 117.691 81.3739 117.944Z" fill="black"/>
<path d="M89.3778 106.007C89.2398 105.731 89.2628 105.386 89.4468 105.156C89.3088 105.11 89.1478 105.087 89.0098 105.041C89.0788 105.432 89.0788 105.8 89.0558 106.191C89.1478 106.099 89.2398 106.007 89.3088 105.938C89.3318 105.984 89.3548 106.03 89.4008 106.076C89.4698 105.754 88.9638 105.616 88.8948 105.938C88.8258 106.214 89.0098 106.467 89.3088 106.467C89.4698 106.467 89.5618 106.352 89.5618 106.214C89.6078 105.777 89.5848 105.363 89.5158 104.926C89.4928 104.742 89.1938 104.673 89.0788 104.811C88.7338 105.248 88.6648 105.8 88.9408 106.283C89.0788 106.559 89.5388 106.306 89.3778 106.007Z" fill="black"/>
<path d="M87.9975 102.902C88.3195 102.097 89.2395 101.867 89.9525 102.327C90.2285 102.511 90.4815 102.051 90.2055 101.89C89.1935 101.223 87.9515 101.66 87.4915 102.764C87.3765 103.086 87.8825 103.224 87.9975 102.902Z" fill="black"/>
<path d="M86.9397 107.042C86.8477 107.042 86.7327 107.042 86.6407 107.042C86.6177 106.996 86.6177 106.95 86.5947 106.904C86.6407 106.743 86.7097 106.697 86.8477 106.743C86.8707 106.766 86.9167 106.812 86.9397 106.835C86.9397 106.835 86.9397 106.835 86.9397 106.812C86.8707 106.697 86.7097 106.651 86.5947 106.72C86.4797 106.789 86.4337 106.95 86.5027 107.065C86.5947 107.18 86.7327 107.249 86.8707 107.226C87.0087 107.18 87.1237 107.065 87.1237 106.904C87.1237 106.559 86.6407 106.467 86.4797 106.743C86.4107 106.858 86.4567 107.019 86.5717 107.088C86.7097 107.203 86.8707 107.157 86.9397 107.042Z" fill="black"/>
<path d="M88.0898 108.1C88.0438 108.146 87.9748 108.215 87.9058 108.261C87.9058 108.261 87.9058 108.261 87.9288 108.261C87.8828 108.261 87.8368 108.261 87.7908 108.261C87.7908 108.261 87.7678 108.261 87.7678 108.238C87.7448 108.215 87.6988 108.169 87.6758 108.146V108.169C87.6758 108.1 87.6528 108.031 87.6528 107.962C87.6758 107.939 87.6988 107.916 87.7218 107.893C87.6068 107.985 87.5608 108.123 87.6298 108.238C87.6988 108.353 87.8828 108.422 87.9748 108.33C88.1358 108.215 88.2508 107.985 88.0668 107.824C87.9978 107.755 87.8828 107.709 87.7678 107.755C87.6528 107.778 87.6068 107.847 87.5608 107.962C87.5148 108.1 87.6068 108.238 87.7448 108.284C87.9058 108.33 88.0438 108.238 88.0898 108.1Z" fill="black"/>
<path d="M86.2728 108.123C86.2498 108.123 86.2498 108.123 86.2268 108.123C85.9048 108.123 85.8818 108.652 86.2268 108.652C86.2498 108.652 86.2498 108.652 86.2728 108.652C86.6178 108.652 86.6178 108.123 86.2728 108.123Z" fill="black"/>
<path d="M88.3426 111.527C88.7106 112.654 89.2856 113.666 90.4356 114.103C90.7346 114.218 90.8726 113.735 90.5736 113.597C89.6306 113.229 89.1476 112.286 88.8486 111.366C88.7336 111.067 88.2506 111.205 88.3426 111.527Z" fill="black"/>
<path d="M88.2745 111.803C88.4125 111.596 88.6425 111.481 88.9185 111.435C89.0565 111.412 89.1255 111.228 89.1025 111.113C89.0565 110.952 88.9185 110.906 88.7805 110.929C88.3895 110.975 88.0675 111.205 87.8375 111.527C87.6305 111.803 88.0675 112.079 88.2745 111.803Z" fill="black"/>
<path d="M78.4987 108.813C77.0957 109.319 76.3367 107.157 76.5897 106.145C76.7277 105.616 77.0957 104.995 77.6477 104.834C78.4067 104.604 79.0967 105.202 79.5797 105.662C79.8097 105.892 80.1777 105.524 79.9477 105.294C79.3267 104.696 78.5677 104.121 77.6477 104.305C76.8197 104.466 76.3137 105.248 76.1067 106.007C75.7387 107.41 76.8657 109.94 78.6367 109.319C78.9587 109.204 78.8207 108.698 78.4987 108.813Z" fill="black"/>
<path d="M87.2849 98.992C87.0089 99.314 86.5949 99.843 86.1119 100.533C84.3639 103.086 84.5249 104.121 83.3059 104.857C82.3629 105.432 80.9139 105.616 79.8099 105.156C78.9819 104.811 78.7519 104.282 78.0389 104.305C77.2569 104.328 76.5209 104.972 76.2219 105.731C75.8539 106.628 76.2219 107.456 76.4749 107.985C76.7049 108.468 77.0269 109.181 77.7169 109.342C78.1539 109.434 78.5449 109.273 78.7519 109.158C78.7289 109.411 78.6829 109.802 78.6599 110.285C78.5449 112.286 78.7749 113.666 78.8669 114.563C79.0969 116.725 79.3039 118.45 78.6599 120.083C77.6709 122.521 75.2099 123.602 74.3129 123.993C70.4949 125.672 66.9529 124.269 66.4699 124.062C65.7109 123.74 62.0769 122.245 61.1799 118.841C60.6279 116.794 61.2489 114.724 61.5019 113.85C61.6169 113.482 61.9159 112.562 62.5139 111.504C63.8249 109.158 65.7109 107.732 67.0219 106.927C67.4589 105.34 68.1949 103.063 69.4829 100.464C70.9319 97.52 71.7369 95.887 73.5769 94.369C76.4979 91.954 79.8099 91.655 80.8909 91.586C81.4429 91.54 84.1569 91.379 87.3769 92.69C89.6539 93.61 92.3219 94.714 93.4259 97.451C94.6909 100.648 92.8969 103.822 92.5519 104.42C92.4599 104.029 92.2759 103.431 91.8849 102.856C91.3099 102.005 90.6659 101.66 89.6999 100.993C89.0789 100.51 88.2509 99.889 87.2849 98.992Z" fill="#5EDBC5"/>
<path d="M77.8087 121.716C78.7977 122.291 79.9477 122.429 81.0517 122.061C81.4657 121.923 81.2817 121.256 80.8677 121.394C79.9477 121.693 79.0047 121.601 78.1537 121.118C77.7627 120.911 77.4177 121.509 77.8087 121.716Z" fill="black"/>
<path opacity="0.14" d="M76.7282 107.962C76.9122 108.491 77.3952 108.859 77.9242 108.928C78.4992 108.997 79.0742 108.721 79.3732 108.215C79.2582 108.974 79.1432 110.515 79.8562 112.217C80.8222 114.563 82.7082 115.667 83.5362 116.15C85.5602 117.3 87.4922 117.369 88.4352 117.346C88.2282 117.714 87.7682 118.312 86.9862 118.703C85.1232 119.623 83.1682 118.381 83.0532 118.312C82.5472 119.416 82.0182 120.221 81.6042 120.796C81.0292 121.578 80.7992 121.762 80.6382 121.831C79.5342 122.475 78.0852 121.808 77.6712 121.601C77.2112 122.038 76.5442 122.59 75.6702 123.119C74.9342 123.556 72.9562 124.706 70.2192 124.729C70.2192 124.729 66.5392 124.729 63.5722 122.245C62.4222 121.279 61.9392 120.428 61.8012 120.152C61.6862 119.922 61.2032 119.002 61.0882 117.507C60.8352 114.632 62.0772 112.194 62.7672 111.09C64.0092 109.112 65.5962 107.939 66.6082 107.318C66.5392 107.571 65.6882 111.136 67.5742 112.861C69.9432 115 75.3022 112.976 76.4752 109.894C76.7742 109.135 76.7742 108.422 76.7282 107.962Z" fill="#3D3D3D"/>
<path opacity="0.07" d="M79.5335 114.333C79.3495 114.425 79.7865 115.621 80.2005 116.472C80.8675 117.875 81.6955 118.91 82.2935 119.531C82.4545 119.117 82.6155 118.703 82.7765 118.312C83.3055 118.542 84.2945 118.864 85.5365 118.795C86.3645 118.749 87.0315 118.542 87.4915 118.358C83.9495 118.289 82.1555 117.208 81.1665 116.219C80.3615 115.414 79.7175 114.241 79.5335 114.333Z" fill="#3D3D3D"/>
<path d="M136.666 93.1041C136.344 92.9201 136.275 92.4831 136.229 92.1841C136.068 91.1031 136.873 90.2291 137.011 90.0451C137.862 89.1021 138.345 89.5851 139.15 88.7111C139.748 88.0671 139.702 87.5381 140.622 86.6871C141.22 86.1121 141.427 86.1811 141.473 86.2041C141.795 86.3421 141.519 87.0551 141.841 88.1591C142.117 89.0791 142.462 89.0791 142.577 89.8611C142.6 90.0681 142.761 91.1031 142.14 91.7011C141.864 91.9771 141.496 92.0461 140.737 92.1841C139.863 92.3451 139.748 92.2531 139.15 92.3681C137.701 92.6441 137.195 93.4031 136.666 93.1041Z" fill="white"/>
<path d="M136.597 92.138C133.124 95.726 129.651 99.337 126.178 102.925C125.741 103.431 125.718 104.19 126.109 104.696C126.546 105.248 127.328 105.386 127.949 104.995C131.514 100.855 135.056 96.692 138.621 92.552C137.954 92.414 137.287 92.276 136.597 92.138Z" fill="black"/>
<path d="M124.04 111.78C124.155 112.079 123.787 112.7 121.786 114.034C121.211 113.919 120.728 113.597 120.636 113.183C120.498 112.493 121.487 111.918 121.924 111.711C122.729 111.343 123.879 111.366 124.04 111.78Z" fill="black"/>
<path d="M83.5819 121.256C82.3399 121.532 80.1549 122.061 79.1429 123.855C78.4759 125.028 78.6139 126.27 78.6599 126.707C78.8899 128.662 80.2469 130.295 81.7879 131.008C83.6739 131.859 85.6289 131.215 86.6179 130.87C95.2199 127.903 99.5209 126.431 101.269 125.557C106.329 123.004 111.964 120.129 118.381 114.793C120.037 113.413 121.348 112.194 122.268 111.32C122.636 111.527 123.464 111.918 124.453 111.803C125.258 111.711 125.787 111.343 126.569 110.791C127.121 110.4 127.765 109.94 128.34 109.089C128.892 108.284 129.076 107.571 129.237 106.973C129.398 106.306 129.72 105.11 129.306 104.857C129.007 104.673 128.685 105.179 127.88 105.202C127.811 105.202 126.822 105.202 126.385 104.581C125.971 104.006 126.408 103.477 126.04 103.017C125.649 102.511 124.637 102.557 123.993 102.741C122.498 103.201 121.785 104.857 121.325 105.731C120.06 108.238 118.243 109.595 114.862 112.148C112.24 114.126 109.894 115.046 106.743 116.311C105.501 116.817 103.132 117.737 100.004 118.496C94.7369 119.738 90.5739 119.692 83.5819 121.256Z" fill="white"/>
<path d="M79.8105 123.625C82.1795 121.256 85.9055 121.164 89.0335 120.727C92.6905 120.221 96.3475 119.669 99.9355 118.818C106.306 117.346 112.631 114.885 117.622 110.561C118.933 109.411 120.152 108.146 121.164 106.697C122.084 105.386 123.832 101.522 125.994 103.362C126.339 103.638 126.822 103.155 126.477 102.879C125.649 102.166 124.545 102.12 123.579 102.603C122.222 103.293 121.601 104.811 120.796 106.03C118.703 109.204 115.529 111.642 112.263 113.505C105.386 117.415 97.4745 118.818 89.7465 119.945C86.2505 120.451 82.0185 120.497 79.3505 123.142C79.0055 123.441 79.4885 123.924 79.8105 123.625Z" fill="black"/>
<path d="M79.3042 122.797C77.7632 125.419 78.0622 128.892 80.6382 130.755C83.7202 132.986 88.0442 130.87 91.1952 129.789C98.6242 127.213 105.708 123.717 112.286 119.393C115.943 117.001 119.416 114.333 122.705 111.458C123.05 111.159 122.544 110.676 122.222 110.975C111.895 119.991 99.3602 127.121 86.0662 130.686C83.7892 131.307 81.4202 131.169 79.9482 129.099C78.6602 127.328 78.8212 124.982 79.9022 123.165C80.1322 122.774 79.5342 122.429 79.3042 122.797Z" fill="black"/>
<path d="M128.87 104.374C128.985 104.903 129.1 105.478 129.054 106.03C128.962 106.789 128.594 107.042 128.318 107.663C128.203 107.939 128.18 108.215 128.088 108.491C127.904 109.112 127.651 109.25 127.214 109.618C126.731 110.009 126.455 110.469 126.041 110.906C125.374 111.619 124.983 111.389 124.155 111.297C123.557 111.228 122.936 111.136 122.338 111.067C121.901 111.021 121.901 111.711 122.338 111.757C123.327 111.895 125.006 112.47 125.926 111.987C126.294 111.803 126.501 111.458 126.731 111.136C127.03 110.722 127.306 110.377 127.766 110.147C127.996 110.032 128.111 110.124 128.318 109.94C128.571 109.733 128.64 109.388 128.709 109.089C128.87 108.353 129.1 107.87 129.422 107.226C129.905 106.283 129.744 105.225 129.537 104.236C129.445 103.753 128.778 103.937 128.87 104.374Z" fill="black"/>
<path d="M126.041 103.086C125.512 103.868 125.926 104.995 126.754 105.363C127.72 105.8 128.801 105.156 129.284 104.305C129.514 103.914 128.916 103.569 128.686 103.96C128.387 104.489 127.766 104.972 127.145 104.765C126.593 104.604 126.294 103.914 126.639 103.431C126.869 103.063 126.271 102.718 126.041 103.086Z" fill="black"/>
<path d="M126.477 103.408C129.95 99.7969 133.377 96.1399 136.758 92.4369C137.057 92.1149 136.574 91.6089 136.275 91.9539C132.894 95.6569 129.467 99.3139 125.994 102.925C125.672 103.224 126.155 103.73 126.477 103.408Z" fill="black"/>
<path d="M129.261 104.144C132.573 100.326 135.862 96.5081 139.174 92.6901C139.473 92.3451 138.967 91.8621 138.691 92.2071C135.379 96.0251 132.09 99.8431 128.778 103.661C128.479 104.006 128.962 104.489 129.261 104.144Z" fill="black"/>
<path d="M123.764 111.688C123.327 112.125 122.89 112.585 122.453 113.022C122.315 113.16 122.108 113.459 121.947 113.551C121.372 113.85 121.073 113.275 120.866 112.907C120.636 112.516 120.038 112.861 120.268 113.252C120.613 113.827 121.188 114.563 121.947 114.333C122.361 114.218 122.66 113.804 122.936 113.505C123.373 113.068 123.81 112.608 124.247 112.171C124.569 111.849 124.063 111.366 123.764 111.688Z" fill="black"/>
<path d="M138.989 92.5981C140.369 93.2191 142.048 92.8511 142.761 91.4251C143.106 90.7351 143.129 89.9071 142.876 89.1941C142.439 88.0441 140.852 87.0321 142.255 85.8361C142.6 85.5371 142.094 85.0541 141.772 85.3531C140.967 86.0431 140.737 87.1011 141.266 88.0211C141.772 88.9181 142.577 89.4241 142.324 90.5971C142.048 91.9771 140.576 92.5521 139.357 92.0001C138.92 91.8161 138.575 92.4141 138.989 92.5981Z" fill="black"/>
<path d="M136.713 91.8391C136.851 90.8271 137.219 90.1601 138.116 89.6541C138.576 89.4011 139.059 89.1941 139.473 88.8721C140.324 88.1821 140.577 86.9171 141.589 86.4111C141.98 86.2041 141.635 85.6291 141.244 85.8131C140.669 86.0891 140.324 86.5261 140.002 87.0781C139.496 87.8831 139.036 88.4121 138.185 88.8491C136.805 89.5621 136.23 90.2751 136.023 91.8391C135.977 92.2761 136.667 92.2761 136.713 91.8391Z" fill="black"/>
<path d="M136.596 92.506C137.24 92.253 137.907 92.345 138.459 92.759C138.804 93.035 139.149 92.437 138.804 92.161C138.114 91.632 137.194 91.517 136.389 91.839C135.998 92 136.182 92.667 136.596 92.506Z" fill="black"/>
<path d="M138.874 89.3321C139.771 89.0331 140.691 89.0101 141.611 89.2401C142.048 89.3551 142.232 88.6881 141.795 88.5731C140.76 88.3201 139.702 88.3431 138.69 88.6651C138.276 88.8031 138.46 89.4701 138.874 89.3321Z" fill="#5EDBC5"/>
<path d="M138.483 89.332C140.162 88.619 140.668 86.664 142.232 85.79C142.094 85.606 141.956 85.422 141.818 85.238C140.622 86.319 141.68 87.791 141.979 88.987C142.14 88.849 142.324 88.734 142.485 88.596C141.611 88.228 140.737 88.067 139.794 88.136C139.886 88.32 140.001 88.481 140.093 88.665C140.415 88.044 140.806 87.492 141.243 86.94C141.059 86.825 140.852 86.71 140.668 86.595C140.484 87.078 140.254 87.676 140.346 88.182C140.369 88.32 140.53 88.435 140.668 88.435C141.22 88.412 141.358 87.653 141.542 87.239C141.335 87.17 141.105 87.124 140.898 87.055C140.944 87.4 141.059 87.814 141.013 88.182C141.059 88.09 141.128 87.975 141.174 87.883C141.013 87.975 140.392 87.906 140.116 87.975C139.656 88.067 139.265 88.228 138.851 88.458C138.552 88.619 138.69 89.125 139.035 89.102C139.61 89.056 140.185 88.987 140.76 88.941C141.197 88.895 141.197 88.205 140.76 88.251C140.185 88.297 139.61 88.366 139.035 88.412C139.104 88.619 139.15 88.849 139.219 89.056C139.702 88.803 140.231 88.619 140.783 88.596C140.99 88.573 141.312 88.665 141.496 88.527C141.91 88.228 141.634 87.515 141.588 87.078C141.542 86.779 141.105 86.549 140.944 86.894C140.921 86.963 140.553 87.745 140.668 87.745C140.783 87.837 140.898 87.906 140.99 87.998C140.921 87.653 141.197 87.078 141.312 86.779C141.427 86.457 140.944 86.181 140.737 86.434C140.254 87.009 139.84 87.63 139.472 88.297C139.357 88.504 139.495 88.849 139.771 88.826C140.599 88.757 141.358 88.872 142.117 89.194C142.393 89.309 142.715 89.125 142.623 88.803C142.393 87.883 141.381 86.526 142.278 85.721C142.577 85.445 142.186 84.985 141.864 85.169C140.323 86.043 139.771 87.998 138.115 88.711C137.724 88.918 138.092 89.493 138.483 89.332Z" fill="#5EDBC5"/>
<path d="M141.841 85.0771C140.875 85.6751 140.277 86.5721 139.564 87.4231C139.127 87.9521 138.644 88.2741 138.161 88.7341C137.977 88.8951 137.816 88.9871 137.816 89.2401C137.816 89.2861 137.839 89.3551 137.908 89.3781C139.357 89.9991 140.967 88.3431 142.393 89.5161C142.485 89.5851 142.6 89.5851 142.669 89.4701C143.083 88.8721 142.163 88.2971 141.818 87.9291C141.703 87.8141 141.473 87.9291 141.519 88.0901C141.588 88.3201 141.565 88.2971 141.726 88.4811C141.864 88.6651 142.163 88.4811 142.025 88.2971C141.979 88.1821 141.91 88.0901 141.864 87.9751C141.772 88.0211 141.68 88.0901 141.565 88.1361C141.726 88.2971 142.577 88.9641 142.37 89.2631C142.462 89.2401 142.554 89.2401 142.646 89.2171C142.163 88.8261 141.611 88.6421 140.967 88.6651C140.599 88.6881 140.231 88.7571 139.863 88.8261C139.564 88.8951 139.288 88.9641 138.989 88.9871C138.667 89.0331 138.276 89.2171 138.529 88.7801C138.667 88.5501 139.081 88.3431 139.265 88.1591C139.541 87.8831 139.794 87.5841 140.024 87.2621C140.622 86.5261 141.174 85.7901 141.979 85.2841C142.209 85.2611 142.025 84.9621 141.841 85.0771Z" fill="#5EDBC5"/>
<path d="M138.299 89.493C138.989 89.585 139.656 89.355 140.346 89.263C140.921 89.194 141.381 89.286 141.91 89.47C142.209 89.585 142.393 89.654 142.715 89.608C142.83 89.585 142.899 89.516 142.876 89.401C142.83 89.102 142.761 88.941 142.6 88.688C142.485 88.504 142.186 88.688 142.301 88.872C142.462 89.056 142.531 89.263 142.554 89.493C142.6 89.424 142.669 89.355 142.715 89.286C142.071 89.355 141.427 88.895 140.76 88.895C139.978 88.918 139.173 89.286 138.391 89.171C138.161 89.125 138.069 89.447 138.299 89.493Z" fill="#5EDBC5"/>
<path d="M141.565 85.675C141.68 85.514 141.818 85.376 142.002 85.284C142.048 85.261 142.209 85.146 142.255 85.192C142.324 85.238 142.14 85.376 142.094 85.399C141.818 85.629 141.634 85.928 141.496 86.25C141.404 86.457 141.749 86.549 141.818 86.342C141.956 86.02 142.186 85.813 142.439 85.56C142.6 85.422 142.692 85.215 142.531 85.008C142.186 84.548 141.519 85.146 141.289 85.445C141.174 85.606 141.427 85.859 141.565 85.675Z" fill="#5EDBC5"/>
<path d="M142.348 84.9161C141.957 85.1691 141.681 85.5601 141.566 86.0201C141.52 86.2271 141.842 86.3191 141.888 86.1121C141.98 85.7441 142.187 85.4451 142.509 85.2151C142.716 85.0771 142.532 84.7781 142.348 84.9161Z" fill="#5EDBC5"/>
<path d="M79.58 123.579C80.316 122.13 82.984 121.578 84.456 121.394C84.893 121.325 84.709 120.658 84.272 120.727C82.616 120.957 79.833 121.601 78.982 123.234C78.798 123.625 79.396 123.993 79.58 123.579Z" fill="black"/>
<path opacity="0.13" d="M78.7979 126.914C80.8679 126.776 83.8809 126.5 87.4459 125.81C97.6579 123.855 104.926 120.06 109.365 117.714C113.045 115.759 117.921 112.838 123.28 108.629C125.626 107.87 127.075 106.835 127.995 106.007C128.616 105.455 129.076 104.903 129.306 105.018C129.674 105.225 129.099 107.134 128.317 108.514C127.627 109.756 126.822 110.469 126.569 110.699C125.925 111.251 125.557 111.642 124.936 111.803C123.786 112.102 122.751 111.481 122.406 111.251C121.555 111.918 120.313 112.907 118.772 114.08C112.562 118.795 109.434 121.164 105.317 123.418C101.522 125.488 98.3479 126.73 92.1609 129.122C91.5859 129.352 90.8268 129.605 89.3088 130.111C85.2608 131.468 84.2949 131.629 83.1679 131.422C82.7079 131.33 81.5809 131.123 80.5459 130.226C79.1889 129.007 78.8899 127.443 78.7979 126.914Z" fill="#3D3D3D"/>
<path opacity="0.19" d="M97.0371 127.075C96.9911 127.006 97.3821 126.684 106.007 121.21C117.369 113.988 116.564 114.632 117.76 113.758C122.728 110.078 124.936 107.594 126.086 108.33C126.868 108.836 127.006 110.676 126.155 111.481C125.419 112.194 123.878 112.125 122.498 111.113C119.715 113.597 115.575 116.978 110.124 120.405C103.684 124.384 97.1981 127.351 97.0371 127.075Z" fill="#3D3D3D"/>
</svg>
