<svg width="394" height="352" viewBox="0 0 394 352" fill="none" xmlns="http://www.w3.org/2000/svg">
<path fill-rule="evenodd" clip-rule="evenodd" d="M218.16 22.3831C262.809 22.0929 312.562 -17.2848 346.824 11.3014C380.811 39.6586 386.863 88.9719 392.857 132.787C397.813 169.012 376.552 219.179 363.887 253.483C351.601 286.762 331.343 317.813 300.867 336.038C271.822 353.407 236.348 354.038 202.754 349.841C172.419 346.051 145.391 331.959 120.994 313.565C97.0142 295.485 80.7751 271.412 64.9243 245.923C43.5524 211.557 -1.00938 169.32 0.715087 128.904C2.61212 84.4447 4.96839 54.5583 54.1715 30.5676C93.9819 11.1566 173.848 22.671 218.16 22.3831Z" fill="#E4524C"/>
</svg>
