<svg width="189" height="24" viewBox="0 0 189 24" fill="none" xmlns="http://www.w3.org/2000/svg">
<path fill-rule="evenodd" clip-rule="evenodd" d="M4.50547 8.68896H8.03453C9.92914 8.68896 10.6425 9.64802 10.5324 11.0594C10.3508 13.386 8.94403 14.6726 7.07821 14.6726H6.13619C5.88051 14.6726 5.70845 14.8417 5.63886 15.301L5.23471 17.9683C5.20847 18.1416 5.11739 18.2433 4.98039 18.2556H2.76753C2.55931 18.2556 2.48525 18.0963 2.53972 17.7513L3.89108 9.19513C3.94528 8.85219 4.13283 8.68896 4.50547 8.68896Z" fill="white" fill-opacity="0.38"/>
<path fill-rule="evenodd" clip-rule="evenodd" d="M19.8258 8.53125C21.0167 8.53125 22.1151 9.17687 21.9647 10.7869C21.7864 12.6956 20.7578 13.7584 19.14 13.7628H17.7287C17.5252 13.7628 17.4275 13.9281 17.374 14.2687L17.1017 16.0058C17.0606 16.2681 16.9262 16.3976 16.7269 16.3976H15.4126C15.203 16.3976 15.1299 16.2636 15.1766 15.9641L16.2631 9.00098C16.3165 8.65859 16.4476 8.53125 16.6797 8.53125H19.8258ZM17.6849 12.2585L18.7555 12.2587C19.4247 12.2335 19.8699 11.7699 19.9146 10.9336C19.9422 10.417 19.5935 10.0476 19.0382 10.0501L18.0303 10.0547L17.6849 12.2585ZM25.5376 15.8638C25.6576 15.7549 25.7801 15.6979 25.7624 15.8326L25.7197 16.1552C25.6975 16.3234 25.7645 16.4133 25.9214 16.4133H27.0891C27.2854 16.4133 27.3814 16.3337 27.4299 16.0297L28.1495 11.5134C28.1856 11.2865 28.1307 11.1752 27.9583 11.1752H26.6746C26.5587 11.1752 26.5027 11.2403 26.4724 11.4171L26.4248 11.6951C26.3999 11.8402 26.3336 11.8653 26.2718 11.7193C26.0538 11.2034 25.4982 10.9721 24.7192 10.9881C22.918 11.0251 21.7038 12.3924 21.5739 14.145C21.4735 15.5008 22.4452 16.5654 23.7253 16.5653C24.6541 16.5653 25.0697 16.2884 25.5376 15.8638ZM24.5605 15.17C23.7852 15.17 23.2448 14.5517 23.3576 13.7936C23.4704 13.0355 24.1947 12.4172 24.9699 12.4172C25.7452 12.4172 26.2856 13.0355 26.1728 13.7936C26.06 14.5517 25.3358 15.17 24.5605 15.17ZM30.4359 11.1607H29.2563C29.0118 11.1607 28.9124 11.3396 28.9901 11.5672L30.4601 15.8723L29.0115 17.9199C28.8907 18.0908 28.9838 18.2471 29.1544 18.2471H30.4855C30.6842 18.2471 30.7811 18.1965 30.8811 18.0529L35.4023 11.5672C35.5415 11.3673 35.4759 11.1583 35.2476 11.1581L33.9892 11.1568C33.7733 11.1566 33.6865 11.2421 33.5626 11.4219L31.6767 14.158L30.8377 11.4172C30.7861 11.2481 30.6628 11.1607 30.4359 11.1607Z" fill="white" fill-opacity="0.38"/>
<path fill-rule="evenodd" clip-rule="evenodd" d="M40.1079 8.53125C41.2988 8.53125 42.3972 9.17687 42.2469 10.7869C42.0686 12.6956 41.04 13.7584 39.4222 13.7628H38.0109C37.8074 13.7628 37.7096 13.9281 37.6563 14.2687L37.3839 16.0058C37.3429 16.2681 37.2085 16.3976 37.0092 16.3976H35.6949C35.4852 16.3976 35.4122 16.2636 35.4588 15.9641L36.5453 9.00098C36.5987 8.65859 36.7297 8.53125 36.9619 8.53125H40.1079ZM37.967 12.2585L39.0376 12.2587C39.7069 12.2335 40.152 11.7699 40.1967 10.9336C40.2243 10.417 39.8755 10.0476 39.3203 10.0501L38.3124 10.0547L37.967 12.2585ZM45.8197 15.8638C45.9397 15.7549 46.0623 15.6979 46.0445 15.8326L46.0017 16.1552C45.9795 16.3234 46.0465 16.4133 46.2034 16.4133H47.3711C47.5674 16.4133 47.6634 16.3337 47.7119 16.0297L48.4315 11.5134C48.4676 11.2865 48.4127 11.1752 48.2404 11.1752H46.9567C46.8408 11.1752 46.7848 11.2403 46.7545 11.4171L46.7069 11.6951C46.682 11.8402 46.6156 11.8653 46.5539 11.7193C46.3359 11.2034 45.7804 10.9721 45.0012 10.9881C43.2001 11.0251 41.9859 12.3924 41.856 14.145C41.7556 15.5008 42.7273 16.5654 44.0074 16.5653C44.9363 16.5653 45.3518 16.2884 45.8197 15.8638ZM44.8426 15.17C44.0673 15.17 43.5269 14.5517 43.6397 13.7936C43.7524 13.0355 44.4768 12.4172 45.252 12.4172C46.0272 12.4172 46.5677 13.0355 46.4548 13.7936C46.3421 14.5517 45.6179 15.17 44.8426 15.17ZM50.2285 16.4215H48.8808C48.7738 16.4215 48.6994 16.3376 48.7156 16.235L49.9008 8.73355C49.917 8.63099 50.0179 8.5471 50.125 8.5471H51.4726C51.5797 8.5471 51.654 8.63099 51.6378 8.73355L50.4526 16.235C50.4365 16.3376 50.3357 16.4215 50.2285 16.4215Z" fill="white" fill-opacity="0.38"/>
<path fill-rule="evenodd" clip-rule="evenodd" d="M2.29939 5.74463H5.83201C6.82695 5.74463 8.00698 5.77696 8.79643 6.47314C9.32373 6.93823 9.60045 7.67922 9.5366 8.47468C9.32 11.1721 7.70649 12.683 5.54281 12.683H3.8005C3.50393 12.683 3.30736 12.8795 3.22374 13.4117L2.73752 16.5044C2.70601 16.7051 2.61902 16.8233 2.46025 16.8376H0.28419C0.0427185 16.8376 -0.0431758 16.6529 0.0200385 16.2529L1.587 6.3315C1.64976 5.934 1.86728 5.74463 2.29939 5.74463Z" fill="white" fill-opacity="0.38"/>
<path fill-rule="evenodd" clip-rule="evenodd" d="M3.27441 13.0997L3.89134 9.19504C3.94545 8.85219 4.13309 8.68896 4.50573 8.68896H8.03479C8.61902 8.68896 9.09094 8.78014 9.46094 8.94829C9.10633 11.3489 7.55367 12.6828 5.52025 12.6828H3.77794C3.54868 12.6828 3.37734 12.8 3.27441 13.0997Z" fill="white" fill-opacity="0.38"/>
<path d="M84.0771 7.1318V10.6157H86.2258C86.7374 10.6157 87.1607 10.4436 87.4956 10.0999C87.8398 9.75657 88.0114 9.34704 88.0114 8.87336C88.0114 8.40923 87.8398 8.00468 87.4956 7.66058C87.1606 7.3077 86.7374 7.13102 86.2258 7.13102H84.0771V7.1318ZM84.0771 11.8423V15.8837H82.7939V5.90527H86.1983C87.0632 5.90527 87.7965 6.1936 88.4014 6.76937C89.0164 7.34514 89.323 8.0468 89.323 8.87336C89.323 9.71912 89.0164 10.4254 88.4014 10.9916C87.8064 11.5587 87.0715 11.8415 86.1983 11.8415H84.0771V11.8423Z" fill="white" fill-opacity="0.38"/>
<path d="M90.6198 13.7929C90.6198 14.128 90.7615 14.4063 91.0456 14.6295C91.3298 14.8521 91.6614 14.9637 92.043 14.9637C92.583 14.9637 93.0629 14.7637 93.4863 14.3645C93.9096 13.9645 94.1213 13.4962 94.1213 12.9579C93.7214 12.6413 93.163 12.4838 92.4473 12.4838C91.9265 12.4838 91.4915 12.6096 91.1432 12.8604C90.7948 13.1113 90.6198 13.4213 90.6198 13.7929ZM92.2805 8.83203C93.2296 8.83203 93.9778 9.08486 94.527 9.59151C95.0762 10.0981 95.3495 10.7923 95.3495 11.6747V15.8837H94.1221V14.9362H94.0663C93.5362 15.7162 92.8296 16.1061 91.9464 16.1061C91.1932 16.1061 90.5615 15.8837 90.0557 15.4378C89.5482 14.9911 89.2949 14.4345 89.2949 13.7646C89.2949 13.0588 89.5616 12.4972 90.0965 12.0793C90.6314 11.6614 91.3457 11.4518 92.238 11.4518C93.0004 11.4518 93.6288 11.5914 94.1212 11.8696V11.5767C94.1212 11.1309 93.9445 10.7527 93.5912 10.4414C93.2371 10.1297 92.8246 9.9747 92.3497 9.9747C91.633 9.9747 91.0664 10.2764 90.6481 10.8808L89.5173 10.1696C90.1415 9.27783 91.0614 8.83203 92.2805 8.83203Z" fill="white" fill-opacity="0.38"/>
<path d="M102.395 9.05518L98.1109 18.8935H96.7861L98.3768 15.4514L95.5586 9.05518H96.9544L98.9909 13.9606H99.0184L100.999 9.05518H102.395Z" fill="white" fill-opacity="0.38"/>
<path d="M78.8906 10.9713C78.8906 10.5676 78.8565 10.178 78.7919 9.80518H73.3789V12.0133H76.4791C76.3462 12.7332 75.9437 13.3456 75.3329 13.7557L77.1832 15.1897C78.2666 14.1915 78.8906 12.7158 78.8906 10.9713Z" fill="white" fill-opacity="0.38"/>
<path d="M73.3794 16.5742C74.9285 16.5742 76.2325 16.0659 77.1837 15.1893L75.3334 13.7553C74.8185 14.1019 74.1552 14.3045 73.3794 14.3045C71.8824 14.3045 70.6117 13.2962 70.1571 11.9375L68.251 13.4144C69.1955 15.2877 71.1371 16.5742 73.3794 16.5742Z" fill="white" fill-opacity="0.38"/>
<path d="M70.1571 11.9375C70.0408 11.5913 69.9771 11.2217 69.9771 10.8401C69.9771 10.4588 70.0407 10.0893 70.1571 9.74265L68.2509 8.26562C67.8605 9.03973 67.6396 9.91387 67.6396 10.8401C67.6396 11.7663 67.8605 12.6412 68.2509 13.4144L70.1571 11.9375Z" fill="white" fill-opacity="0.38"/>
<path d="M73.3794 7.37639C74.2252 7.37639 74.9835 7.66676 75.5814 8.23629V8.23708L77.2196 6.60053C76.2246 5.6752 74.9276 5.10693 73.3794 5.10693C71.1371 5.10693 69.1955 6.39265 68.251 8.26584L70.1571 9.74286C70.6117 8.38421 71.8824 7.37639 73.3794 7.37639Z" fill="white" fill-opacity="0.38"/>
<g clip-path="url(#clip0_325_571)">
<path d="M125.995 4.3999C121.807 4.3999 118.395 7.81226 118.395 11.9999C118.395 16.1875 121.807 19.5999 125.995 19.5999C127.87 19.5999 129.586 18.9114 130.913 17.7796C132.111 18.6683 133.589 19.1999 135.195 19.1999C139.171 19.1999 142.395 15.9767 142.395 11.9999C142.395 8.0231 139.171 4.7999 135.195 4.7999C133.589 4.7999 132.111 5.33155 130.913 6.22021C129.586 5.08839 127.87 4.3999 125.995 4.3999ZM125.995 5.9999C127.414 5.9999 128.713 6.49087 129.738 7.30928C128.654 8.56971 127.995 10.2064 127.995 11.9999C127.995 13.7935 128.654 15.4301 129.738 16.6905C128.713 17.5089 127.414 17.9999 125.995 17.9999C122.672 17.9999 119.995 15.3227 119.995 11.9999C119.995 8.67714 122.672 5.9999 125.995 5.9999Z" fill="white" fill-opacity="0.38"/>
</g>
<path d="M177.974 7.12598C175.385 7.12598 174.025 8.40224 174.025 10.0251C174.025 12.9558 177.47 12.5514 177.47 14.0587C177.47 14.3161 177.255 14.8991 175.832 14.8991C174.408 14.8991 173.479 14.3949 173.479 14.3949L173.058 16.3277C173.058 16.3277 173.941 16.8739 175.705 16.8739C177.47 16.8739 179.949 15.5188 179.949 13.5545C179.949 11.1911 176.504 11.0335 176.504 9.98312C176.504 9.4474 176.961 9.01673 178.184 9.01673C178.983 9.01673 179.865 9.64698 179.865 9.64698L180.285 7.58816C180.285 7.58816 179.114 7.12598 177.974 7.12598ZM166.924 7.29404L164.655 13.9327C164.655 13.9327 164.539 13.3602 164.487 13.0083C163.205 10.1302 161.126 9.05875 161.126 9.05875L163.1 16.5798H165.789L169.571 7.29404H166.924ZM170.537 7.29404L169.067 16.5798H171.546L173.016 7.29404H170.537ZM183.899 7.29404L179.865 16.5798H182.302L182.806 15.2772H185.916L186.168 16.5798H188.395L186.504 7.29404H183.899ZM158.395 7.33606C158.395 7.33606 163.232 8.81715 164.361 12.4621L163.521 8.26043C163.521 8.26043 163.153 7.33606 162.176 7.33606H158.395ZM184.823 9.98312L185.537 13.4705H183.521L184.823 9.98312Z" fill="white" fill-opacity="0.38"/>
<defs>
<clipPath id="clip0_325_571">
<rect width="24" height="24" fill="white" transform="translate(118.395)"/>
</clipPath>
</defs>
</svg>
