<svg width="32" height="28" viewBox="0 0 32 28" fill="none" xmlns="http://www.w3.org/2000/svg">
<path d="M24.5 5H15.5C14.12 5 13 6.12 13 7.5V24.5C13 25.88 14.12 27 15.5 27H24.5C25.88 27 27 25.88 27 24.5V7.5C27 6.12 25.88 5 24.5 5ZM20 25.125C19.378 25.125 18.875 24.622 18.875 24C18.875 23.378 19.378 22.875 20 22.875C20.622 22.875 21.125 23.378 21.125 24C21.125 24.622 20.622 25.125 20 25.125ZM25 22H15V8H25V22Z" fill="#40C9B1"/>
<rect x="6" y="2" width="18" height="24" rx="3" fill="#F5F5F5"/>
<path d="M20.5 3H11.5C10.12 3 9 4.12 9 5.5V22.5C9 23.88 10.12 25 11.5 25H20.5C21.88 25 23 23.88 23 22.5V5.5C23 4.12 21.88 3 20.5 3ZM16 23.125C15.378 23.125 14.875 22.622 14.875 22C14.875 21.378 15.378 20.875 16 20.875C16.622 20.875 17.125 21.378 17.125 22C17.125 22.622 16.622 23.125 16 23.125ZM21 20H11V6H21V20Z" fill="#40C9B1"/>
<rect x="4" width="16" height="24" rx="3" fill="#F5F5F5"/>
<path d="M16.5 1H7.5C6.12 1 5 2.12 5 3.5V20.5C5 21.88 6.12 23 7.5 23H16.5C17.88 23 19 21.88 19 20.5V3.5C19 2.12 17.88 1 16.5 1ZM12 21.125C11.378 21.125 10.875 20.622 10.875 20C10.875 19.378 11.378 18.875 12 18.875C12.622 18.875 13.125 19.378 13.125 20C13.125 20.622 12.622 21.125 12 21.125ZM17 18H7V4H17V18Z" fill="#40C9B1"/>
</svg>
