<svg width="1398" height="1296" viewBox="0 0 1398 1296" fill="none" xmlns="http://www.w3.org/2000/svg">
<path opacity="0.3" d="M1003.45 620.592L835.332 680.732L909.595 611.402L1003.45 620.592Z" stroke="#DD433D" stroke-miterlimit="10"/>
<path opacity="0.3" d="M843.192 557.498L835.332 680.732L909.595 611.402L843.192 557.498Z" stroke="#DD433D" stroke-miterlimit="10"/>
<path opacity="0.3" d="M874.503 627.868L831.984 832.309L934.384 655.94L874.503 627.868Z" stroke="#DD433D" stroke-miterlimit="10"/>
<path opacity="0.3" d="M835.332 680.733L843.192 557.498L794.663 672.851L835.332 680.733Z" stroke="#DD433D" stroke-miterlimit="10"/>
<path opacity="0.3" d="M835.332 680.732L801.782 769.573L794.663 672.851L835.332 680.732Z" stroke="#DD433D" stroke-miterlimit="10"/>
<path opacity="0.3" d="M835.332 680.733L801.782 769.574L909.168 792.75L835.332 680.733Z" stroke="#DD433D" stroke-miterlimit="10"/>
<path opacity="0.3" d="M632.676 650.268L843.192 557.498L794.663 672.851L632.676 650.268Z" stroke="#DD433D" stroke-miterlimit="10"/>
<path opacity="0.3" d="M794.663 672.851L632.676 650.268L783.702 693.655L794.663 672.851Z" stroke="#DD433D" stroke-miterlimit="10"/>
<path opacity="0.3" d="M794.663 672.851L632.676 650.268L672.306 544.711L794.663 672.851Z" stroke="#DD433D" stroke-miterlimit="10"/>
<path opacity="0.3" d="M546.183 517.222L632.676 650.268L672.306 544.711L546.183 517.222Z" stroke="#DD433D" stroke-miterlimit="10"/>
<path opacity="0.3" d="M672.306 544.711L700.101 584.77L632.676 650.268" stroke="#DD433D" stroke-miterlimit="10"/>
<path opacity="0.3" d="M546.183 517.222L672.306 544.711L637.886 446.106L546.183 517.222Z" stroke="#DD433D" stroke-miterlimit="10"/>
<path opacity="0.3" d="M546.183 517.222L579.887 450.302L637.886 446.106L546.183 517.222Z" stroke="#DD433D" stroke-miterlimit="10"/>
<path opacity="0.3" d="M748.976 446.969L672.306 544.711L637.886 446.106L748.976 446.969Z" stroke="#DD433D" stroke-miterlimit="10"/>
<path opacity="0.3" d="M748.976 446.969L656.491 408.194L637.886 446.106L748.976 446.969Z" stroke="#DD433D" stroke-miterlimit="10"/>
<path opacity="0.3" d="M715.115 589.555L672.306 544.711L637.886 446.106L715.115 589.555Z" stroke="#DD433D" stroke-miterlimit="10"/>
<path opacity="0.3" d="M794.663 672.851L779.207 789.329L686.059 745.387L794.663 672.851Z" stroke="#DD433D" stroke-miterlimit="10"/>
<path opacity="0.3" d="M794.663 672.851L818.142 818.229L745.074 703.324L794.663 672.851Z" stroke="#DD433D" stroke-miterlimit="10"/>
<path opacity="0.3" d="M909.595 611.402L1003.45 620.593L843.192 557.498L909.595 611.402Z" stroke="#DD433D" stroke-miterlimit="10"/>
<path opacity="0.3" d="M625.088 511.806L872.322 590.285L874.503 627.868L625.088 511.806Z" stroke="#DD433D" stroke-miterlimit="10"/>
<path opacity="0.3" d="M923.288 675.058L810.273 691.935L716.69 575.457L923.288 675.058Z" stroke="#DD433D" stroke-miterlimit="10"/>
<path opacity="0.3" d="M909.168 792.75L1056.6 641.691L841.23 747.831L908.628 790.592L965.749 781.283" stroke="#DD433D" stroke-miterlimit="10"/>
<path opacity="0.3" d="M965.749 781.283L934.384 655.94L1090.49 747.365L965.749 781.283Z" stroke="#DD433D" stroke-miterlimit="10"/>
<path opacity="0.3" d="M962.577 554.622L784.145 630.818L908.628 790.592L962.577 554.622Z" stroke="#DD433D" stroke-miterlimit="10"/>
<path opacity="0.3" d="M784.145 630.818L799.905 544.882L962.577 554.622" stroke="#DD433D" stroke-miterlimit="10"/>
<path opacity="0.3" d="M574.656 569.152L579.887 450.302L475.516 564.725L574.656 569.152Z" stroke="#DD433D" stroke-miterlimit="10"/>
<path opacity="0.3" d="M475.516 564.725L454.601 533.837L569.375 486.189L475.516 564.725Z" stroke="#DD433D" stroke-miterlimit="10"/>
<path opacity="0.3" d="M514.88 476.894L716.69 575.458L517.073 507.88L514.88 476.894Z" stroke="#DD433D" stroke-miterlimit="10"/>
<path opacity="0.3" d="M548.694 308.461L514.88 476.894L637.886 446.106L548.694 308.461Z" stroke="#DD433D" stroke-miterlimit="10"/>
<path opacity="0.3" d="M437.015 323.8L466.047 455.861L548.695 308.461L437.015 323.8Z" stroke="#DD433D" stroke-miterlimit="10"/>
<path opacity="0.3" d="M437.015 323.8L531.365 266.929L548.694 308.461L437.015 323.8Z" stroke="#DD433D" stroke-miterlimit="10"/>
<path opacity="0.3" d="M622.482 334.141L466.047 455.861L356.104 403.681L622.482 334.141Z" stroke="#DD433D" stroke-miterlimit="10"/>
<path opacity="0.3" d="M569.375 486.189L360.416 384.255L502.199 361.381L569.375 486.189Z" stroke="#DD433D" stroke-miterlimit="10"/>
<path opacity="0.3" d="M356.104 403.682L454.601 533.837L569.375 486.189L356.104 403.682Z" stroke="#DD433D" stroke-miterlimit="10"/>
<path opacity="0.2" d="M1003.82 323.093L835.704 383.234L909.967 313.903L1003.82 323.093Z" stroke="#DD433D" stroke-miterlimit="10"/>
<path opacity="0.2" d="M843.564 259.999L835.704 383.234L909.967 313.903L843.564 259.999Z" stroke="#DD433D" stroke-miterlimit="10"/>
<path opacity="0.2" d="M874.889 330.423L832.37 534.864L934.757 358.441L874.889 330.423Z" stroke="#DD433D" stroke-miterlimit="10"/>
<path opacity="0.2" d="M835.704 383.234L843.564 259.999L795.035 375.352L835.704 383.234Z" stroke="#DD433D" stroke-miterlimit="10"/>
<path opacity="0.2" d="M835.704 383.234L802.153 472.075L795.035 375.352L835.704 383.234Z" stroke="#DD433D" stroke-miterlimit="10"/>
<path opacity="0.2" d="M835.704 383.234L802.153 472.075L909.54 495.251L835.704 383.234Z" stroke="#DD433D" stroke-miterlimit="10"/>
<path opacity="0.2" d="M633.048 352.769L843.564 259.999L795.035 375.352L633.048 352.769Z" stroke="#DD433D" stroke-miterlimit="10"/>
<path opacity="0.2" d="M795.035 375.352L633.048 352.769L784.074 396.156L795.035 375.352Z" stroke="#DD433D" stroke-miterlimit="10"/>
<path opacity="0.2" d="M795.035 375.352L633.048 352.769L672.678 247.212L795.035 375.352Z" stroke="#DD433D" stroke-miterlimit="10"/>
<path opacity="0.2" d="M546.555 219.723L633.048 352.769L672.678 247.212L546.555 219.723Z" stroke="#DD433D" stroke-miterlimit="10"/>
<path opacity="0.2" d="M672.678 247.212L700.474 287.271L633.048 352.769" stroke="#DD433D" stroke-miterlimit="10"/>
<path opacity="0.2" d="M715.487 292.056L672.677 247.212L638.258 148.607L715.487 292.056Z" stroke="#DD433D" stroke-miterlimit="10"/>
<path opacity="0.2" d="M795.035 375.352L779.592 491.884L686.377 447.902L795.035 375.352Z" stroke="#DD433D" stroke-miterlimit="10"/>
<path opacity="0.2" d="M795.035 375.352L818.527 520.784L745.445 405.825L795.035 375.352Z" stroke="#DD433D" stroke-miterlimit="10"/>
<path opacity="0.2" d="M909.967 313.903L1003.82 323.093L843.564 259.999L909.967 313.903Z" stroke="#DD433D" stroke-miterlimit="10"/>
<path opacity="0.2" d="M625.46 214.308L872.694 292.786L874.888 330.423L625.46 214.308Z" stroke="#DD433D" stroke-miterlimit="10"/>
<path opacity="0.2" d="M923.66 377.56L810.645 394.437L717.062 277.959L923.66 377.56Z" stroke="#DD433D" stroke-miterlimit="10"/>
<path opacity="0.2" d="M909.54 495.251L1056.97 344.193L841.601 450.332L909 493.093L966.134 483.838" stroke="#DD433D" stroke-miterlimit="10"/>
<path opacity="0.2" d="M966.134 483.838L934.756 358.441L1090.87 449.866L966.134 483.838Z" stroke="#DD433D" stroke-miterlimit="10"/>
<path opacity="0.2" d="M962.949 257.123L784.517 333.319L909 493.093L962.949 257.123Z" stroke="#DD433D" stroke-miterlimit="10"/>
<path opacity="0.2" d="M784.517 333.319L800.277 247.383L962.949 257.123" stroke="#DD433D" stroke-miterlimit="10"/>
<path opacity="0.2" d="M698.405 706.978L530.288 767.118L604.497 697.801L698.405 706.978Z" stroke="#DD433D" stroke-miterlimit="10"/>
<path opacity="0.2" d="M538.148 643.883L530.288 767.118L604.497 697.801L538.148 643.883Z" stroke="#DD433D" stroke-miterlimit="10"/>
<path opacity="0.2" d="M569.418 714.321L526.953 918.748L629.286 742.339L569.418 714.321Z" stroke="#DD433D" stroke-miterlimit="10"/>
<path opacity="0.2" d="M530.288 767.118L538.148 643.883L489.618 759.236L530.288 767.118Z" stroke="#DD433D" stroke-miterlimit="10"/>
<path opacity="0.2" d="M530.288 767.118L496.683 855.972L489.618 759.236L530.288 767.118Z" stroke="#DD433D" stroke-miterlimit="10"/>
<path opacity="0.2" d="M530.288 767.118L496.683 855.972L604.137 879.189L530.288 767.118Z" stroke="#DD433D" stroke-miterlimit="10"/>
<path opacity="0.2" d="M327.631 736.653L538.148 643.883L489.618 759.236L327.631 736.653Z" stroke="#DD433D" stroke-miterlimit="10"/>
<path opacity="0.2" d="M489.618 759.236L327.631 736.653L478.658 780.041L489.618 759.236Z" stroke="#DD433D" stroke-miterlimit="10"/>
<path opacity="0.2" d="M489.618 759.236L327.631 736.653L367.275 631.15L489.618 759.236Z" stroke="#DD433D" stroke-miterlimit="10"/>
<path opacity="0.2" d="M241.152 603.661L327.631 736.653L367.275 631.15L241.152 603.661Z" stroke="#DD433D" stroke-miterlimit="10"/>
<path opacity="0.2" d="M367.275 631.15L395.071 671.209L327.631 736.653" stroke="#DD433D" stroke-miterlimit="10"/>
<path opacity="0.2" d="M241.152 603.661L367.275 631.15L332.855 532.545L241.152 603.661Z" stroke="#DD433D" stroke-miterlimit="10"/>
<path opacity="0.2" d="M241.152 603.661L274.856 536.742L332.855 532.545L241.152 603.661Z" stroke="#DD433D" stroke-miterlimit="10"/>
<path opacity="0.2" d="M443.891 533.422L367.275 631.15L332.855 532.545L443.891 533.422Z" stroke="#DD433D" stroke-miterlimit="10"/>
<path opacity="0.2" d="M443.891 533.422L351.46 494.633L332.855 532.545L443.891 533.422Z" stroke="#DD433D" stroke-miterlimit="10"/>
<path opacity="0.2" d="M410.071 675.94L367.275 631.15L332.855 532.545L410.071 675.94Z" stroke="#DD433D" stroke-miterlimit="10"/>
<path opacity="0.2" d="M489.618 759.236L474.122 875.782L380.974 831.84L489.618 759.236Z" stroke="#DD433D" stroke-miterlimit="10"/>
<path opacity="0.2" d="M489.618 759.236L513.11 904.668L439.975 789.723L489.618 759.236Z" stroke="#DD433D" stroke-miterlimit="10"/>
<path opacity="0.2" d="M604.497 697.801L698.405 706.978L538.148 643.883L604.497 697.801Z" stroke="#DD433D" stroke-miterlimit="10"/>
<path opacity="0.2" d="M320.057 598.246L567.278 676.671L569.418 714.321L320.057 598.246Z" stroke="#DD433D" stroke-miterlimit="10"/>
<path opacity="0.2" d="M618.19 761.457L505.189 778.388L411.659 661.897L618.19 761.457Z" stroke="#DD433D" stroke-miterlimit="10"/>
<path opacity="0.2" d="M604.137 879.189L751.554 728.077L536.199 834.27L603.597 877.031L660.664 867.736" stroke="#DD433D" stroke-miterlimit="10"/>
<path opacity="0.2" d="M660.664 867.736L629.286 742.339L785.463 833.804L660.664 867.736Z" stroke="#DD433D" stroke-miterlimit="10"/>
<path opacity="0.2" d="M657.546 641.061L479.114 717.257L603.597 877.031L657.546 641.061Z" stroke="#DD433D" stroke-miterlimit="10"/>
<path opacity="0.2" d="M479.114 717.257L494.82 631.335L657.546 641.061" stroke="#DD433D" stroke-miterlimit="10"/>
<path opacity="0.2" d="M269.625 655.591L274.856 536.742L170.485 651.164L269.625 655.591Z" stroke="#DD433D" stroke-miterlimit="10"/>
<path opacity="0.2" d="M170.485 651.164L149.57 620.277L264.344 572.628L170.485 651.164Z" stroke="#DD433D" stroke-miterlimit="10"/>
<path opacity="0.2" d="M209.849 563.333L411.659 661.897L212.042 594.32L209.849 563.333Z" stroke="#DD433D" stroke-miterlimit="10"/>
<path opacity="0.2" d="M243.663 394.9L209.849 563.333L332.855 532.545L243.663 394.9Z" stroke="#DD433D" stroke-miterlimit="10"/>
<path opacity="0.2" d="M131.984 410.239L161.016 542.301L243.663 394.9L131.984 410.239Z" stroke="#DD433D" stroke-miterlimit="10"/>
<path opacity="0.2" d="M131.984 410.239L226.334 353.368L243.663 394.9L131.984 410.239Z" stroke="#DD433D" stroke-miterlimit="10"/>
<path opacity="0.2" d="M317.451 420.581L161.016 542.301L51.0735 490.121L317.451 420.581Z" stroke="#DD433D" stroke-miterlimit="10"/>
<path opacity="0.2" d="M264.344 572.628L55.3848 470.694L197.115 447.834L264.344 572.628Z" stroke="#DD433D" stroke-miterlimit="10"/>
<path opacity="0.2" d="M51.0734 490.121L149.57 620.277L264.344 572.628L51.0734 490.121Z" stroke="#DD433D" stroke-miterlimit="10"/>
<path d="M682.876 746.184C682.431 744.403 683.482 742.649 685.263 742.204C686.989 741.772 688.797 742.81 689.242 744.59C689.674 746.317 688.636 748.125 686.856 748.571C685.076 749.016 683.308 747.911 682.876 746.184Z" fill="#DD433D"/>
<path d="M831.016 681.813C830.422 679.439 831.878 677.01 834.252 676.416C836.626 675.822 839.054 677.278 839.648 679.652C840.242 682.026 838.786 684.455 836.413 685.049C834.039 685.643 831.61 684.187 831.016 681.813Z" fill="#DD433D"/>
<path d="M784.701 696.501C786.548 696.039 787.671 694.167 787.209 692.319C786.746 690.471 784.874 689.348 783.027 689.811C781.179 690.273 780.056 692.146 780.519 693.993C780.981 695.841 782.853 696.964 784.701 696.501Z" fill="#DD433D"/>
<path d="M791.318 673.688C790.859 671.854 791.992 669.965 793.826 669.506C795.66 669.046 797.549 670.179 798.008 672.014C798.467 673.848 797.334 675.737 795.5 676.196C793.666 676.655 791.777 675.523 791.318 673.688Z" fill="#DD433D"/>
<path d="M811.596 697.224C814.516 696.493 816.291 693.533 815.56 690.612C814.83 687.692 811.87 685.917 808.95 686.648C806.03 687.379 804.255 690.339 804.986 693.259C805.717 696.179 808.677 697.954 811.596 697.224Z" fill="#DD433D"/>
<path d="M775.646 790.22C775.201 788.439 776.253 786.685 778.033 786.24C779.759 785.808 781.567 786.846 782.012 788.627C782.445 790.353 781.406 792.161 779.626 792.607C777.9 793.039 776.092 792.001 775.646 790.22Z" fill="#DD433D"/>
<path d="M906.187 792.522C905.809 791.011 906.739 789.459 908.25 789.081C909.76 788.703 911.312 789.634 911.69 791.144C912.068 792.655 911.138 794.207 909.627 794.585C908.116 794.963 906.565 794.033 906.187 792.522Z" fill="#DD433D"/>
<path d="M1061.16 644.074C1062.37 642.046 1061.71 639.415 1059.69 638.198C1057.66 636.982 1055.03 637.64 1053.81 639.669C1052.59 641.698 1053.25 644.328 1055.28 645.545C1057.31 646.761 1059.94 646.103 1061.16 644.074Z" fill="#DD433D"/>
<path d="M780.693 631.682C780.206 629.74 781.379 627.783 783.322 627.297C785.264 626.811 787.22 627.984 787.706 629.927C788.192 631.869 787.019 633.826 785.077 634.312C783.135 634.798 781.179 633.625 780.693 631.682Z" fill="#DD433D"/>
<path d="M1001.62 621.052C1001.13 619.109 1002.3 617.153 1004.24 616.667C1006.19 616.18 1008.14 617.354 1008.63 619.296C1009.11 621.239 1007.94 623.195 1006 623.681C1004.06 624.167 1002.09 622.94 1001.62 621.052Z" fill="#DD433D"/>
<path d="M905.28 612.941C904.739 610.782 906.074 608.556 908.232 608.016C910.39 607.476 912.616 608.811 913.156 610.969C913.71 613.181 912.362 615.354 910.204 615.894C908.046 616.434 905.833 615.153 905.28 612.941Z" fill="#DD433D"/>
<path d="M875.758 631.74C877.933 631.195 879.255 628.99 878.711 626.815C878.166 624.64 875.962 623.318 873.787 623.862C871.612 624.406 870.29 626.611 870.834 628.787C871.378 630.962 873.583 632.284 875.758 631.74Z" fill="#DD433D"/>
<path d="M800.891 548.821C803.066 548.276 804.388 546.072 803.844 543.896C803.299 541.721 801.095 540.399 798.92 540.943C796.744 541.487 795.422 543.692 795.967 545.868C796.511 548.043 798.716 549.365 800.891 548.821Z" fill="#DD433D"/>
<path d="M864.111 551.058C866.286 550.514 867.608 548.309 867.064 546.133C866.519 543.958 864.315 542.636 862.14 543.18C859.965 543.725 858.643 545.929 859.187 548.105C859.731 550.28 861.936 551.602 864.111 551.058Z" fill="#DD433D"/>
<path d="M874.941 597.542C877.533 596.894 879.108 594.266 878.46 591.673C877.811 589.081 875.184 587.505 872.591 588.154C869.999 588.803 868.424 591.43 869.072 594.023C869.721 596.616 872.348 598.191 874.941 597.542Z" fill="#DD433D"/>
<path d="M934.251 661.134C936.932 660.463 938.562 657.744 937.891 655.063C937.22 652.381 934.502 650.75 931.821 651.422C929.139 652.093 927.509 654.811 928.18 657.493C928.851 660.175 931.569 661.805 934.251 661.134Z" fill="#DD433D"/>
<path d="M627.713 651.51C627.024 648.758 628.682 645.992 631.434 645.304C634.185 644.615 636.951 646.274 637.639 649.025C638.328 651.777 636.67 654.543 633.918 655.232C631.167 655.92 628.401 654.262 627.713 651.51Z" fill="#DD433D"/>
<path d="M713.831 576.173C713.142 573.421 714.8 570.655 717.552 569.967C720.303 569.278 723.069 570.937 723.757 573.689C724.446 576.44 722.788 579.206 720.036 579.895C717.285 580.584 714.519 578.925 713.831 576.173Z" fill="#DD433D"/>
<path d="M616.793 512.335C615.902 508.773 618.086 505.131 621.647 504.239C625.208 503.348 628.85 505.533 629.741 509.094C630.632 512.655 628.448 516.298 624.887 517.189C621.313 518.026 617.684 515.896 616.793 512.335Z" fill="#DD433D"/>
<path d="M634.487 446.957C634.015 445.068 635.147 443.179 637.036 442.707C638.924 442.234 640.813 443.367 641.285 445.255C641.758 447.144 640.625 449.033 638.737 449.505C636.849 449.978 634.96 448.845 634.487 446.957Z" fill="#DD433D"/>
<path d="M654.009 408.815C653.671 407.466 654.521 406.05 655.869 405.712C657.218 405.375 658.635 406.224 658.972 407.573C659.31 408.922 658.46 410.339 657.112 410.676C655.763 411.014 654.346 410.164 654.009 408.815Z" fill="#DD433D"/>
<path d="M577.311 450.546C576.919 448.981 577.89 447.362 579.455 446.97C581.019 446.579 582.638 447.55 583.03 449.114C583.421 450.679 582.451 452.298 580.886 452.69C579.321 453.082 577.703 452.111 577.311 450.546Z" fill="#DD433D"/>
<path d="M542.514 518.14C542.001 516.09 543.269 514.052 545.265 513.553C547.261 513.053 549.352 514.307 549.852 516.304C550.365 518.354 549.097 520.391 547.101 520.891C545.105 521.391 543.027 520.191 542.514 518.14Z" fill="#DD433D"/>
<path d="M511.211 477.812C510.698 475.762 511.966 473.725 513.962 473.225C515.958 472.725 518.049 473.979 518.549 475.976C519.062 478.026 517.794 480.063 515.798 480.563C513.802 481.063 511.724 479.863 511.211 477.812Z" fill="#DD433D"/>
<path d="M545.026 309.379C544.512 307.329 545.78 305.291 547.776 304.792C549.772 304.292 551.863 305.546 552.363 307.543C552.876 309.593 551.608 311.63 549.612 312.13C547.616 312.63 545.539 311.429 545.026 309.379Z" fill="#DD433D"/>
<path d="M430.041 323.882C429.312 320.969 431.092 318 434.005 317.271C436.918 316.542 439.886 318.322 440.615 321.236C441.344 324.149 439.565 327.118 436.651 327.847C433.671 328.536 430.77 326.796 430.041 323.882Z" fill="#DD433D"/>
<path d="M355.183 385.564C354.453 382.651 356.233 379.682 359.146 378.953C362.06 378.224 365.028 380.004 365.757 382.918C366.486 385.831 364.706 388.8 361.793 389.529C358.826 390.272 355.912 388.478 355.183 385.564Z" fill="#DD433D"/>
<path d="M495.092 362.3C494.255 358.954 496.263 355.527 499.662 354.677C503.007 353.84 506.434 355.849 507.284 359.248C508.121 362.593 506.112 366.02 502.714 366.871C499.315 367.722 495.929 365.645 495.092 362.3Z" fill="#DD433D"/>
<path d="M618.813 335.06C618.3 333.009 619.567 330.972 621.564 330.472C623.56 329.973 625.651 331.227 626.15 333.223C626.663 335.274 625.396 337.311 623.4 337.811C621.404 338.31 619.326 337.11 618.813 335.06Z" fill="#DD433D"/>
<path d="M512.136 508.543C511.556 506.223 512.958 503.807 515.332 503.213C517.651 502.633 520.066 504.035 520.66 506.409C521.241 508.729 519.839 511.144 517.465 511.739C515.091 512.333 512.717 510.863 512.136 508.543Z" fill="#DD433D"/>
<path d="M742.852 447.24C742.218 444.704 743.755 442.141 746.291 441.506C748.826 440.872 751.389 442.409 752.024 444.945C752.659 447.481 751.122 450.044 748.586 450.679C746.104 451.3 743.487 449.776 742.852 447.24Z" fill="#DD433D"/>
<path d="M697.458 585.431C697.093 583.975 697.983 582.491 699.44 582.126C700.897 581.761 702.381 582.651 702.745 584.108C703.11 585.565 702.22 587.049 700.763 587.414C699.306 587.778 697.823 586.888 697.458 585.431Z" fill="#DD433D"/>
<path d="M671.904 610.462C671.539 609.005 672.429 607.521 673.886 607.156C675.342 606.792 676.826 607.682 677.191 609.139C677.555 610.595 676.665 612.08 675.209 612.444C673.752 612.809 672.268 611.919 671.904 610.462Z" fill="#DD433D"/>
<path d="M462.055 456.861C461.528 454.756 462.877 452.584 465.142 452.017C467.408 451.45 469.621 452.731 470.147 454.835C470.674 456.939 469.326 459.112 467.06 459.679C464.794 460.246 462.581 458.965 462.055 456.861Z" fill="#DD433D"/>
<path opacity="0.3" d="M651.748 427.5C651.91 429.294 650.534 430.9 648.727 431.008C646.933 431.17 645.328 429.795 645.219 427.987C645.057 426.193 646.432 424.587 648.24 424.479C650.034 424.316 651.639 425.692 651.748 427.5Z" fill="#DD433D"/>
<path opacity="0.3" d="M495.104 466.822C495.32 469.29 493.446 471.422 491.031 471.625C488.563 471.842 486.432 469.967 486.229 467.552C486.012 465.084 487.887 462.952 490.301 462.749C492.715 462.546 494.887 464.353 495.104 466.822Z" fill="#DD433D"/>
<path opacity="0.3" d="M546.898 463.032C547.033 464.947 545.617 466.62 543.756 466.742C541.841 466.878 540.168 465.462 540.046 463.6C539.911 461.685 541.327 460.011 543.188 459.89C545.09 459.7 546.763 461.116 546.898 463.032Z" fill="#DD433D"/>
<path opacity="0.3" d="M532.902 481.328C533.037 483.243 531.621 484.917 529.76 485.038C527.844 485.174 526.172 483.758 526.05 481.896C525.914 479.981 527.33 478.307 529.192 478.186C531.093 477.996 532.766 479.412 532.902 481.328Z" fill="#DD433D"/>
<path opacity="0.3" d="M522.686 459.746C522.929 462.781 520.718 465.399 517.683 465.643C514.648 465.886 512.031 463.674 511.787 460.639C511.544 457.604 513.755 454.986 516.79 454.743C519.771 454.513 522.456 456.765 522.686 459.746Z" fill="#DD433D"/>
<path opacity="0.3" d="M567.364 368.865C567.526 370.659 566.15 372.265 564.343 372.373C562.549 372.536 560.944 371.16 560.835 369.352C560.673 367.558 562.048 365.953 563.856 365.844C565.663 365.736 567.255 367.058 567.364 368.865Z" fill="#DD433D"/>
<path opacity="0.3" d="M439.016 345.316C439.125 346.894 437.978 348.271 436.4 348.379C434.822 348.487 433.446 347.341 433.338 345.763C433.229 344.184 434.376 342.808 435.954 342.7C437.532 342.591 438.908 343.738 439.016 345.316Z" fill="#DD433D"/>
<path opacity="0.3" d="M269.404 468.901C269.593 471.262 267.813 473.313 265.453 473.502C263.092 473.691 261.042 471.911 260.852 469.551C260.663 467.19 262.443 465.139 264.803 464.949C267.164 464.76 269.214 466.54 269.404 468.901Z" fill="#DD433D"/>
<path opacity="0.3" d="M536.594 524.495C536.743 526.465 535.287 528.206 533.318 528.354C531.348 528.503 529.608 527.047 529.459 525.077C529.31 523.108 530.767 521.367 532.736 521.218C534.692 521.015 536.378 522.485 536.594 524.495Z" fill="#DD433D"/>
<path opacity="0.3" d="M316.877 498.932C317.026 500.901 315.569 502.642 313.6 502.791C311.631 502.94 309.89 501.483 309.742 499.514C309.593 497.544 311.049 495.804 313.018 495.655C314.974 495.452 316.728 496.962 316.877 498.932Z" fill="#DD433D"/>
<path opacity="0.3" d="M410.573 522.611C410.735 524.864 409.103 526.82 406.851 526.983C404.598 527.145 402.642 525.513 402.48 523.261C402.317 521.008 403.949 519.051 406.202 518.889C408.441 518.672 410.41 520.358 410.573 522.611Z" fill="#DD433D"/>
<path opacity="0.3" d="M447.164 512.592C447.326 514.845 445.695 516.802 443.442 516.964C441.19 517.126 439.234 515.495 439.071 513.242C438.909 510.989 440.54 509.033 442.793 508.87C445.032 508.654 447.002 510.34 447.164 512.592Z" fill="#DD433D"/>
<path opacity="0.3" d="M507.507 606.658C507.669 608.911 506.038 610.867 503.785 611.03C501.533 611.192 499.576 609.56 499.414 607.307C499.252 605.055 500.883 603.098 503.136 602.936C505.375 602.719 507.344 604.405 507.507 606.658Z" fill="#DD433D"/>
<path opacity="0.3" d="M445.498 594.141C445.66 596.394 444.029 598.35 441.776 598.513C439.524 598.675 437.568 597.043 437.405 594.79C437.243 592.537 438.874 590.581 441.127 590.419C443.366 590.202 445.336 591.888 445.498 594.141Z" fill="#DD433D"/>
<path opacity="0.3" d="M443.22 547.236C443.423 549.88 441.441 552.268 438.798 552.471C436.154 552.674 433.766 550.692 433.563 548.048C433.36 545.404 435.342 543.016 437.986 542.813C440.67 542.542 443.004 544.538 443.22 547.236Z" fill="#DD433D"/>
<path opacity="0.3" d="M395.265 474.954C395.495 477.706 393.459 480.108 390.707 480.338C387.956 480.568 385.554 478.531 385.324 475.779C385.094 473.027 387.131 470.626 389.882 470.396C392.634 470.166 395.035 472.202 395.265 474.954Z" fill="#DD433D"/>
<path opacity="0.3" d="M690.727 529.894C690.971 532.7 688.84 535.183 686.034 535.426C683.229 535.67 680.746 533.539 680.503 530.733C680.26 527.927 682.39 525.444 685.196 525.201C688.001 524.957 690.484 527.088 690.727 529.894Z" fill="#DD433D"/>
<path opacity="0.3" d="M568.316 621.023C568.559 623.829 566.429 626.312 563.623 626.556C560.818 626.799 558.335 624.668 558.092 621.862C557.848 619.056 559.979 616.574 562.784 616.33C565.59 616.087 568.059 618.164 568.316 621.023Z" fill="#DD433D"/>
<path opacity="0.3" d="M678.757 669.008C679.041 672.663 676.344 675.861 672.689 676.145C669.033 676.43 665.836 673.732 665.552 670.077C665.268 666.421 667.965 663.223 671.62 662.939C675.262 662.601 678.472 665.352 678.757 669.008Z" fill="#DD433D"/>
<path opacity="0.3" d="M650.649 730.57C650.784 732.486 649.382 734.213 647.413 734.362C645.497 734.497 643.77 733.095 643.622 731.125C643.486 729.21 644.889 727.482 646.858 727.334C648.827 727.185 650.514 728.655 650.649 730.57Z" fill="#DD433D"/>
<path opacity="0.3" d="M625.164 765.044C625.286 766.447 624.221 767.688 622.818 767.81C621.415 767.932 620.174 766.866 620.052 765.463C619.931 764.06 620.996 762.819 622.399 762.697C623.801 762.576 625.043 763.641 625.164 765.044Z" fill="#DD433D"/>
<path opacity="0.3" d="M707.665 736.424C707.787 738.057 706.6 739.5 704.968 739.622C703.336 739.744 701.893 738.557 701.771 736.925C701.649 735.293 702.836 733.849 704.468 733.727C706.086 733.551 707.489 734.806 707.665 736.424Z" fill="#DD433D"/>
<path opacity="0.3" d="M753.038 675.357C753.214 677.434 751.664 679.256 749.533 679.445C747.455 679.621 745.634 678.07 745.445 675.939C745.269 673.861 746.82 672.04 748.951 671.85C751.041 671.728 752.863 673.279 753.038 675.357Z" fill="#DD433D"/>
<path opacity="0.3" d="M777.342 720.246C777.518 722.323 775.967 724.145 773.836 724.334C771.759 724.51 769.938 722.959 769.748 720.828C769.573 718.75 771.123 716.929 773.254 716.74C775.345 716.618 777.166 718.169 777.342 720.246Z" fill="#DD433D"/>
<path opacity="0.3" d="M716.209 706.649C716.412 709.064 714.592 711.183 712.232 711.372C709.817 711.575 707.699 709.754 707.51 707.394C707.307 704.979 709.127 702.86 711.488 702.671C713.956 702.455 716.06 704.221 716.209 706.649Z" fill="#DD433D"/>
<path opacity="0.3" d="M543.763 712.601C543.952 715.191 542.011 717.512 539.421 717.701C536.831 717.891 534.511 715.949 534.321 713.358C534.132 710.768 536.074 708.448 538.663 708.258C541.253 708.069 543.574 710.011 543.763 712.601Z" fill="#DD433D"/>
<path opacity="0.3" d="M611.092 583.712C611.241 585.223 610.135 586.532 608.611 586.627C607.1 586.776 605.791 585.67 605.697 584.145C605.548 582.635 606.654 581.326 608.178 581.231C609.688 581.082 610.997 582.188 611.092 583.712Z" fill="#DD433D"/>
<path opacity="0.3" d="M640.41 563.187C640.559 564.698 639.453 566.006 637.929 566.101C636.419 566.25 635.11 565.144 635.015 563.62C634.867 562.109 635.972 560.8 637.496 560.705C638.953 560.57 640.262 561.676 640.41 563.187Z" fill="#DD433D"/>
<path opacity="0.3" d="M822.427 748.983C822.63 751.168 820.877 753.097 818.625 753.26C816.318 753.436 814.362 751.804 814.173 749.673C813.97 747.487 815.723 745.558 817.975 745.395C820.268 745.165 822.224 746.797 822.427 748.983Z" fill="#DD433D"/>
<path d="M803.16 775.077C806.199 774.317 808.046 771.236 807.286 768.197C806.525 765.158 803.444 763.31 800.405 764.07C797.365 764.831 795.518 767.911 796.279 770.951C797.04 773.99 800.121 775.838 803.16 775.077Z" stroke="#DD433D" stroke-width="2.4864" stroke-miterlimit="10"/>
<path d="M800.904 766.066C802.846 765.58 804.802 766.753 805.288 768.696C805.774 770.638 804.601 772.595 802.659 773.081C800.717 773.567 798.761 772.394 798.275 770.451C797.789 768.509 798.962 766.553 800.904 766.066Z" fill="#DD433D"/>
<path d="M772.115 801.768C771.575 799.61 772.87 797.451 775.028 796.911C777.186 796.371 779.344 797.666 779.884 799.824C780.424 801.982 779.13 804.141 776.972 804.681C774.868 805.208 772.655 803.927 772.115 801.768Z" stroke="#DD433D" stroke-width="1.7556" stroke-miterlimit="10"/>
<path d="M775.433 798.301C776.781 797.963 778.198 798.813 778.535 800.161C778.873 801.51 778.024 802.927 776.675 803.265C775.326 803.602 773.909 802.753 773.572 801.404C773.221 800.001 774.03 798.652 775.433 798.301Z" fill="#DD433D"/>
<path d="M963.847 559.694C966.887 558.933 968.734 555.853 967.973 552.814C967.212 549.774 964.131 547.927 961.092 548.687C958.053 549.448 956.206 552.528 956.967 555.567C957.727 558.607 960.808 560.454 963.847 559.694Z" stroke="#DD433D" stroke-width="2.4864" stroke-miterlimit="10"/>
<path d="M961.591 550.683C963.534 550.197 965.49 551.37 965.976 553.312C966.462 555.255 965.289 557.211 963.346 557.697C961.404 558.184 959.448 557.011 958.962 555.068C958.476 553.126 959.649 551.169 961.591 550.683Z" fill="#DD433D"/>
<path d="M791.886 567.129C791.278 564.701 792.775 562.205 795.202 561.597C797.63 560.99 800.126 562.487 800.734 564.915C801.342 567.343 799.845 569.839 797.417 570.446C794.989 571.054 792.493 569.557 791.886 567.129Z" stroke="#DD433D" stroke-width="1.984" stroke-miterlimit="10"/>
<path d="M795.621 563.27C797.185 562.878 798.737 563.809 799.128 565.373C799.52 566.938 798.589 568.49 797.025 568.881C795.46 569.273 793.909 568.343 793.517 566.778C793.126 565.213 794.056 563.662 795.621 563.27Z" fill="#DD433D"/>
<path d="M445.74 533.934C444.862 530.427 447.006 526.852 450.513 525.974C454.02 525.097 457.595 527.241 458.473 530.748C459.351 534.255 457.207 537.83 453.7 538.708C450.207 539.639 446.631 537.495 445.74 533.934Z" stroke="#DD433D" stroke-width="2.8757" stroke-miterlimit="10"/>
<path d="M451.093 528.294C453.305 527.74 455.598 529.116 456.152 531.328C456.705 533.54 455.33 535.834 453.118 536.387C450.906 536.941 448.612 535.566 448.059 533.353C447.505 531.141 448.881 528.848 451.093 528.294Z" fill="#DD433D"/>
<path d="M570.632 491.207C573.403 490.513 575.087 487.705 574.394 484.934C573.7 482.162 570.891 480.478 568.12 481.171C565.349 481.865 563.665 484.673 564.358 487.444C565.052 490.216 567.861 491.9 570.632 491.207Z" stroke="#DD433D" stroke-width="2.2645" stroke-miterlimit="10"/>
<path d="M568.579 483.005C570.359 482.56 572.126 483.665 572.558 485.392C573.004 487.173 571.898 488.94 570.172 489.372C568.445 489.804 566.624 488.712 566.192 486.986C565.747 485.205 566.852 483.438 568.579 483.005Z" fill="#DD433D"/>
<path d="M351.007 404.843C350.304 402.037 352.003 399.204 354.808 398.502C357.614 397.8 360.447 399.499 361.15 402.305C361.852 405.111 360.153 407.944 357.348 408.646C354.542 409.347 351.709 407.648 351.007 404.843Z" stroke="#DD433D" stroke-width="2.2889" stroke-miterlimit="10"/>
<path d="M355.267 400.336C357.048 399.891 358.869 400.983 359.314 402.763C359.76 404.544 358.668 406.365 356.887 406.811C355.107 407.257 353.286 406.164 352.84 404.384C352.395 402.603 353.487 400.782 355.267 400.336Z" fill="#DD433D"/>
<path opacity="0.1" d="M789.279 278.804C790.062 281.934 788.174 285.158 784.991 285.955C781.862 286.738 778.638 284.85 777.841 281.667C777.058 278.537 778.946 275.313 782.129 274.516C785.312 273.719 788.482 275.621 789.279 278.804Z" fill="#DD433D"/>
<path opacity="0.1" d="M523.236 395.047C524.316 399.364 521.741 403.735 517.425 404.815C513.109 405.896 508.738 403.32 507.658 399.004C506.578 394.687 509.153 390.316 513.469 389.235C517.785 388.155 522.156 390.73 523.236 395.047Z" fill="#DD433D"/>
<path opacity="0.1" d="M614.007 372.901C614.844 376.246 612.822 379.619 609.531 380.443C606.186 381.28 602.814 379.257 601.99 375.966C601.153 372.621 603.175 369.248 606.466 368.424C609.757 367.6 613.13 369.623 614.007 372.901Z" fill="#DD433D"/>
<path opacity="0.1" d="M594.62 409.518C595.457 412.863 593.435 416.236 590.144 417.06C586.799 417.897 583.426 415.875 582.603 412.583C581.766 409.238 583.788 405.865 587.079 405.041C590.356 404.163 593.729 406.186 594.62 409.518Z" fill="#DD433D"/>
<path opacity="0.1" d="M570.049 374.328C571.372 379.616 568.177 384.945 562.944 386.255C557.657 387.579 552.328 384.383 551.018 379.149C549.695 373.861 552.891 368.532 558.124 367.222C563.411 365.898 568.74 369.094 570.049 374.328Z" fill="#DD433D"/>
<path opacity="0.1" d="M387.751 196.343C388.439 199.095 386.781 201.861 384.043 202.604C381.292 203.292 378.526 201.634 377.783 198.895C377.095 196.143 378.753 193.378 381.491 192.635C384.297 191.933 387.062 193.591 387.751 196.343Z" fill="#DD433D"/>
<path opacity="0.1" d="M613.886 484.91C614.75 488.363 612.647 491.871 609.194 492.735C605.742 493.599 602.234 491.496 601.37 488.043C600.506 484.589 602.609 481.081 606.062 480.217C609.515 479.353 613.022 481.456 613.886 484.91Z" fill="#DD433D"/>
<path opacity="0.1" d="M216.889 504.865C217.753 508.318 215.65 511.826 212.197 512.691C208.744 513.555 205.237 511.451 204.373 507.998C203.509 504.545 205.612 501.037 209.065 500.172C212.518 499.308 216.025 501.412 216.889 504.865Z" fill="#DD433D"/>
<path opacity="0.1" d="M390.015 519.041C391.001 522.98 388.615 526.96 384.676 527.946C380.738 528.932 376.758 526.545 375.786 522.66C374.8 518.721 377.187 514.741 381.125 513.755C385.05 512.715 389.03 515.102 390.015 519.041Z" fill="#DD433D"/>
<path opacity="0.1" d="M451.879 490.427C452.865 494.366 450.478 498.346 446.54 499.332C442.602 500.317 438.622 497.931 437.65 494.046C436.664 490.107 439.051 486.127 442.989 485.141C446.914 484.101 450.894 486.488 451.879 490.427Z" fill="#DD433D"/>
<path opacity="0.1" d="M586.799 639.217C587.785 643.156 585.399 647.136 581.46 648.122C577.522 649.108 573.542 646.721 572.57 642.836C571.585 638.897 573.971 634.917 577.909 633.931C581.834 632.891 585.814 635.278 586.799 639.217Z" fill="#DD433D"/>
<path opacity="0.1" d="M473.146 635.441C474.131 639.38 471.745 643.36 467.807 644.346C463.868 645.331 459.889 642.945 458.903 639.006C457.917 635.067 460.304 631.087 464.242 630.101C468.181 629.115 472.16 631.502 473.146 635.441Z" fill="#DD433D"/>
<path opacity="0.1" d="M393.349 581.851C394.51 586.491 391.692 591.267 387.053 592.428C382.413 593.59 377.637 590.772 376.476 586.131C375.315 581.491 378.133 576.715 382.773 575.553C387.453 574.325 392.174 577.156 393.349 581.851Z" fill="#DD433D"/>
<path opacity="0.1" d="M348.694 439.135C349.896 443.938 346.984 448.795 342.182 449.997C337.381 451.198 332.524 448.286 331.323 443.484C330.121 438.681 333.033 433.824 337.835 432.622C342.582 431.434 347.439 434.347 348.694 439.135Z" fill="#DD433D"/>
<path opacity="0.1" d="M888.73 448.742C889.958 453.653 886.979 458.699 882.069 459.927C877.16 461.156 872.114 458.176 870.886 453.266C869.657 448.356 872.637 443.31 877.546 442.081C882.51 440.839 887.501 443.832 888.73 448.742Z" fill="#DD433D"/>
<path opacity="0.1" d="M633.553 704.633C634.781 709.543 631.802 714.589 626.892 715.818C621.983 717.047 616.937 714.067 615.709 709.156C614.48 704.246 617.46 699.2 622.369 697.971C627.265 696.689 632.257 699.682 633.553 704.633Z" fill="#DD433D"/>
<path opacity="0.1" d="M908.902 698.899C910.509 705.32 906.626 711.796 900.26 713.39C893.84 714.997 887.364 711.113 885.771 704.746C884.164 698.325 888.047 691.849 894.414 690.256C900.766 688.608 907.242 692.492 908.902 698.899Z" fill="#DD433D"/>
<path opacity="0.1" d="M1042.37 688.142C1043.28 691.811 1041.06 695.521 1037.39 696.439C1033.72 697.358 1030.01 695.133 1029.09 691.463C1028.18 687.794 1030.4 684.084 1034.07 683.166C1037.74 682.247 1041.45 684.472 1042.37 688.142Z" fill="#DD433D"/>
<path opacity="0.1" d="M1038.61 1063.32C1039.53 1066.99 1037.31 1070.7 1033.64 1071.62C1029.97 1072.53 1026.26 1070.31 1025.34 1066.64C1024.42 1062.97 1026.65 1059.26 1030.32 1058.34C1034 1057.48 1037.71 1059.7 1038.61 1063.32Z" fill="#DD433D"/>
<path opacity="0.1" d="M1245.26 1036.88C1246.57 1042.11 1243.43 1047.43 1238.2 1048.74C1232.96 1050.05 1227.65 1046.91 1226.34 1041.67C1225.03 1036.44 1228.17 1031.12 1233.4 1029.81C1238.64 1028.5 1243.95 1031.65 1245.26 1036.88Z" fill="#DD433D"/>
<path opacity="0.1" d="M1379.57 925.688C1380.88 930.922 1377.73 936.238 1372.5 937.548C1367.27 938.857 1361.95 935.715 1360.64 930.482C1359.33 925.248 1362.47 919.932 1367.71 918.622C1372.94 917.312 1378.27 920.508 1379.57 925.688Z" fill="#DD433D"/>
<path opacity="0.1" d="M1128.17 968.028C1129.68 974.071 1126.05 980.197 1120.01 981.709C1113.97 983.222 1107.84 979.594 1106.33 973.551C1104.82 967.508 1108.45 961.382 1114.49 959.87C1120.53 958.357 1126.61 962.052 1128.17 968.028Z" fill="#DD433D"/>
<path opacity="0.1" d="M905.892 1017.47C906.81 1021.14 904.585 1024.85 900.916 1025.77C897.248 1026.69 893.538 1024.46 892.62 1020.79C891.702 1017.12 893.926 1013.41 897.595 1012.49C901.264 1011.58 904.973 1013.8 905.892 1017.47Z" fill="#DD433D"/>
<path opacity="0.1" d="M1096.99 705.261C1098.04 709.469 1095.49 713.719 1091.3 714.826C1087.09 715.88 1082.84 713.331 1081.73 709.136C1080.68 704.927 1083.23 700.677 1087.42 699.57C1091.63 698.517 1095.88 701.065 1096.99 705.261Z" fill="#DD433D"/>
<path opacity="0.1" d="M682.529 816.279C683.677 820.866 680.926 825.453 676.341 826.601C671.755 827.749 667.168 824.998 665.967 820.425C664.819 815.838 667.569 811.251 672.155 810.103C676.741 808.955 681.341 811.76 682.529 816.279Z" fill="#DD433D"/>
<path opacity="0.1" d="M763.614 567.783C764.262 570.373 762.698 573.058 760.108 573.706C757.519 574.355 754.834 572.79 754.186 570.201C753.538 567.611 755.102 564.926 757.691 564.278C760.268 563.575 762.952 565.14 763.614 567.783Z" fill="#DD433D"/>
<path opacity="0.1" d="M809.422 522.661C810.071 525.251 808.507 527.936 805.917 528.584C803.327 529.232 800.643 527.668 799.995 525.078C799.347 522.488 800.911 519.803 803.5 519.155C806.144 518.493 808.774 520.071 809.422 522.661Z" fill="#DD433D"/>
</svg>
