<svg width="872" height="666" viewBox="0 0 872 666" fill="none" xmlns="http://www.w3.org/2000/svg">
<path opacity="0.3" d="M749.956 394.831L581.416 455.114L655.866 385.619L749.956 394.831Z" stroke="#5EDBC5" stroke-miterlimit="10"/>
<path opacity="0.3" d="M589.296 331.588L581.416 455.114L655.866 385.619L589.296 331.588Z" stroke="#5EDBC5" stroke-miterlimit="10"/>
<path opacity="0.3" d="M620.685 402.124L578.059 607.048L680.717 430.263L620.685 402.124Z" stroke="#5EDBC5" stroke-miterlimit="10"/>
<path opacity="0.3" d="M581.416 455.114L589.296 331.588L540.644 447.213L581.416 455.114Z" stroke="#5EDBC5" stroke-miterlimit="10"/>
<path opacity="0.3" d="M581.416 455.114L547.781 544.165L540.644 447.214L581.416 455.114Z" stroke="#5EDBC5" stroke-miterlimit="10"/>
<path opacity="0.3" d="M581.416 455.114L547.781 544.165L655.437 567.396L581.416 455.114Z" stroke="#5EDBC5" stroke-miterlimit="10"/>
<path opacity="0.3" d="M378.249 424.577L589.296 331.588L540.644 447.213L378.249 424.577Z" stroke="#5EDBC5" stroke-miterlimit="10"/>
<path opacity="0.3" d="M540.644 447.213L378.249 424.577L529.656 468.067L540.644 447.213Z" stroke="#5EDBC5" stroke-miterlimit="10"/>
<path opacity="0.3" d="M540.644 447.214L378.249 424.577L417.979 318.77L540.644 447.214Z" stroke="#5EDBC5" stroke-miterlimit="10"/>
<path opacity="0.3" d="M291.538 291.216L378.249 424.577L417.979 318.77L291.538 291.216Z" stroke="#5EDBC5" stroke-miterlimit="10"/>
<path opacity="0.3" d="M417.979 318.771L445.844 358.924L378.249 424.577" stroke="#5EDBC5" stroke-miterlimit="10"/>
<path opacity="0.3" d="M291.538 291.217L417.979 318.77L383.472 219.933L291.538 291.217Z" stroke="#5EDBC5" stroke-miterlimit="10"/>
<path opacity="0.3" d="M291.538 291.216L325.328 224.139L383.472 219.932L291.538 291.216Z" stroke="#5EDBC5" stroke-miterlimit="10"/>
<path opacity="0.3" d="M494.842 220.798L417.979 318.77L383.473 219.933L494.842 220.798Z" stroke="#5EDBC5" stroke-miterlimit="10"/>
<path opacity="0.3" d="M494.842 220.797L402.124 181.931L383.472 219.932L494.842 220.797Z" stroke="#5EDBC5" stroke-miterlimit="10"/>
<path opacity="0.3" d="M460.896 363.721L417.979 318.77L383.473 219.933L460.896 363.721Z" stroke="#5EDBC5" stroke-miterlimit="10"/>
<path opacity="0.3" d="M540.644 447.213L525.149 563.967L431.767 519.921L540.644 447.213Z" stroke="#5EDBC5" stroke-miterlimit="10"/>
<path opacity="0.3" d="M540.644 447.213L564.182 592.935L490.93 477.758L540.644 447.213Z" stroke="#5EDBC5" stroke-miterlimit="10"/>
<path opacity="0.3" d="M655.866 385.619L749.956 394.832L589.296 331.588L655.866 385.619Z" stroke="#5EDBC5" stroke-miterlimit="10"/>
<path opacity="0.3" d="M370.642 285.788L618.498 364.452L620.685 402.124L370.642 285.788Z" stroke="#5EDBC5" stroke-miterlimit="10"/>
<path opacity="0.3" d="M669.593 449.426L556.294 466.343L462.475 349.59L669.593 449.426Z" stroke="#5EDBC5" stroke-miterlimit="10"/>
<path opacity="0.3" d="M655.437 567.396L803.239 415.98L587.328 522.371L654.896 565.233L712.161 555.902" stroke="#5EDBC5" stroke-miterlimit="10"/>
<path opacity="0.3" d="M712.16 555.902L680.717 430.263L837.22 521.904L712.16 555.902Z" stroke="#5EDBC5" stroke-miterlimit="10"/>
<path opacity="0.3" d="M708.981 328.705L530.1 405.081L654.896 565.233L708.981 328.705Z" stroke="#5EDBC5" stroke-miterlimit="10"/>
<path opacity="0.3" d="M530.1 405.081L545.9 318.942L708.981 328.705" stroke="#5EDBC5" stroke-miterlimit="10"/>
<path opacity="0.3" d="M320.083 343.27L325.328 224.139L220.693 338.832L320.083 343.27Z" stroke="#5EDBC5" stroke-miterlimit="10"/>
<path opacity="0.3" d="M220.693 338.832L199.726 307.871L314.789 260.11L220.693 338.832Z" stroke="#5EDBC5" stroke-miterlimit="10"/>
<path opacity="0.3" d="M260.157 250.793L462.474 349.59L262.355 281.853L260.157 250.793Z" stroke="#5EDBC5" stroke-miterlimit="10"/>
<path opacity="0.3" d="M294.056 81.9616L260.157 250.793L383.472 219.932L294.056 81.9616Z" stroke="#5EDBC5" stroke-miterlimit="10"/>
<path opacity="0.3" d="M182.095 97.3367L211.201 229.711L294.056 81.9616L182.095 97.3367Z" stroke="#5EDBC5" stroke-miterlimit="10"/>
<path opacity="0.3" d="M182.095 97.3368L276.683 40.3315L294.056 81.9617L182.095 97.3368Z" stroke="#5EDBC5" stroke-miterlimit="10"/>
<path opacity="0.3" d="M368.029 107.703L211.201 229.711L100.981 177.407L368.029 107.703Z" stroke="#5EDBC5" stroke-miterlimit="10"/>
<path opacity="0.3" d="M314.789 260.11L105.304 157.935L247.444 135.007L314.789 260.11Z" stroke="#5EDBC5" stroke-miterlimit="10"/>
<path opacity="0.3" d="M100.981 177.408L199.726 307.871L314.789 260.11L100.981 177.408Z" stroke="#5EDBC5" stroke-miterlimit="10"/>
<path opacity="0.2" d="M750.329 96.6292L581.788 156.912L656.238 87.4168L750.329 96.6292Z" stroke="#5EDBC5" stroke-miterlimit="10"/>
<path opacity="0.2" d="M589.668 33.3853L581.788 156.911L656.239 87.4166L589.668 33.3853Z" stroke="#5EDBC5" stroke-miterlimit="10"/>
<path opacity="0.2" d="M621.071 103.976L578.445 308.9L681.09 132.06L621.071 103.976Z" stroke="#5EDBC5" stroke-miterlimit="10"/>
<path opacity="0.2" d="M581.788 156.911L589.669 33.3852L541.017 149.011L581.788 156.911Z" stroke="#5EDBC5" stroke-miterlimit="10"/>
<path opacity="0.2" d="M581.788 156.911L548.153 245.962L541.017 149.011L581.788 156.911Z" stroke="#5EDBC5" stroke-miterlimit="10"/>
<path opacity="0.2" d="M581.788 156.912L548.153 245.963L655.81 269.194L581.788 156.912Z" stroke="#5EDBC5" stroke-miterlimit="10"/>
<path opacity="0.2" d="M378.622 126.375L589.669 33.3855L541.017 149.011L378.622 126.375Z" stroke="#5EDBC5" stroke-miterlimit="10"/>
<path opacity="0.2" d="M541.017 149.011L378.622 126.375L530.028 169.865L541.017 149.011Z" stroke="#5EDBC5" stroke-miterlimit="10"/>
<path opacity="0.2" d="M541.017 149.011L378.622 126.374L418.351 20.5679L541.017 149.011Z" stroke="#5EDBC5" stroke-miterlimit="10"/>
<path opacity="0.2" d="M291.911 -6.98584L378.622 126.375L418.351 20.568L291.911 -6.98584Z" stroke="#5EDBC5" stroke-miterlimit="10"/>
<path opacity="0.2" d="M418.351 20.5679L446.217 60.7216L378.622 126.374" stroke="#5EDBC5" stroke-miterlimit="10"/>
<path opacity="0.2" d="M461.269 65.5184L418.351 20.5681L383.845 -78.2698L461.269 65.5184Z" stroke="#5EDBC5" stroke-miterlimit="10"/>
<path opacity="0.2" d="M541.017 149.011L525.536 265.818L432.086 221.732L541.017 149.011Z" stroke="#5EDBC5" stroke-miterlimit="10"/>
<path opacity="0.2" d="M541.017 149.011L564.568 294.787L491.303 179.556L541.017 149.011Z" stroke="#5EDBC5" stroke-miterlimit="10"/>
<path opacity="0.2" d="M656.239 87.4166L750.329 96.629L589.669 33.3853L656.239 87.4166Z" stroke="#5EDBC5" stroke-miterlimit="10"/>
<path opacity="0.2" d="M371.015 -12.4143L618.871 66.2501L621.071 103.976L371.015 -12.4143Z" stroke="#5EDBC5" stroke-miterlimit="10"/>
<path opacity="0.2" d="M669.966 151.224L556.667 168.141L462.847 51.3875L669.966 151.224Z" stroke="#5EDBC5" stroke-miterlimit="10"/>
<path opacity="0.2" d="M655.81 269.194L803.612 117.778L587.701 224.169L655.269 267.031L712.547 257.754" stroke="#5EDBC5" stroke-miterlimit="10"/>
<path opacity="0.2" d="M712.547 257.754L681.09 132.061L837.593 223.702L712.547 257.754Z" stroke="#5EDBC5" stroke-miterlimit="10"/>
<path opacity="0.2" d="M709.353 30.5024L530.472 106.879L655.269 267.03L709.353 30.5024Z" stroke="#5EDBC5" stroke-miterlimit="10"/>
<path opacity="0.2" d="M530.473 106.879L546.272 20.7394L709.353 30.5027" stroke="#5EDBC5" stroke-miterlimit="10"/>
<path opacity="0.2" d="M444.144 481.421L275.603 541.704L349.999 472.222L444.144 481.421Z" stroke="#5EDBC5" stroke-miterlimit="10"/>
<path opacity="0.2" d="M283.484 418.178L275.603 541.704L349.999 472.222L283.484 418.178Z" stroke="#5EDBC5" stroke-miterlimit="10"/>
<path opacity="0.2" d="M314.832 488.782L272.26 693.692L374.851 516.866L314.832 488.782Z" stroke="#5EDBC5" stroke-miterlimit="10"/>
<path opacity="0.2" d="M275.603 541.703L283.483 418.177L234.832 533.803L275.603 541.703Z" stroke="#5EDBC5" stroke-miterlimit="10"/>
<path opacity="0.2" d="M275.603 541.703L241.914 630.768L234.832 533.803L275.603 541.703Z" stroke="#5EDBC5" stroke-miterlimit="10"/>
<path opacity="0.2" d="M275.603 541.703L241.914 630.768L349.638 654.04L275.603 541.703Z" stroke="#5EDBC5" stroke-miterlimit="10"/>
<path opacity="0.2" d="M72.4369 511.167L283.483 418.177L234.832 533.803L72.4369 511.167Z" stroke="#5EDBC5" stroke-miterlimit="10"/>
<path opacity="0.2" d="M234.832 533.803L72.4368 511.167L223.843 554.657L234.832 533.803Z" stroke="#5EDBC5" stroke-miterlimit="10"/>
<path opacity="0.2" d="M234.832 533.803L72.4368 511.166L112.18 405.414L234.832 533.803Z" stroke="#5EDBC5" stroke-miterlimit="10"/>
<path opacity="0.2" d="M-14.2605 377.86L72.4368 511.167L112.18 405.414L-14.2605 377.86Z" stroke="#5EDBC5" stroke-miterlimit="10"/>
<path opacity="0.2" d="M112.18 405.414L140.046 445.568L72.4369 511.166" stroke="#5EDBC5" stroke-miterlimit="10"/>
<path opacity="0.2" d="M-14.2605 377.86L112.18 405.414L77.6735 306.576L-14.2605 377.86Z" stroke="#5EDBC5" stroke-miterlimit="10"/>
<path opacity="0.2" d="M-14.2605 377.86L19.5287 310.782L77.6736 306.576L-14.2605 377.86Z" stroke="#5EDBC5" stroke-miterlimit="10"/>
<path opacity="0.2" d="M188.989 307.455L112.18 405.414L77.6736 306.576L188.989 307.455Z" stroke="#5EDBC5" stroke-miterlimit="10"/>
<path opacity="0.2" d="M188.989 307.455L96.325 268.575L77.6736 306.576L188.989 307.455Z" stroke="#5EDBC5" stroke-miterlimit="10"/>
<path opacity="0.2" d="M155.084 450.31L112.18 405.414L77.6736 306.576L155.084 450.31Z" stroke="#5EDBC5" stroke-miterlimit="10"/>
<path opacity="0.2" d="M234.832 533.803L219.296 650.624L125.914 606.578L234.832 533.803Z" stroke="#5EDBC5" stroke-miterlimit="10"/>
<path opacity="0.2" d="M234.832 533.803L258.383 679.578L185.064 564.361L234.832 533.803Z" stroke="#5EDBC5" stroke-miterlimit="10"/>
<path opacity="0.2" d="M349.999 472.222L444.144 481.421L283.483 418.177L349.999 472.222Z" stroke="#5EDBC5" stroke-miterlimit="10"/>
<path opacity="0.2" d="M64.8437 372.432L312.686 451.042L314.832 488.782L64.8437 372.432Z" stroke="#5EDBC5" stroke-miterlimit="10"/>
<path opacity="0.2" d="M363.727 536.029L250.441 553L156.676 436.233L363.727 536.029Z" stroke="#5EDBC5" stroke-miterlimit="10"/>
<path opacity="0.2" d="M349.638 654.04L497.427 502.57L281.529 609.015L349.097 651.877L406.308 642.559" stroke="#5EDBC5" stroke-miterlimit="10"/>
<path opacity="0.2" d="M406.308 642.56L374.851 516.866L531.421 608.548L406.308 642.56Z" stroke="#5EDBC5" stroke-miterlimit="10"/>
<path opacity="0.2" d="M403.182 415.349L224.301 491.725L349.097 651.877L403.182 415.349Z" stroke="#5EDBC5" stroke-miterlimit="10"/>
<path opacity="0.2" d="M224.301 491.725L240.047 405.599L403.182 415.349" stroke="#5EDBC5" stroke-miterlimit="10"/>
<path opacity="0.2" d="M14.2844 429.913L19.5288 310.782L-85.1055 425.475L14.2844 429.913Z" stroke="#5EDBC5" stroke-miterlimit="10"/>
<path opacity="0.2" d="M-85.1055 425.475L-106.073 394.515L8.99027 346.754L-85.1055 425.475Z" stroke="#5EDBC5" stroke-miterlimit="10"/>
<path opacity="0.2" d="M-45.6422 337.437L156.676 436.234L-43.4439 368.497L-45.6422 337.437Z" stroke="#5EDBC5" stroke-miterlimit="10"/>
<path opacity="0.2" d="M-11.7428 168.606L-45.6422 337.437L77.6736 306.576L-11.7428 168.606Z" stroke="#5EDBC5" stroke-miterlimit="10"/>
<path opacity="0.2" d="M-123.703 183.981L-94.5979 316.355L-11.7427 168.606L-123.703 183.981Z" stroke="#5EDBC5" stroke-miterlimit="10"/>
<path opacity="0.2" d="M62.2306 194.347L-94.5979 316.355L-204.818 264.051L62.2306 194.347Z" stroke="#5EDBC5" stroke-miterlimit="10"/>
<path opacity="0.2" d="M8.99026 346.754L-200.495 244.579L-58.4086 221.664L8.99026 346.754Z" stroke="#5EDBC5" stroke-miterlimit="10"/>
<path opacity="0.2" d="M-204.818 264.051L-106.073 394.515L8.9903 346.754L-204.818 264.051Z" stroke="#5EDBC5" stroke-miterlimit="10"/>
<path d="M428.576 520.72C428.129 518.935 429.183 517.177 430.968 516.73C432.699 516.297 434.511 517.338 434.958 519.123C435.391 520.853 434.35 522.666 432.566 523.112C430.781 523.559 429.009 522.451 428.576 520.72Z" fill="#5EDBC5"/>
<path d="M577.089 456.197C576.493 453.817 577.953 451.383 580.333 450.787C582.713 450.192 585.147 451.652 585.743 454.031C586.338 456.411 584.878 458.845 582.499 459.441C580.119 460.037 577.684 458.577 577.089 456.197Z" fill="#5EDBC5"/>
<path d="M530.657 470.92C532.509 470.457 533.635 468.58 533.171 466.728C532.708 464.876 530.831 463.75 528.979 464.214C527.127 464.677 526.001 466.554 526.464 468.406C526.928 470.258 528.805 471.384 530.657 470.92Z" fill="#5EDBC5"/>
<path d="M537.291 448.053C536.83 446.214 537.966 444.32 539.805 443.86C541.644 443.4 543.537 444.535 543.997 446.374C544.457 448.213 543.322 450.106 541.483 450.567C539.644 451.027 537.751 449.891 537.291 448.053Z" fill="#5EDBC5"/>
<path d="M557.62 471.644C560.548 470.911 562.327 467.944 561.594 465.017C560.862 462.09 557.895 460.311 554.967 461.043C552.04 461.776 550.261 464.743 550.993 467.67C551.726 470.597 554.693 472.376 557.62 471.644Z" fill="#5EDBC5"/>
<path d="M521.58 564.86C521.133 563.076 522.187 561.318 523.972 560.871C525.703 560.438 527.515 561.478 527.962 563.263C528.395 564.994 527.354 566.806 525.569 567.253C523.838 567.686 522.026 566.645 521.58 564.86Z" fill="#5EDBC5"/>
<path d="M652.449 567.168C652.07 565.653 653.002 564.098 654.517 563.719C656.031 563.34 657.587 564.273 657.966 565.787C658.345 567.301 657.412 568.856 655.897 569.235C654.383 569.614 652.828 568.682 652.449 567.168Z" fill="#5EDBC5"/>
<path d="M807.808 418.369C809.027 416.335 808.367 413.698 806.334 412.479C804.3 411.26 801.663 411.92 800.444 413.953C799.225 415.986 799.885 418.623 801.918 419.843C803.951 421.062 806.588 420.402 807.808 418.369Z" fill="#5EDBC5"/>
<path d="M526.638 405.948C526.151 404.001 527.327 402.04 529.274 401.552C531.221 401.065 533.182 402.241 533.669 404.188C534.157 406.135 532.981 408.096 531.034 408.583C529.086 409.071 527.125 407.895 526.638 405.948Z" fill="#5EDBC5"/>
<path d="M748.117 395.291C747.63 393.344 748.806 391.383 750.753 390.896C752.7 390.409 754.661 391.585 755.148 393.532C755.636 395.479 754.46 397.44 752.513 397.927C750.565 398.414 748.591 397.184 748.117 395.291Z" fill="#5EDBC5"/>
<path d="M651.539 387.162C650.998 384.998 652.336 382.767 654.499 382.225C656.663 381.684 658.894 383.022 659.436 385.185C659.991 387.403 658.639 389.58 656.475 390.122C654.312 390.663 652.094 389.379 651.539 387.162Z" fill="#5EDBC5"/>
<path d="M621.943 406.005C624.124 405.459 625.449 403.249 624.904 401.069C624.358 398.888 622.148 397.563 619.967 398.109C617.787 398.654 616.461 400.864 617.007 403.045C617.553 405.225 619.763 406.551 621.943 406.005Z" fill="#5EDBC5"/>
<path d="M546.888 322.89C549.068 322.344 550.394 320.134 549.848 317.953C549.302 315.773 547.092 314.448 544.911 314.993C542.731 315.539 541.406 317.749 541.951 319.93C542.497 322.11 544.707 323.436 546.888 322.89Z" fill="#5EDBC5"/>
<path d="M610.267 325.132C612.448 324.587 613.773 322.377 613.227 320.196C612.682 318.016 610.472 316.69 608.291 317.236C606.11 317.782 604.785 319.992 605.331 322.172C605.876 324.353 608.087 325.678 610.267 325.132Z" fill="#5EDBC5"/>
<path d="M621.124 371.727C623.722 371.076 625.302 368.443 624.651 365.844C624.001 363.245 621.367 361.666 618.768 362.316C616.17 362.966 614.59 365.6 615.24 368.199C615.891 370.798 618.525 372.377 621.124 371.727Z" fill="#5EDBC5"/>
<path d="M680.583 435.469C683.272 434.796 684.905 432.071 684.233 429.383C683.56 426.695 680.835 425.061 678.147 425.733C675.458 426.406 673.825 429.131 674.497 431.819C675.17 434.508 677.895 436.142 680.583 435.469Z" fill="#5EDBC5"/>
<path d="M373.273 425.822C372.583 423.064 374.245 420.291 377.004 419.601C379.762 418.911 382.535 420.573 383.225 423.331C383.915 426.09 382.253 428.862 379.494 429.553C376.736 430.243 373.964 428.58 373.273 425.822Z" fill="#5EDBC5"/>
<path d="M459.608 350.307C458.918 347.549 460.58 344.776 463.339 344.086C466.097 343.395 468.87 345.058 469.56 347.816C470.25 350.575 468.588 353.347 465.829 354.037C463.071 354.728 460.298 353.065 459.608 350.307Z" fill="#5EDBC5"/>
<path d="M362.327 286.318C361.433 282.748 363.623 279.097 367.193 278.203C370.762 277.31 374.414 279.5 375.307 283.069C376.2 286.639 374.011 290.29 370.441 291.184C366.858 292.023 363.22 289.887 362.327 286.318Z" fill="#5EDBC5"/>
<path d="M380.065 220.785C379.591 218.892 380.727 216.999 382.62 216.525C384.513 216.051 386.406 217.187 386.88 219.08C387.354 220.973 386.218 222.866 384.325 223.34C382.432 223.814 380.539 222.678 380.065 220.785Z" fill="#5EDBC5"/>
<path d="M399.636 182.553C399.297 181.201 400.149 179.781 401.501 179.443C402.853 179.104 404.273 179.956 404.612 181.308C404.95 182.66 404.099 184.08 402.746 184.419C401.394 184.757 399.974 183.905 399.636 182.553Z" fill="#5EDBC5"/>
<path d="M322.745 224.383C322.352 222.814 323.326 221.191 324.894 220.799C326.463 220.406 328.086 221.379 328.478 222.948C328.871 224.516 327.897 226.139 326.329 226.532C324.76 226.924 323.137 225.951 322.745 224.383Z" fill="#5EDBC5"/>
<path d="M287.861 292.137C287.346 290.082 288.617 288.039 290.618 287.539C292.619 287.038 294.715 288.295 295.216 290.296C295.731 292.351 294.46 294.393 292.459 294.894C290.458 295.395 288.375 294.192 287.861 292.137Z" fill="#5EDBC5"/>
<path d="M256.479 251.713C255.965 249.658 257.235 247.616 259.236 247.115C261.238 246.614 263.334 247.871 263.835 249.873C264.349 251.928 263.078 253.97 261.077 254.471C259.076 254.972 256.993 253.769 256.479 251.713Z" fill="#5EDBC5"/>
<path d="M290.378 82.8824C289.864 80.8271 291.135 78.785 293.136 78.2842C295.137 77.7834 297.233 79.0404 297.734 81.0415C298.248 83.0968 296.978 85.1389 294.977 85.6397C292.975 86.1405 290.893 84.9376 290.378 82.8824Z" fill="#5EDBC5"/>
<path d="M175.104 97.42C174.373 94.4994 176.158 91.5241 179.078 90.7932C181.999 90.0622 184.974 91.8464 185.705 94.767C186.436 97.6876 184.652 100.663 181.731 101.394C178.743 102.084 175.835 100.341 175.104 97.42Z" fill="#5EDBC5"/>
<path d="M100.057 159.248C99.3263 156.327 101.111 153.352 104.031 152.621C106.952 151.89 109.927 153.674 110.658 156.595C111.389 159.515 109.605 162.491 106.684 163.221C103.709 163.966 100.788 162.168 100.057 159.248Z" fill="#5EDBC5"/>
<path d="M240.318 135.928C239.479 132.575 241.493 129.14 244.901 128.287C248.254 127.448 251.689 129.462 252.542 132.869C253.381 136.222 251.367 139.657 247.96 140.51C244.552 141.363 241.158 139.281 240.318 135.928Z" fill="#5EDBC5"/>
<path d="M364.351 108.624C363.837 106.568 365.108 104.526 367.109 104.025C369.11 103.525 371.206 104.782 371.707 106.783C372.222 108.838 370.951 110.88 368.95 111.381C366.949 111.882 364.866 110.679 364.351 108.624Z" fill="#5EDBC5"/>
<path d="M257.406 282.517C256.824 280.191 258.23 277.77 260.61 277.175C262.935 276.593 265.356 277.999 265.952 280.378C266.534 282.704 265.128 285.125 262.748 285.72C260.368 286.316 257.988 284.843 257.406 282.517Z" fill="#5EDBC5"/>
<path d="M488.703 221.069C488.067 218.527 489.608 215.958 492.15 215.322C494.692 214.685 497.262 216.226 497.898 218.768C498.534 221.31 496.993 223.88 494.451 224.516C491.963 225.139 489.339 223.611 488.703 221.069Z" fill="#5EDBC5"/>
<path d="M443.194 359.587C442.829 358.127 443.721 356.639 445.181 356.274C446.641 355.908 448.129 356.8 448.495 358.261C448.86 359.721 447.968 361.209 446.508 361.574C445.047 361.94 443.56 361.047 443.194 359.587Z" fill="#5EDBC5"/>
<path d="M417.576 384.677C417.21 383.217 418.102 381.729 419.563 381.364C421.023 380.998 422.511 381.89 422.876 383.351C423.242 384.811 422.349 386.299 420.889 386.664C419.429 387.03 417.941 386.137 417.576 384.677Z" fill="#5EDBC5"/>
<path d="M207.199 230.713C206.671 228.603 208.022 226.426 210.294 225.857C212.565 225.289 214.783 226.573 215.311 228.682C215.839 230.792 214.488 232.969 212.216 233.537C209.944 234.106 207.726 232.822 207.199 230.713Z" fill="#5EDBC5"/>
<path opacity="0.3" d="M397.369 201.282C397.532 203.08 396.153 204.69 394.341 204.798C392.542 204.961 390.933 203.582 390.824 201.77C390.661 199.972 392.04 198.363 393.852 198.254C395.651 198.091 397.26 199.47 397.369 201.282Z" fill="#5EDBC5"/>
<path opacity="0.3" d="M240.331 240.697C240.548 243.172 238.668 245.309 236.248 245.512C233.774 245.729 231.637 243.85 231.433 241.43C231.216 238.955 233.095 236.818 235.516 236.615C237.936 236.411 240.114 238.223 240.331 240.697Z" fill="#5EDBC5"/>
<path opacity="0.3" d="M292.255 236.898C292.391 238.818 290.971 240.495 289.105 240.618C287.185 240.753 285.508 239.334 285.386 237.468C285.25 235.548 286.67 233.871 288.536 233.748C290.442 233.559 292.12 234.978 292.255 236.898Z" fill="#5EDBC5"/>
<path opacity="0.3" d="M278.224 255.238C278.359 257.158 276.94 258.835 275.074 258.957C273.154 259.093 271.477 257.673 271.354 255.807C271.219 253.887 272.638 252.21 274.504 252.088C276.411 251.898 278.088 253.317 278.224 255.238Z" fill="#5EDBC5"/>
<path opacity="0.3" d="M267.982 233.605C268.226 236.647 266.009 239.271 262.967 239.515C259.924 239.759 257.3 237.542 257.056 234.5C256.812 231.457 259.029 228.834 262.071 228.589C265.06 228.359 267.751 230.616 267.982 233.605Z" fill="#5EDBC5"/>
<path opacity="0.3" d="M312.772 142.509C312.935 144.307 311.556 145.917 309.744 146.026C307.946 146.188 306.336 144.809 306.228 142.997C306.065 141.199 307.444 139.59 309.256 139.481C311.068 139.372 312.664 140.697 312.772 142.509Z" fill="#5EDBC5"/>
<path opacity="0.3" d="M184.102 118.904C184.211 120.486 183.062 121.866 181.479 121.974C179.897 122.083 178.518 120.934 178.409 119.352C178.301 117.77 179.45 116.39 181.032 116.282C182.614 116.173 183.993 117.322 184.102 118.904Z" fill="#5EDBC5"/>
<path opacity="0.3" d="M14.0625 242.781C14.2524 245.147 12.468 247.203 10.1016 247.393C7.73529 247.583 5.67946 245.799 5.48957 243.432C5.29967 241.066 7.08411 239.01 9.45046 238.82C11.8168 238.63 13.8726 240.415 14.0625 242.781Z" fill="#5EDBC5"/>
<path opacity="0.3" d="M281.926 298.507C282.075 300.481 280.615 302.226 278.641 302.375C276.667 302.525 274.922 301.065 274.773 299.09C274.624 297.116 276.084 295.371 278.058 295.222C280.018 295.019 281.709 296.492 281.926 298.507Z" fill="#5EDBC5"/>
<path opacity="0.3" d="M61.6549 272.883C61.8041 274.857 60.3442 276.602 58.3699 276.751C56.3957 276.9 54.651 275.44 54.5018 273.466C54.3525 271.492 55.8125 269.747 57.7867 269.598C59.7474 269.395 61.5057 270.909 61.6549 272.883Z" fill="#5EDBC5"/>
<path opacity="0.3" d="M155.587 296.618C155.749 298.876 154.114 300.838 151.856 301C149.597 301.163 147.636 299.528 147.473 297.269C147.311 295.011 148.946 293.05 151.204 292.887C153.449 292.67 155.424 294.36 155.587 296.618Z" fill="#5EDBC5"/>
<path opacity="0.3" d="M192.27 286.576C192.433 288.834 190.797 290.795 188.539 290.958C186.281 291.121 184.32 289.485 184.157 287.227C183.994 284.969 185.63 283.008 187.888 282.845C190.133 282.628 192.107 284.318 192.27 286.576Z" fill="#5EDBC5"/>
<path opacity="0.3" d="M252.765 380.864C252.928 383.122 251.292 385.083 249.034 385.246C246.776 385.409 244.815 383.773 244.652 381.515C244.489 379.257 246.125 377.296 248.383 377.133C250.627 376.916 252.602 378.606 252.765 380.864Z" fill="#5EDBC5"/>
<path opacity="0.3" d="M190.6 368.317C190.763 370.575 189.127 372.536 186.869 372.699C184.611 372.862 182.65 371.226 182.487 368.968C182.324 366.71 183.96 364.749 186.218 364.586C188.462 364.369 190.437 366.059 190.6 368.317Z" fill="#5EDBC5"/>
<path opacity="0.3" d="M188.317 321.301C188.52 323.952 186.533 326.345 183.883 326.549C181.232 326.752 178.838 324.765 178.635 322.115C178.431 319.465 180.419 317.071 183.069 316.867C185.76 316.596 188.1 318.597 188.317 321.301Z" fill="#5EDBC5"/>
<path opacity="0.3" d="M140.24 248.848C140.471 251.607 138.43 254.014 135.671 254.245C132.913 254.475 130.505 252.434 130.275 249.676C130.044 246.917 132.085 244.51 134.844 244.279C137.602 244.049 140.01 246.09 140.24 248.848Z" fill="#5EDBC5"/>
<path opacity="0.3" d="M436.446 303.918C436.691 306.731 434.555 309.22 431.742 309.464C428.929 309.708 426.441 307.572 426.197 304.759C425.953 301.947 428.089 299.458 430.901 299.214C433.714 298.97 436.202 301.106 436.446 303.918Z" fill="#5EDBC5"/>
<path opacity="0.3" d="M313.727 395.263C313.971 398.076 311.835 400.564 309.023 400.808C306.21 401.052 303.721 398.917 303.477 396.104C303.233 393.292 305.369 390.803 308.182 390.559C310.994 390.315 313.469 392.397 313.727 395.263Z" fill="#5EDBC5"/>
<path opacity="0.3" d="M424.446 443.361C424.731 447.026 422.027 450.231 418.363 450.516C414.698 450.801 411.493 448.097 411.208 444.433C410.923 440.768 413.627 437.563 417.291 437.278C420.942 436.939 424.161 439.697 424.446 443.361Z" fill="#5EDBC5"/>
<path opacity="0.3" d="M396.267 505.069C396.403 506.99 394.997 508.721 393.023 508.87C391.103 509.006 389.371 507.6 389.222 505.626C389.086 503.706 390.492 501.974 392.467 501.825C394.441 501.676 396.132 503.149 396.267 505.069Z" fill="#5EDBC5"/>
<path opacity="0.3" d="M370.719 539.624C370.841 541.031 369.773 542.275 368.366 542.397C366.96 542.519 365.716 541.451 365.594 540.045C365.472 538.638 366.54 537.394 367.946 537.272C369.352 537.15 370.597 538.218 370.719 539.624Z" fill="#5EDBC5"/>
<path opacity="0.3" d="M453.427 510.937C453.549 512.574 452.36 514.021 450.724 514.143C449.087 514.265 447.64 513.075 447.518 511.439C447.396 509.803 448.586 508.356 450.222 508.234C451.844 508.058 453.251 509.315 453.427 510.937Z" fill="#5EDBC5"/>
<path opacity="0.3" d="M498.915 449.725C499.091 451.807 497.536 453.633 495.4 453.823C493.318 453.999 491.492 452.445 491.302 450.308C491.126 448.226 492.68 446.4 494.817 446.21C496.913 446.088 498.738 447.643 498.915 449.725Z" fill="#5EDBC5"/>
<path opacity="0.3" d="M523.28 494.721C523.456 496.803 521.901 498.629 519.765 498.819C517.682 498.995 515.857 497.44 515.667 495.304C515.49 493.222 517.045 491.396 519.181 491.206C521.277 491.084 523.103 492.638 523.28 494.721Z" fill="#5EDBC5"/>
<path opacity="0.3" d="M461.993 481.092C462.197 483.513 460.372 485.636 458.005 485.826C455.585 486.029 453.461 484.204 453.272 481.838C453.068 479.418 454.893 477.294 457.259 477.104C459.734 476.887 461.844 478.658 461.993 481.092Z" fill="#5EDBC5"/>
<path opacity="0.3" d="M289.112 487.057C289.302 489.653 287.355 491.98 284.759 492.17C282.163 492.36 279.837 490.413 279.647 487.817C279.457 485.22 281.403 482.894 284 482.704C286.596 482.514 288.922 484.461 289.112 487.057Z" fill="#5EDBC5"/>
<path opacity="0.3" d="M356.611 357.864C356.76 359.379 355.651 360.691 354.123 360.786C352.609 360.935 351.297 359.826 351.202 358.298C351.053 356.784 352.161 355.472 353.689 355.377C355.204 355.228 356.516 356.336 356.611 357.864Z" fill="#5EDBC5"/>
<path opacity="0.3" d="M386.003 337.29C386.152 338.804 385.044 340.116 383.516 340.211C382.001 340.361 380.689 339.252 380.594 337.724C380.445 336.21 381.554 334.898 383.082 334.803C384.542 334.667 385.854 335.776 386.003 337.29Z" fill="#5EDBC5"/>
<path opacity="0.3" d="M568.478 523.525C568.681 525.716 566.924 527.65 564.666 527.813C562.354 527.989 560.392 526.353 560.203 524.217C559.999 522.027 561.757 520.092 564.015 519.93C566.314 519.699 568.275 521.335 568.478 523.525Z" fill="#5EDBC5"/>
<path d="M549.162 549.682C552.209 548.92 554.061 545.832 553.298 542.785C552.535 539.739 549.447 537.887 546.4 538.649C543.353 539.411 541.502 542.499 542.264 545.545C543.027 548.592 546.116 550.444 549.162 549.682Z" stroke="#5EDBC5" stroke-width="2.4864" stroke-miterlimit="10"/>
<path d="M546.901 540.65C548.848 540.162 550.809 541.338 551.296 543.285C551.783 545.232 550.607 547.193 548.66 547.681C546.713 548.168 544.752 546.992 544.265 545.045C543.778 543.098 544.954 541.137 546.901 540.65Z" fill="#5EDBC5"/>
<path d="M518.04 576.436C517.498 574.273 518.796 572.109 520.959 571.567C523.123 571.026 525.287 572.324 525.828 574.487C526.369 576.65 525.072 578.814 522.908 579.356C520.799 579.884 518.581 578.6 518.04 576.436Z" stroke="#5EDBC5" stroke-width="1.7556" stroke-miterlimit="10"/>
<path d="M521.365 572.96C522.717 572.622 524.137 573.473 524.476 574.825C524.814 576.177 523.963 577.597 522.61 577.936C521.258 578.274 519.838 577.423 519.5 576.071C519.148 574.664 519.959 573.312 521.365 572.96Z" fill="#5EDBC5"/>
<path d="M710.254 333.789C713.301 333.027 715.153 329.939 714.39 326.892C713.627 323.846 710.539 321.994 707.492 322.756C704.445 323.518 702.594 326.606 703.356 329.653C704.119 332.699 707.207 334.551 710.254 333.789Z" stroke="#5EDBC5" stroke-width="2.4864" stroke-miterlimit="10"/>
<path d="M707.993 324.757C709.94 324.27 711.901 325.446 712.388 327.393C712.876 329.34 711.7 331.301 709.752 331.788C707.805 332.275 705.844 331.099 705.357 329.152C704.87 327.205 706.046 325.244 707.993 324.757Z" fill="#5EDBC5"/>
<path d="M537.86 341.242C537.25 338.808 538.751 336.306 541.184 335.697C543.618 335.088 546.121 336.588 546.73 339.022C547.339 341.456 545.839 343.958 543.405 344.567C540.971 345.176 538.469 343.675 537.86 341.242Z" stroke="#5EDBC5" stroke-width="1.984" stroke-miterlimit="10"/>
<path d="M541.604 337.373C543.173 336.981 544.728 337.913 545.12 339.482C545.513 341.05 544.58 342.606 543.012 342.998C541.443 343.391 539.888 342.458 539.495 340.89C539.103 339.321 540.036 337.766 541.604 337.373Z" fill="#5EDBC5"/>
<path d="M190.843 307.968C189.963 304.452 192.111 300.869 195.627 299.989C199.143 299.11 202.727 301.259 203.607 304.775C204.487 308.29 202.338 311.874 198.823 312.753C195.321 313.687 191.736 311.537 190.843 307.968Z" stroke="#5EDBC5" stroke-width="2.8757" stroke-miterlimit="10"/>
<path d="M196.209 302.314C198.427 301.759 200.726 303.138 201.281 305.356C201.836 307.573 200.457 309.872 198.239 310.427C196.022 310.982 193.723 309.603 193.168 307.386C192.613 305.168 193.991 302.869 196.209 302.314Z" fill="#5EDBC5"/>
<path d="M316.049 265.14C318.827 264.445 320.515 261.63 319.82 258.852C319.124 256.074 316.308 254.385 313.53 255.08C310.752 255.775 309.064 258.591 309.759 261.369C310.455 264.147 313.271 265.835 316.049 265.14Z" stroke="#5EDBC5" stroke-width="2.2645" stroke-miterlimit="10"/>
<path d="M313.99 256.919C315.775 256.473 317.547 257.581 317.98 259.312C318.427 261.096 317.318 262.868 315.588 263.301C313.857 263.734 312.031 262.64 311.598 260.909C311.151 259.124 312.26 257.352 313.99 256.919Z" fill="#5EDBC5"/>
<path d="M95.8705 178.572C95.1665 175.759 96.8695 172.919 99.6819 172.216C102.494 171.512 105.335 173.215 106.039 176.028C106.743 178.84 105.04 181.68 102.227 182.384C99.4147 183.087 96.5745 181.384 95.8705 178.572Z" stroke="#5EDBC5" stroke-width="2.2889" stroke-miterlimit="10"/>
<path d="M100.142 174.054C101.927 173.607 103.753 174.702 104.199 176.487C104.646 178.272 103.551 180.098 101.766 180.544C99.9815 180.991 98.1557 179.896 97.7091 178.111C97.2624 176.327 98.3572 174.501 100.142 174.054Z" fill="#5EDBC5"/>
<path opacity="0.1" d="M535.246 52.2351C536.031 55.372 534.139 58.6042 530.947 59.4028C527.811 60.1879 524.578 58.2956 523.78 55.1046C522.995 51.9677 524.887 48.7354 528.078 47.9368C531.269 47.1382 534.447 49.0441 535.246 52.2351Z" fill="#5EDBC5"/>
<path opacity="0.1" d="M268.534 168.753C269.617 173.08 267.035 177.462 262.708 178.544C258.381 179.627 253.999 177.046 252.917 172.719C251.834 168.392 254.415 164.01 258.742 162.927C263.069 161.845 267.451 164.426 268.534 168.753Z" fill="#5EDBC5"/>
<path opacity="0.1" d="M359.533 146.554C360.373 149.907 358.345 153.288 355.046 154.114C351.692 154.953 348.311 152.926 347.486 149.626C346.647 146.273 348.674 142.892 351.973 142.066C355.273 141.241 358.654 143.268 359.533 146.554Z" fill="#5EDBC5"/>
<path opacity="0.1" d="M340.097 183.258C340.937 186.611 338.909 189.992 335.61 190.818C332.257 191.657 328.876 189.629 328.05 186.33C327.211 182.977 329.238 179.596 332.537 178.77C335.823 177.891 339.204 179.918 340.097 183.258Z" fill="#5EDBC5"/>
<path opacity="0.1" d="M315.465 147.985C316.791 153.285 313.588 158.627 308.341 159.94C303.041 161.266 297.699 158.063 296.386 152.817C295.059 147.516 298.263 142.174 303.509 140.861C308.81 139.535 314.152 142.738 315.465 147.985Z" fill="#5EDBC5"/>
<path opacity="0.1" d="M359.412 258.828C360.279 262.289 358.17 265.806 354.709 266.672C351.247 267.538 347.731 265.43 346.865 261.968C345.998 258.507 348.107 254.99 351.568 254.124C355.03 253.258 358.546 255.367 359.412 258.828Z" fill="#5EDBC5"/>
<path opacity="0.1" d="M134.978 293.04C135.966 296.988 133.573 300.978 129.625 301.966C125.677 302.954 121.687 300.561 120.713 296.667C119.725 292.719 122.117 288.729 126.065 287.741C130 286.699 133.99 289.092 134.978 293.04Z" fill="#5EDBC5"/>
<path opacity="0.1" d="M196.997 264.358C197.986 268.306 195.593 272.295 191.645 273.284C187.697 274.272 183.707 271.879 182.732 267.985C181.744 264.037 184.137 260.047 188.085 259.059C192.02 258.017 196.009 260.409 196.997 264.358Z" fill="#5EDBC5"/>
<path opacity="0.1" d="M332.257 413.5C333.245 417.448 330.853 421.438 326.905 422.426C322.956 423.414 318.967 421.022 317.992 417.128C317.004 413.179 319.396 409.19 323.345 408.202C327.279 407.16 331.269 409.552 332.257 413.5Z" fill="#5EDBC5"/>
<path opacity="0.1" d="M218.317 409.715C219.306 413.663 216.913 417.653 212.965 418.641C209.017 419.629 205.027 417.236 204.039 413.288C203.051 409.34 205.443 405.35 209.391 404.362C213.34 403.374 217.329 405.767 218.317 409.715Z" fill="#5EDBC5"/>
<path opacity="0.1" d="M138.32 355.998C139.484 360.649 136.659 365.437 132.007 366.601C127.356 367.765 122.568 364.94 121.404 360.289C120.24 355.637 123.065 350.85 127.717 349.686C132.409 348.454 137.142 351.293 138.32 355.998Z" fill="#5EDBC5"/>
<path opacity="0.1" d="M93.5528 212.945C94.7574 217.759 91.8378 222.628 87.0242 223.832C82.2105 225.037 77.3418 222.117 76.1371 217.304C74.9325 212.49 77.8521 207.622 82.6657 206.417C87.4253 205.226 92.294 208.145 93.5528 212.945Z" fill="#5EDBC5"/>
<path opacity="0.1" d="M634.947 222.575C636.179 227.497 633.192 232.555 628.27 233.787C623.348 235.018 618.29 232.031 617.058 227.109C615.826 222.188 618.814 217.13 623.736 215.898C628.711 214.653 633.715 217.653 634.947 222.575Z" fill="#5EDBC5"/>
<path opacity="0.1" d="M379.128 479.071C380.36 483.993 377.373 489.051 372.451 490.282C367.529 491.514 362.471 488.527 361.239 483.605C360.007 478.683 362.995 473.625 367.916 472.394C372.825 471.108 377.829 474.109 379.128 479.071Z" fill="#5EDBC5"/>
<path opacity="0.1" d="M655.171 473.324C656.781 479.76 652.889 486.251 646.506 487.848C640.07 489.459 633.579 485.566 631.981 479.184C630.371 472.748 634.264 466.257 640.646 464.66C647.014 463.008 653.506 466.901 655.171 473.324Z" fill="#5EDBC5"/>
<path opacity="0.1" d="M788.971 462.541C789.892 466.218 787.661 469.937 783.984 470.858C780.306 471.778 776.587 469.548 775.666 465.87C774.746 462.192 776.976 458.473 780.654 457.553C784.332 456.633 788.051 458.863 788.971 462.541Z" fill="#5EDBC5"/>
<path opacity="0.1" d="M843.727 479.7C844.783 483.918 842.228 488.178 838.023 489.288C833.804 490.344 829.544 487.789 828.434 483.584C827.378 479.366 829.933 475.106 834.138 473.996C838.357 472.94 842.617 475.495 843.727 479.7Z" fill="#5EDBC5"/>
<path opacity="0.1" d="M428.228 590.981C429.379 595.578 426.621 600.176 422.024 601.327C417.427 602.477 412.828 599.72 411.624 595.136C410.473 590.539 413.231 585.941 417.828 584.79C422.425 583.64 427.037 586.451 428.228 590.981Z" fill="#5EDBC5"/>
<path opacity="0.1" d="M509.517 341.898C510.166 344.494 508.598 347.185 506.002 347.835C503.406 348.484 500.715 346.917 500.065 344.321C499.415 341.724 500.983 339.033 503.58 338.383C506.162 337.68 508.853 339.248 509.517 341.898Z" fill="#5EDBC5"/>
<path opacity="0.1" d="M555.441 296.668C556.09 299.264 554.523 301.956 551.926 302.605C549.33 303.255 546.639 301.687 545.989 299.091C545.34 296.495 546.908 293.804 549.504 293.154C552.154 292.491 554.791 294.072 555.441 296.668Z" fill="#5EDBC5"/>
</svg>
