<svg width="108" height="108" viewBox="0 0 108 108" fill="none" xmlns="http://www.w3.org/2000/svg">
<path d="M54 4.5L13.5 22.5V49.5C13.5 84.735 42.4755 101.187 54 103.5C65.5245 101.187 94.5 84.735 94.5 49.5V22.5L54 4.5ZM54 14.3525L85.5 28.3535V49.5C85.5 57.7605 83.5478 64.7809 80.5781 70.6816C73.5557 65.3893 60.8587 63 54 63C47.1412 63 34.4399 65.3891 27.4219 70.6816C24.4522 64.7809 22.5 57.7605 22.5 49.5V28.3535L54 14.3525ZM54 25.875C45.936 25.875 39.375 32.436 39.375 40.5C39.375 48.564 45.936 55.125 54 55.125C62.064 55.125 68.625 48.564 68.625 40.5C68.625 32.436 62.064 25.875 54 25.875ZM54 34.875C57.1005 34.875 59.625 37.3995 59.625 40.5C59.625 43.6005 57.1005 46.125 54 46.125C50.8995 46.125 48.375 43.6005 48.375 40.5C48.375 37.3995 50.8995 34.875 54 34.875ZM54 72C65.0103 72 71.8997 75.2398 76.0869 77.915C69.031 87.1926 59.655 92.475 54 94.2188C48.345 92.475 38.969 87.1926 31.9131 77.915C36.1003 75.2398 42.9897 72 54 72Z" fill="#5EDBC5"/>
</svg>
